<svg id="Layer_1" data-name="Layer 1" xmlns="http://www.w3.org/2000/svg" xmlns:xlink="http://www.w3.org/1999/xlink" viewBox="0 0 40 32"><defs><style>.cls-1{fill:url(#linear-gradient);}.cls-2{fill:url(#linear-gradient-2);}</style><linearGradient id="linear-gradient" x1="16.22" y1="16.3" x2="31.62" y2="16.3" gradientUnits="userSpaceOnUse"><stop offset="0.26" stop-color="#b20d30"/><stop offset="1" stop-color="#ff6060"/></linearGradient><linearGradient id="linear-gradient-2" x1="8.38" y1="17.1" x2="13.08" y2="17.1" xlink:href="#linear-gradient"/></defs><path class="cls-1" d="M31.61,15.76q0,5.18,0,10.35c0,.45,0,.84-.53,1a15,15,0,0,1-9.25.72c-6.5-1.77-6.92-10-3.5-13.77A9.51,9.51,0,0,1,25.83,11c.88,0,1.11-.24,1.08-1.08-.06-1.53,0-3.06,0-4.58,0-.9.3-1.14,1.12-1.09a18.94,18.94,0,0,0,2.61,0c.78,0,1,.27,1,1,0,3.48,0,7,0,10.46Zm-4.72,3.92c0-1.2-.07-2.4,0-3.6.08-1-.4-1.22-1.27-1.21-3,.05-4.85,2.2-4.67,5.32.17,2.83,2.27,4.43,5.28,4.08.54-.06.65-.32.64-.78C26.88,22.22,26.89,21,26.89,19.68Z"/><path class="cls-2" d="M8.41,17.17c0-3.31,0-6.61,0-9.92,0-.93.28-1.21,1.17-1.14a20.51,20.51,0,0,0,2.6,0c.64,0,.92.18.92.85q0,10.14,0,20.28c0,.63-.28.83-.85.82a25.24,25.24,0,0,0-2.61,0c-.94.08-1.26-.22-1.24-1.21C8.45,23.64,8.41,20.41,8.41,17.17Z"/></svg>