<?xml version="1.0" encoding="utf-8"?>
<!-- Generator: Adobe Illustrator 25.0.1, SVG Export Plug-In . SVG Version: 6.00 Build 0)  -->
<svg version="1.1" id="Layer_1" xmlns="http://www.w3.org/2000/svg" xmlns:xlink="http://www.w3.org/1999/xlink" x="0px" y="0px"
	 viewBox="0 0 40 32" style="enable-background:new 0 0 40 32;" xml:space="preserve">
<style type="text/css">
	.st0{opacity:0.15;fill-rule:evenodd;clip-rule:evenodd;fill:url(#SVGID_1_);enable-background:new    ;}
	.st1{fill:url(#SVGID_2_);}
	.st2{fill:url(#SVGID_3_);}
	.st3{fill:url(#SVGID_4_);}
	.st4{fill:url(#SVGID_5_);}
	.st5{fill:url(#SVGID_6_);}
	.st6{fill:url(#SVGID_7_);}
	.st7{fill:url(#SVGID_8_);}
	.st8{fill:url(#SVGID_9_);}
	.st9{fill:url(#SVGID_10_);}
	.st10{fill:url(#SVGID_11_);}
	.st11{opacity:0.15;fill:url(#SVGID_12_);}
	.st12{fill:url(#SVGID_13_);}
	.st13{opacity:0.15;fill:url(#SVGID_14_);}
	.st14{opacity:0.15;fill:url(#SVGID_15_);}
	.st15{fill:url(#SVGID_16_);}
	.st16{fill:url(#SVGID_17_);}
	.st17{fill:url(#SVGID_18_);}
	.st18{fill:url(#SVGID_19_);}
	.st19{fill:url(#SVGID_20_);}
	.st20{fill:url(#SVGID_21_);}
	.st21{fill:url(#SVGID_22_);}
	.st22{fill:url(#SVGID_23_);}
	.st23{fill:url(#SVGID_24_);}
	.st24{opacity:0.15;fill:url(#SVGID_25_);}
	.st25{opacity:0.15;fill:url(#SVGID_26_);}
	.st26{opacity:0.15;fill:url(#SVGID_27_);}
	.st27{fill:url(#SVGID_28_);}
	.st28{fill:url(#SVGID_29_);}
	.st29{opacity:0.15;fill:url(#SVGID_30_);}
	.st30{opacity:0.15;fill:url(#SVGID_31_);}
	.st31{opacity:0.15;fill:url(#SVGID_32_);}
	.st32{opacity:0.15;fill:url(#SVGID_33_);}
	.st33{opacity:0.15;fill:url(#SVGID_34_);}
	.st34{opacity:0.15;fill:url(#SVGID_35_);}
	.st35{opacity:0.15;fill:url(#SVGID_36_);}
	.st36{opacity:0.15;fill:url(#SVGID_37_);}
	.st37{opacity:0.15;fill:url(#SVGID_38_);}
	.st38{fill:url(#SVGID_39_);}
	.st39{opacity:0.15;fill:url(#SVGID_40_);}
	.st40{opacity:0.15;fill:url(#SVGID_41_);}
	.st41{fill:url(#SVGID_42_);}
	.st42{fill:url(#SVGID_43_);}
	.st43{fill:url(#SVGID_44_);}
	.st44{fill:url(#SVGID_45_);}
	.st45{fill:url(#SVGID_46_);}
	.st46{fill:url(#SVGID_47_);}
	.st47{fill:url(#SVGID_48_);}
	.st48{opacity:0.15;fill:url(#SVGID_49_);}
	.st49{opacity:0.15;fill:url(#SVGID_50_);}
	.st50{fill:url(#SVGID_51_);}
	.st51{fill:url(#SVGID_52_);}
	.st52{fill:url(#SVGID_53_);}
	.st53{fill:url(#SVGID_54_);}
	.st54{opacity:0.15;fill:url(#SVGID_55_);}
	.st55{opacity:0.15;fill:url(#SVGID_56_);}
	.st56{opacity:0.15;fill:url(#SVGID_57_);}
	.st57{opacity:0.15;fill:url(#SVGID_58_);}
	.st58{opacity:0.15;fill:url(#SVGID_59_);}
	.st59{opacity:0.15;fill:url(#SVGID_60_);}
	.st60{opacity:0.15;fill:url(#SVGID_61_);}
	.st61{opacity:0.15;fill:url(#SVGID_62_);}
	.st62{opacity:0.15;fill:url(#SVGID_63_);}
	.st63{opacity:0.15;fill:url(#SVGID_64_);}
	.st64{opacity:0.15;fill:url(#SVGID_65_);}
	.st65{fill:url(#SVGID_66_);}
	.st66{fill:url(#SVGID_67_);}
	.st67{fill:url(#SVGID_68_);}
	.st68{fill:url(#SVGID_69_);}
	.st69{fill:url(#SVGID_70_);}
	.st70{fill:url(#SVGID_71_);}
	.st71{fill:url(#SVGID_72_);}
	.st72{fill:url(#SVGID_73_);}
	.st73{fill:url(#SVGID_74_);}
	.st74{fill:url(#SVGID_75_);}
	.st75{fill:url(#SVGID_76_);}
	.st76{fill:url(#SVGID_77_);}
	.st77{fill:url(#SVGID_78_);}
	.st78{fill:url(#SVGID_79_);}
	.st79{opacity:0.15;fill:url(#SVGID_80_);}
	.st80{opacity:0.15;fill:url(#SVGID_81_);}
	.st81{opacity:0.15;fill:url(#SVGID_82_);}
	.st82{opacity:0.15;fill:url(#SVGID_83_);}
	.st83{fill:url(#SVGID_84_);}
	.st84{fill:url(#SVGID_85_);}
	.st85{fill:url(#SVGID_86_);}
	.st86{fill:url(#SVGID_87_);}
	.st87{fill:url(#SVGID_88_);}
	.st88{fill:url(#SVGID_89_);}
	.st89{fill:url(#SVGID_90_);}
	.st90{fill:url(#SVGID_91_);}
	.st91{fill:url(#SVGID_92_);}
	.st92{fill:url(#SVGID_93_);}
	.st93{fill:url(#SVGID_94_);}
	.st94{opacity:0.15;fill:url(#SVGID_95_);}
	.st95{opacity:0.15;fill:url(#SVGID_96_);}
	.st96{fill:url(#SVGID_97_);}
	.st97{fill:url(#SVGID_98_);}
	.st98{opacity:0.15;fill:url(#SVGID_99_);}
	.st99{opacity:0.15;fill:url(#SVGID_100_);}
	.st100{opacity:0.15;fill:url(#SVGID_101_);}
	.st101{fill:url(#SVGID_102_);}
	.st102{fill:url(#SVGID_103_);}
	.st103{fill:url(#SVGID_104_);}
	.st104{opacity:0.15;fill:url(#SVGID_105_);}
	.st105{opacity:0.15;fill:url(#SVGID_106_);}
	.st106{opacity:0.15;fill:url(#SVGID_107_);}
	.st107{fill:url(#SVGID_108_);}
	.st108{fill:url(#SVGID_109_);}
	.st109{fill:url(#SVGID_110_);}
	.st110{fill:url(#SVGID_111_);}
	.st111{fill:url(#SVGID_112_);}
	.st112{fill:url(#SVGID_113_);}
	.st113{fill:url(#SVGID_114_);}
	.st114{fill:url(#SVGID_115_);}
	.st115{fill:url(#SVGID_116_);}
	.st116{fill:url(#SVGID_117_);}
	.st117{fill:url(#SVGID_118_);}
	.st118{fill:url(#SVGID_119_);}
	.st119{fill:url(#SVGID_120_);}
	.st120{fill:url(#SVGID_121_);}
	.st121{fill:#1F9BEF;}
	.st122{fill:url(#SVGID_122_);}
	.st123{fill:url(#SVGID_123_);}
	.st124{fill:#FFFFFF;}
	.st125{fill:url(#SVGID_124_);}
	.st126{fill:url(#SVGID_125_);}
	.st127{fill:url(#SVGID_126_);}
	.st128{opacity:0.15;fill:url(#SVGID_127_);enable-background:new    ;}
	.st129{fill:url(#SVGID_128_);}
	.st130{opacity:0.15;fill:url(#SVGID_129_);enable-background:new    ;}
	.st131{opacity:0.15;fill:url(#SVGID_130_);enable-background:new    ;}
	.st132{fill:url(#SVGID_131_);}
	.st133{fill:url(#SVGID_132_);}
	.st134{fill:url(#SVGID_133_);}
	.st135{fill:url(#SVGID_134_);}
	.st136{fill:url(#SVGID_135_);}
	.st137{fill:url(#SVGID_136_);}
	.st138{fill:url(#SVGID_137_);}
	.st139{fill:url(#SVGID_138_);}
	.st140{fill:url(#SVGID_139_);}
	.st141{opacity:0.15;fill:url(#SVGID_140_);enable-background:new    ;}
	.st142{opacity:0.15;fill:url(#SVGID_141_);enable-background:new    ;}
	.st143{opacity:0.15;fill:url(#SVGID_142_);enable-background:new    ;}
	.st144{fill:url(#SVGID_143_);}
	.st145{fill:url(#SVGID_144_);}
	.st146{opacity:0.15;fill:url(#SVGID_145_);enable-background:new    ;}
	.st147{opacity:0.15;fill:url(#SVGID_146_);enable-background:new    ;}
	.st148{opacity:0.15;fill:url(#SVGID_147_);enable-background:new    ;}
	.st149{opacity:0.15;fill:url(#SVGID_148_);enable-background:new    ;}
	.st150{opacity:0.15;fill:url(#SVGID_149_);enable-background:new    ;}
	.st151{opacity:0.15;fill:url(#SVGID_150_);enable-background:new    ;}
	.st152{opacity:0.15;fill:url(#SVGID_151_);enable-background:new    ;}
	.st153{opacity:0.15;fill:url(#SVGID_152_);enable-background:new    ;}
	.st154{opacity:0.15;fill:url(#SVGID_153_);enable-background:new    ;}
	.st155{fill:url(#SVGID_154_);}
	.st156{opacity:0.15;fill:url(#SVGID_155_);enable-background:new    ;}
	.st157{opacity:0.15;fill:url(#SVGID_156_);enable-background:new    ;}
	.st158{fill:url(#SVGID_157_);}
	.st159{fill:url(#SVGID_158_);}
	.st160{fill:url(#SVGID_159_);}
	.st161{fill:url(#SVGID_160_);}
	.st162{fill:url(#SVGID_161_);}
	.st163{fill:url(#SVGID_162_);}
	.st164{fill:url(#SVGID_163_);}
	.st165{opacity:0.15;fill:url(#SVGID_164_);enable-background:new    ;}
	.st166{opacity:0.15;fill:url(#SVGID_165_);enable-background:new    ;}
	.st167{fill:url(#SVGID_166_);}
	.st168{fill:url(#SVGID_167_);}
	.st169{fill:url(#SVGID_168_);}
	.st170{fill:url(#SVGID_169_);}
	.st171{opacity:0.15;fill:url(#SVGID_170_);enable-background:new    ;}
	.st172{opacity:0.15;fill:url(#SVGID_171_);enable-background:new    ;}
	.st173{opacity:0.15;fill:url(#SVGID_172_);enable-background:new    ;}
	.st174{opacity:0.15;fill:url(#SVGID_173_);enable-background:new    ;}
	.st175{opacity:0.15;fill:url(#SVGID_174_);enable-background:new    ;}
	.st176{opacity:0.15;fill:url(#SVGID_175_);enable-background:new    ;}
	.st177{opacity:0.15;fill:url(#SVGID_176_);enable-background:new    ;}
	.st178{opacity:0.15;fill:url(#SVGID_177_);enable-background:new    ;}
	.st179{opacity:0.15;fill:url(#SVGID_178_);enable-background:new    ;}
	.st180{opacity:0.15;fill:url(#SVGID_179_);enable-background:new    ;}
	.st181{opacity:0.15;fill:url(#SVGID_180_);enable-background:new    ;}
	.st182{fill:url(#SVGID_181_);}
	.st183{fill:url(#SVGID_182_);}
	.st184{fill:url(#SVGID_183_);}
	.st185{fill:url(#SVGID_184_);}
	.st186{fill:url(#SVGID_185_);}
	.st187{fill:url(#SVGID_186_);}
	.st188{fill:url(#SVGID_187_);}
	.st189{fill:url(#SVGID_188_);}
	.st190{fill:url(#SVGID_189_);}
	.st191{fill:url(#SVGID_190_);}
	.st192{fill:url(#SVGID_191_);}
	.st193{fill:url(#SVGID_192_);}
	.st194{fill:url(#SVGID_193_);}
	.st195{fill:url(#SVGID_194_);}
	.st196{opacity:0.15;fill:url(#SVGID_195_);enable-background:new    ;}
	.st197{opacity:0.15;fill:url(#SVGID_196_);enable-background:new    ;}
	.st198{opacity:0.15;fill:url(#SVGID_197_);enable-background:new    ;}
	.st199{opacity:0.15;fill:url(#SVGID_198_);enable-background:new    ;}
	.st200{fill:url(#SVGID_199_);}
	.st201{fill:url(#SVGID_200_);}
	.st202{fill:url(#SVGID_201_);}
	.st203{fill:url(#SVGID_202_);}
	.st204{fill:url(#SVGID_203_);}
	.st205{fill:url(#SVGID_204_);}
	.st206{fill:url(#SVGID_205_);}
	.st207{fill:url(#SVGID_206_);}
	.st208{fill:url(#SVGID_207_);}
	.st209{fill:url(#SVGID_208_);}
	.st210{fill:url(#SVGID_209_);}
	.st211{opacity:0.15;fill:url(#SVGID_210_);enable-background:new    ;}
	.st212{opacity:0.15;fill:url(#SVGID_211_);enable-background:new    ;}
	.st213{fill:url(#SVGID_212_);}
	.st214{fill:url(#SVGID_213_);}
	.st215{opacity:0.15;fill:url(#SVGID_214_);enable-background:new    ;}
	.st216{opacity:0.15;fill:url(#SVGID_215_);enable-background:new    ;}
	.st217{opacity:0.15;fill:url(#SVGID_216_);enable-background:new    ;}
	.st218{fill:url(#SVGID_217_);}
	.st219{fill:url(#SVGID_218_);}
	.st220{fill:url(#SVGID_219_);}
	.st221{opacity:0.15;fill:url(#SVGID_220_);enable-background:new    ;}
	.st222{opacity:0.15;fill:url(#SVGID_221_);enable-background:new    ;}
	.st223{opacity:0.15;fill:url(#SVGID_222_);enable-background:new    ;}
	.st224{fill:url(#SVGID_223_);}
	.st225{fill:url(#SVGID_224_);}
	.st226{fill:url(#SVGID_225_);}
	.st227{fill:url(#SVGID_226_);}
	.st228{fill:url(#SVGID_227_);}
	.st229{fill:url(#SVGID_228_);}
	.st230{fill:url(#SVGID_229_);}
	.st231{fill:url(#SVGID_230_);}
	.st232{fill:url(#SVGID_231_);}
	.st233{fill:url(#SVGID_232_);}
	.st234{fill:url(#SVGID_233_);}
	.st235{fill:url(#SVGID_234_);}
	.st236{fill:url(#SVGID_235_);}
	.st237{fill:url(#SVGID_236_);}
	.st238{fill:url(#SVGID_237_);}
	.st239{fill:url(#SVGID_238_);}
	.st240{fill:#141312;}
	.st241{fill:url(#SVGID_239_);}
	.st242{fill:url(#SVGID_240_);}
</style>
<g>
	<linearGradient id="SVGID_1_" gradientUnits="userSpaceOnUse" x1="7.280565e-02" y1="15.957" x2="40.0203" y2="15.957">
		<stop  offset="0.2593" style="stop-color:#B20D30"/>
		<stop  offset="1" style="stop-color:#FF6060"/>
	</linearGradient>
	<path style="fill:url(#SVGID_1_);" d="M4.5,9c0-1.2,0-2.4,0-3.5c0-0.8,0.1-1,1-1c1.2,0,2.3,0,3.5,0C9,4.3,9,4.1,9,4
		c0-1.1,0-2.2,0-3.3C9,0.2,9.2,0,9.7,0c0.1,0,0.1,0,0.2,0c9.7,0,19.5,0,29.2,0c0.1,0,0.3,0,0.4,0c0.2,0.1,0.3,0.3,0.5,0.5
		c0.1,0.1,0,0.3,0,0.4c0,7.1,0,14.1,0,21.2c0,0.8-0.1,0.9-0.9,0.9c-1,0-2.1,0-3.1,0c-0.1,0-0.3,0-0.4,0c0,0.5,0,1,0,1.5
		c0,0.8,0,1.5,0,2.3c0,0.5-0.2,0.7-0.7,0.7c-1.1,0-2.2,0-3.3,0c-0.1,0-0.3,0-0.5,0c0,0.4,0,0.8,0,1.2c0,0.9,0,1.7,0,2.6
		c0,0.5-0.2,0.7-0.7,0.7c-0.1,0-0.2,0-0.2,0c-9.7,0-19.4,0-29.1,0c-0.8,0-1-0.1-1-0.9c0-7.1,0-14.1,0-21.2C0.1,9.1,0.2,9,1,9
		C2.1,9,3.3,9,4.5,9z M1.2,30.8c9.6,0,19.1,0,28.7,0c0-6.9,0-13.8,0-20.7c-9.6,0-19.1,0-28.7,0C1.2,17,1.2,23.9,1.2,30.8z
		 M34.4,26.3c0-6.9,0-13.8,0-20.7c-9.6,0-19.1,0-28.7,0c0,1.1,0,2.2,0,3.3C5.9,9,6,9,6.2,9c8,0,16,0,24,0c0.8,0,0.9,0.1,0.9,0.9
		c0,5.3,0,10.6,0,15.9c0,0.2,0,0.3,0,0.5C32.2,26.3,33.3,26.3,34.4,26.3z M10.1,4.5c0.2,0,0.4,0,0.6,0c8,0,15.9,0,23.9,0
		c0.8,0,0.9,0.1,0.9,0.9c0,5.3,0,10.6,0,15.9c0,0.2,0,0.3,0,0.5c1.1,0,2.2,0,3.3,0c0-6.9,0-13.8,0-20.7c-9.6,0-19.1,0-28.7,0
		C10.1,2.2,10.1,3.3,10.1,4.5z"/>
	<linearGradient id="SVGID_2_" gradientUnits="userSpaceOnUse" x1="5.6861" y1="15.9666" x2="34.3902" y2="15.9666">
		<stop  offset="0.2593" style="stop-color:#B20D30"/>
		<stop  offset="1" style="stop-color:#FF6060"/>
	</linearGradient>
	<path style="opacity:0.15;fill:url(#SVGID_2_);" d="M34.4,26.3c-1.1,0-2.2,0-3.3,0c0-0.2,0-0.3,0-0.5c0-5.3,0-10.6,0-15.9
		C31.1,9.1,31,9,30.2,9c-8,0-16,0-24,0C6,9,5.9,9,5.7,9c0-1.1,0-2.2,0-3.3c9.6,0,19.1,0,28.7,0C34.4,12.5,34.4,19.4,34.4,26.3z"/>
	<linearGradient id="SVGID_3_" gradientUnits="userSpaceOnUse" x1="10.1413" y1="11.4666" x2="38.8543" y2="11.4666">
		<stop  offset="0.2593" style="stop-color:#B20D30"/>
		<stop  offset="1" style="stop-color:#FF6060"/>
	</linearGradient>
	<path style="opacity:0.15;fill:url(#SVGID_3_);" d="M10.1,4.5c0-1.1,0-2.2,0-3.3c9.6,0,19.1,0,28.7,0c0,6.9,0,13.8,0,20.7
		c-1.1,0-2.2,0-3.3,0c0-0.2,0-0.3,0-0.5c0-5.3,0-10.6,0-15.9c0-0.8-0.1-0.9-0.9-0.9c-8,0-15.9,0-23.9,0C10.5,4.5,10.4,4.5,10.1,4.5z
		"/>
	<linearGradient id="SVGID_4_" gradientUnits="userSpaceOnUse" x1="3.9528" y1="16.6567" x2="14.6289" y2="16.6567">
		<stop  offset="0.2593" style="stop-color:#B20D30"/>
		<stop  offset="1" style="stop-color:#FF6060"/>
	</linearGradient>
	<path class="st3" d="M9.3,22c-2.9,0-5.4-2.4-5.3-5.4c0-2.9,2.4-5.3,5.3-5.3c2.9,0,5.3,2.4,5.3,5.4C14.6,19.6,12.2,22,9.3,22z
		 M8.7,12.5c-2.1,0.3-3.8,2.2-3.6,4.3c0.1,2.3,1.9,4,4.2,4.1c2.1,0,4-1.7,4.1-3.6c-0.1,0-0.3,0-0.4,0c-1.1,0-2.3,0-3.4,0
		c-0.7,0-0.8-0.2-0.8-0.8c0-0.5,0-1,0-1.5C8.7,14.1,8.7,13.3,8.7,12.5z M13.4,16.1c-0.1-1.7-2-3.6-3.5-3.5c0,1.2,0,2.3,0,3.5
		C11.1,16.1,12.2,16.1,13.4,16.1z"/>
	<linearGradient id="SVGID_5_" gradientUnits="userSpaceOnUse" x1="3.2305" y1="24.4385" x2="27.8344" y2="24.4385">
		<stop  offset="0.2593" style="stop-color:#B20D30"/>
		<stop  offset="1" style="stop-color:#FF6060"/>
	</linearGradient>
	<path class="st4" d="M15.5,25c-3.8,0-7.6,0-11.4,0c-0.6,0-0.9-0.2-0.9-0.6c0-0.4,0.3-0.6,0.9-0.6c7.6,0,15.2,0,22.7,0
		c0.2,0,0.3,0,0.5,0c0.3,0.1,0.4,0.3,0.4,0.6c0,0.3-0.2,0.5-0.5,0.5c-0.1,0-0.3,0-0.4,0C23.1,25,19.3,25,15.5,25z"/>
	<linearGradient id="SVGID_6_" gradientUnits="userSpaceOnUse" x1="3.2366" y1="27.4684" x2="27.8345" y2="27.4684">
		<stop  offset="0.2593" style="stop-color:#B20D30"/>
		<stop  offset="1" style="stop-color:#FF6060"/>
	</linearGradient>
	<path class="st5" d="M15.5,26.9c3.8,0,7.6,0,11.4,0c0.1,0,0.2,0,0.4,0c0.3,0,0.5,0.2,0.5,0.5c0,0.3-0.2,0.5-0.5,0.6
		c-0.1,0-0.3,0-0.4,0c-7.6,0-15.3,0-22.9,0c-0.1,0-0.3,0-0.4,0c-0.3-0.1-0.5-0.3-0.4-0.6c0-0.3,0.2-0.5,0.5-0.5c0.1,0,0.2,0,0.4,0
		C7.9,26.9,11.7,26.9,15.5,26.9z"/>
	<linearGradient id="SVGID_7_" gradientUnits="userSpaceOnUse" x1="16.3642" y1="18.3999" x2="27.8397" y2="18.3999">
		<stop  offset="0.2593" style="stop-color:#B20D30"/>
		<stop  offset="1" style="stop-color:#FF6060"/>
	</linearGradient>
	<path class="st6" d="M22.1,19c-1.6,0-3.3,0-4.9,0c-0.2,0-0.4,0-0.5-0.1c-0.1-0.1-0.3-0.3-0.2-0.5c0-0.2,0.2-0.4,0.4-0.5
		c0.1-0.1,0.3-0.1,0.5-0.1c3.3,0,6.5,0,9.8,0c0.1,0,0.2,0,0.2,0c0.4,0,0.6,0.2,0.6,0.6c0,0.3-0.2,0.6-0.6,0.6c-1.4,0-2.8,0-4.2,0
		C22.7,19,22.4,19,22.1,19z"/>
	<linearGradient id="SVGID_8_" gradientUnits="userSpaceOnUse" x1="16.3545" y1="12.3599" x2="27.8344" y2="12.3599">
		<stop  offset="0.2593" style="stop-color:#B20D30"/>
		<stop  offset="1" style="stop-color:#FF6060"/>
	</linearGradient>
	<path class="st7" d="M22.1,12.9c-1.6,0-3.2,0-4.8,0c-0.1,0-0.3,0-0.4,0c-0.3-0.1-0.5-0.3-0.4-0.5c0-0.2,0.2-0.4,0.4-0.5
		c0.1-0.1,0.3,0,0.4,0c3.3,0,6.5,0,9.8,0c0.1,0,0.3,0,0.4,0c0.3,0.1,0.4,0.3,0.4,0.6c0,0.3-0.2,0.5-0.5,0.5c-0.4,0-0.7,0-1.1,0
		C24.9,12.9,23.5,12.9,22.1,12.9z"/>
	<linearGradient id="SVGID_9_" gradientUnits="userSpaceOnUse" x1="16.3474" y1="15.3897" x2="27.8394" y2="15.3897">
		<stop  offset="0.2593" style="stop-color:#B20D30"/>
		<stop  offset="1" style="stop-color:#FF6060"/>
	</linearGradient>
	<path class="st8" d="M22.1,14.8c1.7,0,3.4,0,5.1,0c0.4,0,0.6,0.2,0.6,0.6c0,0.3-0.3,0.5-0.6,0.6c-0.1,0-0.2,0-0.3,0
		c-1.4,0-2.7,0-4.1,0c-1.9,0-3.8,0-5.7,0c-0.1,0-0.3,0-0.4,0c-0.3-0.1-0.5-0.3-0.5-0.6c0-0.3,0.2-0.5,0.5-0.5c0.1,0,0.2,0,0.4,0
		C18.8,14.8,20.5,14.8,22.1,14.8z"/>
	<linearGradient id="SVGID_10_" gradientUnits="userSpaceOnUse" x1="16.3385" y1="21.4282" x2="27.8083" y2="21.4282">
		<stop  offset="0.2593" style="stop-color:#B20D30"/>
		<stop  offset="1" style="stop-color:#FF6060"/>
	</linearGradient>
	<path class="st9" d="M22.1,20.9c1.7,0,3.4,0,5.1,0c0.2,0,0.5,0.1,0.6,0.3c0.1,0.1,0.1,0.4,0,0.5c-0.1,0.2-0.4,0.3-0.6,0.3
		c-1.8,0-3.6,0-5.4,0c-1.6,0-3.1,0-4.7,0c-0.3,0-0.6-0.1-0.7-0.4c-0.1-0.4,0.2-0.7,0.6-0.7C18.7,20.9,20.4,20.9,22.1,20.9z"/>
	<linearGradient id="SVGID_11_" gradientUnits="userSpaceOnUse" x1="5.0862" y1="16.6897" x2="13.4209" y2="16.6897">
		<stop  offset="0.2593" style="stop-color:#B20D30"/>
		<stop  offset="1" style="stop-color:#FF6060"/>
	</linearGradient>
	<path style="opacity:0.15;fill:url(#SVGID_11_);" d="M8.7,12.5c0,0.8,0,1.6,0,2.4c0,0.5,0,1,0,1.5c0,0.7,0.2,0.8,0.8,0.8
		c1.1,0,2.3,0,3.4,0c0.1,0,0.3,0,0.4,0c-0.1,2-2.1,3.6-4.1,3.6c-2.2,0-4-1.8-4.2-4.1C5,14.7,6.6,12.8,8.7,12.5z"/>
	<linearGradient id="SVGID_12_" gradientUnits="userSpaceOnUse" x1="9.8811" y1="14.3123" x2="13.4127" y2="14.3123">
		<stop  offset="0.2593" style="stop-color:#B20D30"/>
		<stop  offset="1" style="stop-color:#FF6060"/>
	</linearGradient>
	<path class="st11" d="M13.4,16.1c-1.2,0-2.3,0-3.5,0c0-1.2,0-2.3,0-3.5C11.4,12.5,13.3,14.4,13.4,16.1z"/>
</g>
</svg>
