<?xml version="1.0" encoding="utf-8"?>
<!-- Generator: Adobe Illustrator 25.0.1, SVG Export Plug-In . SVG Version: 6.00 Build 0)  -->
<svg version="1.1" id="Layer_1" xmlns="http://www.w3.org/2000/svg" xmlns:xlink="http://www.w3.org/1999/xlink" x="0px" y="0px"
	 viewBox="0 0 40 32" style="enable-background:new 0 0 40 32;" xml:space="preserve">
<style type="text/css">
	.st0{opacity:0.15;fill-rule:evenodd;clip-rule:evenodd;fill:url(#SVGID_1_);enable-background:new    ;}
	.st1{fill:url(#SVGID_2_);}
	.st2{fill:url(#SVGID_3_);}
	.st3{fill:url(#SVGID_4_);}
	.st4{fill:url(#SVGID_5_);}
	.st5{fill:url(#SVGID_6_);}
	.st6{fill:url(#SVGID_7_);}
	.st7{fill:url(#SVGID_8_);}
	.st8{fill:url(#SVGID_9_);}
	.st9{fill:url(#SVGID_10_);}
	.st10{fill:url(#SVGID_11_);}
	.st11{opacity:0.15;fill:url(#SVGID_12_);}
	.st12{fill:url(#SVGID_13_);}
	.st13{opacity:0.15;fill:url(#SVGID_14_);}
	.st14{opacity:0.15;fill:url(#SVGID_15_);}
	.st15{fill:url(#SVGID_16_);}
	.st16{fill:url(#SVGID_17_);}
	.st17{fill:url(#SVGID_18_);}
	.st18{fill:url(#SVGID_19_);}
	.st19{fill:url(#SVGID_20_);}
	.st20{fill:url(#SVGID_21_);}
	.st21{fill:url(#SVGID_22_);}
	.st22{fill:url(#SVGID_23_);}
	.st23{fill:url(#SVGID_24_);}
	.st24{opacity:0.15;fill:url(#SVGID_25_);}
	.st25{opacity:0.15;fill:url(#SVGID_26_);}
	.st26{opacity:0.15;fill:url(#SVGID_27_);}
	.st27{fill:url(#SVGID_28_);}
	.st28{fill:url(#SVGID_29_);}
	.st29{opacity:0.15;fill:url(#SVGID_30_);}
	.st30{opacity:0.15;fill:url(#SVGID_31_);}
	.st31{opacity:0.15;fill:url(#SVGID_32_);}
	.st32{opacity:0.15;fill:url(#SVGID_33_);}
	.st33{opacity:0.15;fill:url(#SVGID_34_);}
	.st34{opacity:0.15;fill:url(#SVGID_35_);}
	.st35{opacity:0.15;fill:url(#SVGID_36_);}
	.st36{opacity:0.15;fill:url(#SVGID_37_);}
	.st37{opacity:0.15;fill:url(#SVGID_38_);}
	.st38{fill:url(#SVGID_39_);}
	.st39{opacity:0.15;fill:url(#SVGID_40_);}
	.st40{opacity:0.15;fill:url(#SVGID_41_);}
	.st41{fill:url(#SVGID_42_);}
	.st42{fill:url(#SVGID_43_);}
	.st43{fill:url(#SVGID_44_);}
	.st44{fill:url(#SVGID_45_);}
	.st45{fill:url(#SVGID_46_);}
	.st46{fill:url(#SVGID_47_);}
	.st47{fill:url(#SVGID_48_);}
	.st48{opacity:0.15;fill:url(#SVGID_49_);}
	.st49{opacity:0.15;fill:url(#SVGID_50_);}
	.st50{fill:url(#SVGID_51_);}
	.st51{fill:url(#SVGID_52_);}
	.st52{fill:url(#SVGID_53_);}
	.st53{fill:url(#SVGID_54_);}
	.st54{opacity:0.15;fill:url(#SVGID_55_);}
	.st55{opacity:0.15;fill:url(#SVGID_56_);}
	.st56{opacity:0.15;fill:url(#SVGID_57_);}
	.st57{opacity:0.15;fill:url(#SVGID_58_);}
	.st58{opacity:0.15;fill:url(#SVGID_59_);}
	.st59{opacity:0.15;fill:url(#SVGID_60_);}
	.st60{opacity:0.15;fill:url(#SVGID_61_);}
	.st61{opacity:0.15;fill:url(#SVGID_62_);}
	.st62{opacity:0.15;fill:url(#SVGID_63_);}
	.st63{opacity:0.15;fill:url(#SVGID_64_);}
	.st64{opacity:0.15;fill:url(#SVGID_65_);}
	.st65{fill:url(#SVGID_66_);}
	.st66{fill:url(#SVGID_67_);}
	.st67{fill:url(#SVGID_68_);}
	.st68{fill:url(#SVGID_69_);}
	.st69{fill:url(#SVGID_70_);}
	.st70{fill:url(#SVGID_71_);}
	.st71{fill:url(#SVGID_72_);}
	.st72{fill:url(#SVGID_73_);}
	.st73{fill:url(#SVGID_74_);}
	.st74{fill:url(#SVGID_75_);}
	.st75{fill:url(#SVGID_76_);}
	.st76{fill:url(#SVGID_77_);}
	.st77{fill:url(#SVGID_78_);}
	.st78{fill:url(#SVGID_79_);}
	.st79{opacity:0.15;fill:url(#SVGID_80_);}
	.st80{opacity:0.15;fill:url(#SVGID_81_);}
	.st81{opacity:0.15;fill:url(#SVGID_82_);}
	.st82{opacity:0.15;fill:url(#SVGID_83_);}
	.st83{fill:url(#SVGID_84_);}
	.st84{fill:url(#SVGID_85_);}
	.st85{fill:url(#SVGID_86_);}
	.st86{fill:url(#SVGID_87_);}
	.st87{fill:url(#SVGID_88_);}
	.st88{fill:url(#SVGID_89_);}
	.st89{fill:url(#SVGID_90_);}
	.st90{fill:url(#SVGID_91_);}
	.st91{fill:url(#SVGID_92_);}
	.st92{fill:url(#SVGID_93_);}
	.st93{fill:url(#SVGID_94_);}
	.st94{opacity:0.15;fill:url(#SVGID_95_);}
	.st95{opacity:0.15;fill:url(#SVGID_96_);}
	.st96{fill:url(#SVGID_97_);}
	.st97{fill:url(#SVGID_98_);}
	.st98{opacity:0.15;fill:url(#SVGID_99_);}
	.st99{opacity:0.15;fill:url(#SVGID_100_);}
	.st100{opacity:0.15;fill:url(#SVGID_101_);}
	.st101{fill:url(#SVGID_102_);}
	.st102{fill:url(#SVGID_103_);}
	.st103{fill:url(#SVGID_104_);}
	.st104{opacity:0.15;fill:url(#SVGID_105_);}
	.st105{opacity:0.15;fill:url(#SVGID_106_);}
	.st106{opacity:0.15;fill:url(#SVGID_107_);}
	.st107{fill:url(#SVGID_108_);}
	.st108{fill:url(#SVGID_109_);}
	.st109{fill:url(#SVGID_110_);}
	.st110{fill:url(#SVGID_111_);}
	.st111{fill:url(#SVGID_112_);}
	.st112{fill:url(#SVGID_113_);}
	.st113{fill:url(#SVGID_114_);}
	.st114{fill:url(#SVGID_115_);}
	.st115{fill:url(#SVGID_116_);}
	.st116{fill:url(#SVGID_117_);}
	.st117{fill:url(#SVGID_118_);}
	.st118{fill:url(#SVGID_119_);}
	.st119{fill:url(#SVGID_120_);}
	.st120{fill:url(#SVGID_121_);}
	.st121{fill:#1F9BEF;}
	.st122{fill:url(#SVGID_122_);}
	.st123{fill:url(#SVGID_123_);}
	.st124{fill:#FFFFFF;}
	.st125{fill:url(#SVGID_124_);}
	.st126{fill:url(#SVGID_125_);}
	.st127{fill:url(#SVGID_126_);}
	.st128{opacity:0.15;fill:url(#SVGID_127_);enable-background:new    ;}
	.st129{fill:url(#SVGID_128_);}
	.st130{opacity:0.15;fill:url(#SVGID_129_);enable-background:new    ;}
	.st131{opacity:0.15;fill:url(#SVGID_130_);enable-background:new    ;}
	.st132{fill:url(#SVGID_131_);}
	.st133{fill:url(#SVGID_132_);}
	.st134{fill:url(#SVGID_133_);}
	.st135{fill:url(#SVGID_134_);}
	.st136{fill:url(#SVGID_135_);}
	.st137{fill:url(#SVGID_136_);}
	.st138{fill:url(#SVGID_137_);}
	.st139{fill:url(#SVGID_138_);}
	.st140{fill:url(#SVGID_139_);}
	.st141{opacity:0.15;fill:url(#SVGID_140_);enable-background:new    ;}
	.st142{opacity:0.15;fill:url(#SVGID_141_);enable-background:new    ;}
	.st143{opacity:0.15;fill:url(#SVGID_142_);enable-background:new    ;}
	.st144{fill:url(#SVGID_143_);}
	.st145{fill:url(#SVGID_144_);}
	.st146{opacity:0.15;fill:url(#SVGID_145_);enable-background:new    ;}
	.st147{opacity:0.15;fill:url(#SVGID_146_);enable-background:new    ;}
	.st148{opacity:0.15;fill:url(#SVGID_147_);enable-background:new    ;}
	.st149{opacity:0.15;fill:url(#SVGID_148_);enable-background:new    ;}
	.st150{opacity:0.15;fill:url(#SVGID_149_);enable-background:new    ;}
	.st151{opacity:0.15;fill:url(#SVGID_150_);enable-background:new    ;}
	.st152{opacity:0.15;fill:url(#SVGID_151_);enable-background:new    ;}
	.st153{opacity:0.15;fill:url(#SVGID_152_);enable-background:new    ;}
	.st154{opacity:0.15;fill:url(#SVGID_153_);enable-background:new    ;}
	.st155{fill:url(#SVGID_154_);}
	.st156{opacity:0.15;fill:url(#SVGID_155_);enable-background:new    ;}
	.st157{opacity:0.15;fill:url(#SVGID_156_);enable-background:new    ;}
	.st158{fill:url(#SVGID_157_);}
	.st159{fill:url(#SVGID_158_);}
	.st160{fill:url(#SVGID_159_);}
	.st161{fill:url(#SVGID_160_);}
	.st162{fill:url(#SVGID_161_);}
	.st163{fill:url(#SVGID_162_);}
	.st164{fill:url(#SVGID_163_);}
	.st165{opacity:0.15;fill:url(#SVGID_164_);enable-background:new    ;}
	.st166{opacity:0.15;fill:url(#SVGID_165_);enable-background:new    ;}
	.st167{fill:url(#SVGID_166_);}
	.st168{fill:url(#SVGID_167_);}
	.st169{fill:url(#SVGID_168_);}
	.st170{fill:url(#SVGID_169_);}
	.st171{opacity:0.15;fill:url(#SVGID_170_);enable-background:new    ;}
	.st172{opacity:0.15;fill:url(#SVGID_171_);enable-background:new    ;}
	.st173{opacity:0.15;fill:url(#SVGID_172_);enable-background:new    ;}
	.st174{opacity:0.15;fill:url(#SVGID_173_);enable-background:new    ;}
	.st175{opacity:0.15;fill:url(#SVGID_174_);enable-background:new    ;}
	.st176{opacity:0.15;fill:url(#SVGID_175_);enable-background:new    ;}
	.st177{opacity:0.15;fill:url(#SVGID_176_);enable-background:new    ;}
	.st178{opacity:0.15;fill:url(#SVGID_177_);enable-background:new    ;}
	.st179{opacity:0.15;fill:url(#SVGID_178_);enable-background:new    ;}
	.st180{opacity:0.15;fill:url(#SVGID_179_);enable-background:new    ;}
	.st181{opacity:0.15;fill:url(#SVGID_180_);enable-background:new    ;}
	.st182{fill:url(#SVGID_181_);}
	.st183{fill:url(#SVGID_182_);}
	.st184{fill:url(#SVGID_183_);}
	.st185{fill:url(#SVGID_184_);}
	.st186{fill:url(#SVGID_185_);}
	.st187{fill:url(#SVGID_186_);}
	.st188{fill:url(#SVGID_187_);}
	.st189{fill:url(#SVGID_188_);}
	.st190{fill:url(#SVGID_189_);}
	.st191{fill:url(#SVGID_190_);}
	.st192{fill:url(#SVGID_191_);}
	.st193{fill:url(#SVGID_192_);}
	.st194{fill:url(#SVGID_193_);}
	.st195{fill:url(#SVGID_194_);}
	.st196{opacity:0.15;fill:url(#SVGID_195_);enable-background:new    ;}
	.st197{opacity:0.15;fill:url(#SVGID_196_);enable-background:new    ;}
	.st198{opacity:0.15;fill:url(#SVGID_197_);enable-background:new    ;}
	.st199{opacity:0.15;fill:url(#SVGID_198_);enable-background:new    ;}
	.st200{fill:url(#SVGID_199_);}
	.st201{fill:url(#SVGID_200_);}
	.st202{fill:url(#SVGID_201_);}
	.st203{fill:url(#SVGID_202_);}
	.st204{fill:url(#SVGID_203_);}
	.st205{fill:url(#SVGID_204_);}
	.st206{fill:url(#SVGID_205_);}
	.st207{fill:url(#SVGID_206_);}
	.st208{fill:url(#SVGID_207_);}
	.st209{fill:url(#SVGID_208_);}
	.st210{fill:url(#SVGID_209_);}
	.st211{opacity:0.15;fill:url(#SVGID_210_);enable-background:new    ;}
	.st212{opacity:0.15;fill:url(#SVGID_211_);enable-background:new    ;}
	.st213{fill:url(#SVGID_212_);}
	.st214{fill:url(#SVGID_213_);}
	.st215{opacity:0.15;fill:url(#SVGID_214_);enable-background:new    ;}
	.st216{opacity:0.15;fill:url(#SVGID_215_);enable-background:new    ;}
	.st217{opacity:0.15;fill:url(#SVGID_216_);enable-background:new    ;}
	.st218{fill:url(#SVGID_217_);}
	.st219{fill:url(#SVGID_218_);}
	.st220{fill:url(#SVGID_219_);}
	.st221{opacity:0.15;fill:url(#SVGID_220_);enable-background:new    ;}
	.st222{opacity:0.15;fill:url(#SVGID_221_);enable-background:new    ;}
	.st223{opacity:0.15;fill:url(#SVGID_222_);enable-background:new    ;}
	.st224{fill:url(#SVGID_223_);}
	.st225{fill:url(#SVGID_224_);}
	.st226{fill:url(#SVGID_225_);}
	.st227{fill:url(#SVGID_226_);}
	.st228{fill:url(#SVGID_227_);}
	.st229{fill:url(#SVGID_228_);}
	.st230{fill:url(#SVGID_229_);}
	.st231{fill:url(#SVGID_230_);}
	.st232{fill:url(#SVGID_231_);}
	.st233{fill:url(#SVGID_232_);}
	.st234{fill:url(#SVGID_233_);}
	.st235{fill:url(#SVGID_234_);}
	.st236{fill:url(#SVGID_235_);}
	.st237{fill:url(#SVGID_236_);}
	.st238{fill:url(#SVGID_237_);}
	.st239{fill:url(#SVGID_238_);}
	.st240{fill:#141312;}
	.st241{fill:url(#SVGID_239_);}
	.st242{fill:url(#SVGID_240_);}
</style>
<g>
	<linearGradient id="SVGID_1_" gradientUnits="userSpaceOnUse" x1="4.031" y1="13.0676" x2="24.2574" y2="13.0676">
		<stop  offset="0.2593" style="stop-color:#B20D30"/>
		<stop  offset="1" style="stop-color:#FF6060"/>
	</linearGradient>
	<path style="fill:url(#SVGID_1_);" d="M4,24.9C4,17,4,9.2,4,1.3C4.2,0.6,4.7,0.2,5.3,0C11.2,0,17.1,0,23,0c0.8,0.3,1.3,0.8,1.3,1.7
		c0,6.6,0,13.2,0,19.8c0,0.4-0.1,0.7-0.4,1c-1.1,1.1-2.1,2.1-3.2,3.2c-0.3,0.3-0.6,0.4-1.1,0.4c-3.1,0-6.3,0-9.4,0c-1.5,0-3,0-4.5,0
		c-0.8,0-1.3-0.4-1.6-1.1C4.1,25,4.1,24.9,4,24.9z M23.2,9.6c-6,0-12.1,0-18.1,0c0,0.1,0,0.2,0,0.2c0,4.9,0,9.7,0,14.6
		c0,0.5,0.2,0.7,0.7,0.7c4.4,0,8.9,0,13.3,0c0.1,0,0.2,0,0.3,0c0-0.7,0-1.3,0-2c0-0.4,0.1-0.8,0.4-1.2c0.3-0.4,0.8-0.6,1.3-0.6
		c0.7,0,1.3,0,2,0C23.2,17.4,23.2,13.5,23.2,9.6z M23.2,8.5c0-0.1,0-0.2,0-0.3c0-2.1,0-4.3,0-6.4c0-0.6-0.2-0.7-0.7-0.7
		c-5.5,0-11.1,0-16.6,0c-0.5,0-0.7,0.2-0.7,0.7c0,2.1,0,4.3,0,6.4c0,0.1,0,0.2,0,0.3C11.1,8.5,17.2,8.5,23.2,8.5z M20.5,24.2
		c0.6-0.6,1.2-1.2,1.8-1.8c-0.4,0-0.8,0-1.3,0c-0.3,0-0.5,0.2-0.5,0.5C20.5,23.3,20.5,23.8,20.5,24.2z"/>
	<linearGradient id="SVGID_2_" gradientUnits="userSpaceOnUse" x1="25.3164" y1="24.5318" x2="35.969" y2="24.5318">
		<stop  offset="0.2593" style="stop-color:#B20D30"/>
		<stop  offset="1" style="stop-color:#FF6060"/>
	</linearGradient>
	<path class="st1" d="M26.6,32c-0.2-0.1-0.5-0.2-0.7-0.4c-0.4-0.3-0.6-0.8-0.6-1.3c0-3.9,0-7.7,0-11.6c0-1,0.7-1.7,1.7-1.7
		c2.4,0,4.8,0,7.3,0c1,0,1.7,0.7,1.7,1.7c0,3.8,0,7.5,0,11.3c0,1.1-0.3,1.5-1.3,2C32,32,29.3,32,26.6,32z M27.1,18.1
		c0.2,0.2,0.3,0.3,0.4,0.4c1.4,1.5,2.8,3,4.1,4.5c0.2,0.3,0.4,0.6,0.5,0.9c0.2,0.7,0,1.4-0.5,2c-1.4,1.5-2.8,3.1-4.2,4.6
		c-0.1,0.1-0.2,0.2-0.3,0.4c0.1,0,0.2,0,0.3,0c2.3,0,4.6,0,6.9,0c0.5,0,0.7-0.2,0.7-0.7c0-3.8,0-7.6,0-11.4c0-0.5-0.2-0.7-0.7-0.7
		c-1.1,0-2.2,0-3.3,0C29.7,18.1,28.4,18.1,27.1,18.1z M26.4,30C26.4,30,26.5,30,26.4,30c0.1,0,0.1-0.1,0.2-0.1
		c1.4-1.5,2.8-3.1,4.2-4.6c0.5-0.5,0.5-1,0-1.5c-1.4-1.5-2.8-3.1-4.2-4.6c-0.1-0.1-0.1-0.1-0.2-0.2C26.4,22.7,26.4,26.4,26.4,30z"/>
	<linearGradient id="SVGID_3_" gradientUnits="userSpaceOnUse" x1="4.031" y1="29.8682" x2="24.2625" y2="29.8682">
		<stop  offset="0.2593" style="stop-color:#B20D30"/>
		<stop  offset="1" style="stop-color:#FF6060"/>
	</linearGradient>
	<path class="st2" d="M4,29C4,29,4.1,29,4,29c0.3-0.9,0.8-1.3,1.7-1.3c5.1,0,10.1,0,15.2,0c0.5,0,1,0.1,1.5,0.4
		c0.4,0.3,0.9,0.5,1.3,0.8c0.7,0.5,0.8,1.4,0,1.9c-0.5,0.3-0.9,0.6-1.4,0.8c-0.3,0.2-0.6,0.3-0.9,0.4c-5.3,0-10.7,0-16,0
		c-0.7-0.2-1.1-0.6-1.3-1.3C4,30.1,4,29.6,4,29z M19.4,28.8c-3.5,0-7.1,0-10.6,0c0,0.7,0,1.4,0,2.1c3.5,0,7.1,0,10.6,0
		C19.4,30.2,19.4,29.5,19.4,28.8z M7.7,30.9c0-0.7,0-1.4,0-2.1c-0.7,0-1.4,0-2.1,0c-0.3,0-0.5,0.2-0.5,0.5c0,0.4,0,0.8,0,1.2
		c0,0.3,0.2,0.5,0.5,0.5C6.3,30.9,7,30.9,7.7,30.9z M23.2,29.9c-1.5-1-1.7-1.2-2.6-1c0,0.7,0,1.4,0,2.1C21.5,31,21.6,30.8,23.2,29.9
		z"/>
	<linearGradient id="SVGID_4_" gradientUnits="userSpaceOnUse" x1="25.3167" y1="7.468" x2="35.9689" y2="7.468">
		<stop  offset="0.2593" style="stop-color:#B20D30"/>
		<stop  offset="1" style="stop-color:#FF6060"/>
	</linearGradient>
	<path class="st3" d="M34.7,0c0.7,0.2,1.1,0.6,1.3,1.3c0,0.1,0,0.3,0,0.4c0,3.8,0,7.6,0,11.5c0,1.1-0.7,1.7-1.7,1.7
		c-2.4,0-4.8,0-7.2,0c-1,0-1.7-0.7-1.7-1.7c0-3.8,0-7.7,0-11.5c0-0.9,0.5-1.4,1.3-1.7C29.3,0,32,0,34.7,0z M26.4,7.4
		c0,1.9,0,3.8,0,5.7c0,0.6,0.2,0.7,0.7,0.7c2.3,0,4.7,0,7,0c0.6,0,0.7-0.2,0.7-0.8c0-3.8,0-7.5,0-11.3c0-0.6-0.2-0.7-0.7-0.7
		c-2.3,0-4.7,0-7,0c-0.6,0-0.8,0.2-0.8,0.8C26.4,3.7,26.4,5.6,26.4,7.4z"/>
	<linearGradient id="SVGID_5_" gradientUnits="userSpaceOnUse" x1="4.031" y1="0.6562" x2="5.341" y2="0.6562">
		<stop  offset="0.2593" style="stop-color:#B20D30"/>
		<stop  offset="1" style="stop-color:#FF6060"/>
	</linearGradient>
	<path style="opacity:0.15;fill:url(#SVGID_5_);" d="M5.3,0C4.7,0.2,4.2,0.6,4,1.3C4,0.9,4,0.4,4,0C4.5,0,4.9,0,5.3,0z"/>
	<linearGradient id="SVGID_6_" gradientUnits="userSpaceOnUse" x1="4.031" y1="31.3438" x2="5.341" y2="31.3438">
		<stop  offset="0.2593" style="stop-color:#B20D30"/>
		<stop  offset="1" style="stop-color:#FF6060"/>
	</linearGradient>
	<path style="opacity:0.15;fill:url(#SVGID_6_);" d="M4,30.7c0.2,0.7,0.6,1.1,1.3,1.3c-0.4,0-0.9,0-1.3,0C4,31.6,4,31.1,4,30.7z"/>
	<linearGradient id="SVGID_7_" gradientUnits="userSpaceOnUse" x1="5.0937" y1="17.3484" x2="23.1732" y2="17.3484">
		<stop  offset="0.2593" style="stop-color:#B20D30"/>
		<stop  offset="1" style="stop-color:#FF6060"/>
	</linearGradient>
	<path style="opacity:0.15;fill:url(#SVGID_7_);" d="M23.2,9.6c0,3.9,0,7.8,0,11.7c-0.7,0-1.3,0-2,0c-0.5,0-1,0.2-1.3,0.6
		c-0.3,0.3-0.4,0.7-0.4,1.2c0,0.7,0,1.3,0,2c-0.1,0-0.2,0-0.3,0c-4.4,0-8.9,0-13.3,0c-0.5,0-0.7-0.2-0.7-0.7c0-4.9,0-9.7,0-14.6
		c0-0.1,0-0.1,0-0.2C11.1,9.6,17.1,9.6,23.2,9.6z M14.1,12.3c0.6,0,1.2,0,1.9,0c1.3,0,2.6,0,3.9,0c0.4,0,0.6-0.2,0.6-0.5
		c0-0.3-0.2-0.5-0.6-0.5c-0.1,0-0.1,0-0.2,0c-3.7,0-7.5,0-11.2,0c-0.1,0-0.2,0-0.3,0c-0.3,0.1-0.5,0.4-0.4,0.7
		c0.1,0.3,0.3,0.4,0.6,0.4C10.3,12.3,12.2,12.3,14.1,12.3z M14.1,17.1c1.5,0,3,0,4.6,0c0.1,0,0.2,0,0.3,0c0.3,0,0.4-0.2,0.5-0.5
		c0-0.3-0.2-0.5-0.4-0.5c-0.1,0-0.2,0-0.3,0c-3.1,0-6.1,0-9.2,0c-0.1,0-0.2,0-0.3,0c-0.3,0-0.4,0.3-0.4,0.5c0,0.3,0.2,0.5,0.4,0.5
		c0.1,0,0.2,0,0.3,0C11.1,17.1,12.6,17.1,14.1,17.1z M14.1,19.2c0.7,0,1.5,0,2.2,0c0.9,0,1.7,0,2.6,0c0.4,0,0.6-0.2,0.6-0.5
		c0-0.3-0.2-0.5-0.6-0.6c0,0-0.1,0-0.1,0c-3.1,0-6.2,0-9.2,0c-0.1,0-0.2,0-0.3,0c-0.4,0.1-0.5,0.6-0.3,0.8c0.1,0.1,0.4,0.2,0.5,0.2
		C11,19.2,12.6,19.2,14.1,19.2z M14.2,13.9c-1.2,0-2.3,0-3.5,0c-0.5,0-0.9,0-1.4,0c-0.3,0-0.5,0.2-0.5,0.5c0,0.3,0.2,0.5,0.5,0.6
		c0.1,0,0.2,0,0.2,0c3.1,0,6.1,0,9.2,0c0.1,0,0.2,0,0.3,0c0.3,0,0.5-0.3,0.5-0.6c0-0.3-0.2-0.5-0.6-0.5
		C17.3,13.9,15.7,13.9,14.2,13.9z M14.1,21.3c1.5,0,3,0,4.6,0c0.1,0,0.2,0,0.3,0c0.2,0,0.4-0.2,0.4-0.4c0-0.3-0.1-0.5-0.3-0.6
		c-0.1,0-0.2-0.1-0.4-0.1c-3.1,0-6.2,0-9.3,0c-0.1,0-0.2,0-0.3,0c-0.3,0.1-0.4,0.3-0.4,0.6c0,0.3,0.2,0.4,0.4,0.5c0.1,0,0.2,0,0.3,0
		C11.1,21.3,12.6,21.3,14.1,21.3z"/>
	<linearGradient id="SVGID_8_" gradientUnits="userSpaceOnUse" x1="5.0936" y1="4.79" x2="23.189" y2="4.79">
		<stop  offset="0.2593" style="stop-color:#B20D30"/>
		<stop  offset="1" style="stop-color:#FF6060"/>
	</linearGradient>
	<path style="opacity:0.15;fill:url(#SVGID_8_);" d="M23.2,8.5c-6,0-12,0-18.1,0c0-0.1,0-0.2,0-0.3c0-2.1,0-4.3,0-6.4
		c0-0.6,0.2-0.7,0.7-0.7c5.5,0,11.1,0,16.6,0c0.6,0,0.7,0.2,0.7,0.7c0,2.1,0,4.3,0,6.4C23.2,8.3,23.2,8.4,23.2,8.5z M8.8,7.5
		c1.5,0,2.7-1.2,2.7-2.6c0-1.5-1.2-2.7-2.6-2.7c-1.5,0-2.7,1.2-2.7,2.6C6.1,6.2,7.3,7.4,8.8,7.5z M17.1,3.2c0.6,0,1.1,0,1.7,0
		c0.7,0,1.5,0,2.2,0c0.3,0,0.6-0.2,0.6-0.5c0-0.3-0.2-0.5-0.6-0.5c-0.1,0-0.1,0-0.2,0c-2.5,0-5,0-7.5,0c-0.1,0-0.2,0-0.3,0
		c-0.3,0.1-0.5,0.4-0.4,0.7c0.1,0.3,0.3,0.3,0.6,0.3C14.5,3.2,15.8,3.2,17.1,3.2z M15.2,6.4C15.2,6.4,15.2,6.4,15.2,6.4
		c-0.7,0-1.4,0-2.1,0c-0.3,0-0.5,0.2-0.6,0.5c0,0.3,0.2,0.5,0.5,0.5c1.4,0,2.8,0,4.3,0c0.3,0,0.5-0.2,0.5-0.4
		c0.1-0.3-0.2-0.6-0.6-0.6C16.6,6.4,15.9,6.4,15.2,6.4z M14.4,5.3c0.4,0,0.8,0,1.3,0c0.4,0,0.6-0.2,0.6-0.5c0-0.3-0.2-0.5-0.6-0.5
		c-0.8,0-1.7,0-2.5,0c-0.4,0-0.6,0.2-0.6,0.6c0,0.3,0.2,0.5,0.6,0.5C13.6,5.3,14,5.3,14.4,5.3z"/>
	<linearGradient id="SVGID_9_" gradientUnits="userSpaceOnUse" x1="20.5377" y1="23.2817" x2="22.2968" y2="23.2817">
		<stop  offset="0.2593" style="stop-color:#B20D30"/>
		<stop  offset="1" style="stop-color:#FF6060"/>
	</linearGradient>
	<path style="opacity:0.15;fill:url(#SVGID_9_);" d="M20.5,24.2c0-0.4,0-0.8,0-1.3c0-0.3,0.2-0.5,0.5-0.5c0.4,0,0.9,0,1.3,0
		C21.7,23,21.1,23.6,20.5,24.2z"/>
	<linearGradient id="SVGID_10_" gradientUnits="userSpaceOnUse" x1="27.0733" y1="24.5325" x2="34.9062" y2="24.5325">
		<stop  offset="0.2593" style="stop-color:#B20D30"/>
		<stop  offset="1" style="stop-color:#FF6060"/>
	</linearGradient>
	<path style="opacity:0.15;fill:url(#SVGID_10_);" d="M27.1,18.1c1.3,0,2.6,0,3.8,0c1.1,0,2.2,0,3.3,0c0.5,0,0.7,0.2,0.7,0.7
		c0,3.8,0,7.6,0,11.4c0,0.5-0.2,0.7-0.7,0.7c-2.3,0-4.6,0-6.9,0c-0.1,0-0.1,0-0.3,0c0.1-0.2,0.2-0.3,0.3-0.4
		c1.4-1.5,2.8-3.1,4.2-4.6c0.5-0.6,0.7-1.2,0.5-2c-0.1-0.3-0.3-0.6-0.5-0.9c-1.4-1.5-2.8-3-4.1-4.5C27.4,18.4,27.2,18.3,27.1,18.1z"
		/>
	<linearGradient id="SVGID_11_" gradientUnits="userSpaceOnUse" x1="26.3991" y1="24.5331" x2="31.1816" y2="24.5331">
		<stop  offset="0.2593" style="stop-color:#B20D30"/>
		<stop  offset="1" style="stop-color:#FF6060"/>
	</linearGradient>
	<path style="opacity:0.15;fill:url(#SVGID_11_);" d="M26.4,30c0-3.6,0-7.3,0-11c0.1,0.1,0.2,0.1,0.2,0.2c1.4,1.5,2.8,3.1,4.2,4.6
		c0.5,0.5,0.5,1,0,1.5c-1.4,1.5-2.8,3.1-4.2,4.6C26.5,29.9,26.5,30,26.4,30C26.5,30,26.4,30,26.4,30z"/>
	<linearGradient id="SVGID_12_" gradientUnits="userSpaceOnUse" x1="8.8509" y1="29.8726" x2="19.4466" y2="29.8726">
		<stop  offset="0.2593" style="stop-color:#B20D30"/>
		<stop  offset="1" style="stop-color:#FF6060"/>
	</linearGradient>
	<path class="st11" d="M19.4,28.8c0,0.7,0,1.4,0,2.1c-3.5,0-7.1,0-10.6,0c0-0.7,0-1.4,0-2.1C12.4,28.8,15.9,28.8,19.4,28.8z"/>
	<linearGradient id="SVGID_13_" gradientUnits="userSpaceOnUse" x1="5.0868" y1="29.8704" x2="7.7357" y2="29.8704">
		<stop  offset="0.2593" style="stop-color:#B20D30"/>
		<stop  offset="1" style="stop-color:#FF6060"/>
	</linearGradient>
	<path style="opacity:0.15;fill:url(#SVGID_13_);" d="M7.7,30.9c-0.7,0-1.4,0-2.1,0c-0.3,0-0.5-0.2-0.5-0.5c0-0.4,0-0.8,0-1.2
		c0-0.3,0.2-0.5,0.5-0.5c0.7,0,1.4,0,2.1,0C7.7,29.5,7.7,30.2,7.7,30.9z"/>
	<linearGradient id="SVGID_14_" gradientUnits="userSpaceOnUse" x1="20.5571" y1="29.8687" x2="23.154" y2="29.8687">
		<stop  offset="0.2593" style="stop-color:#B20D30"/>
		<stop  offset="1" style="stop-color:#FF6060"/>
	</linearGradient>
	<path class="st13" d="M23.2,29.9c-1.5,1-1.7,1.1-2.6,1c0-0.7,0-1.4,0-2.1C21.5,28.7,21.6,28.9,23.2,29.9z"/>
	<linearGradient id="SVGID_15_" gradientUnits="userSpaceOnUse" x1="26.383" y1="7.4675" x2="34.9061" y2="7.4675">
		<stop  offset="0.2593" style="stop-color:#B20D30"/>
		<stop  offset="1" style="stop-color:#FF6060"/>
	</linearGradient>
	<path class="st14" d="M26.4,7.4c0-1.9,0-3.7,0-5.6c0-0.6,0.2-0.8,0.8-0.8c2.3,0,4.7,0,7,0c0.6,0,0.7,0.2,0.7,0.7
		c0,3.8,0,7.5,0,11.3c0,0.6-0.2,0.8-0.7,0.8c-2.3,0-4.7,0-7,0c-0.6,0-0.7-0.2-0.7-0.7C26.4,11.2,26.4,9.3,26.4,7.4z M27.5,10.7
		c0,1.2,1,2.1,2.1,2.1c1.2,0,2.1-1,2.1-2.1c0-1.2-1-2.1-2.2-2.1C28.4,8.5,27.4,9.5,27.5,10.7z M28.5,4.8C28.5,4.8,28.5,4.8,28.5,4.8
		c0-0.7,0-1.4,0-2.1c0-0.4-0.2-0.6-0.5-0.6c-0.3,0-0.5,0.2-0.5,0.6c0,0.1,0,0.2,0,0.2c0,1.1,0,2.3,0,3.4c0,0.2,0,0.4,0,0.6
		c0,0.3,0.2,0.4,0.5,0.5c0.3,0,0.5-0.2,0.5-0.5c0-0.1,0-0.2,0-0.3C28.5,6,28.5,5.4,28.5,4.8z M31.7,5.6c0,0.4,0,0.9,0,1.3
		c0,0.3,0.2,0.5,0.5,0.6c0.3,0,0.5-0.2,0.6-0.5c0-0.9,0-1.7,0-2.6c0-0.3-0.2-0.6-0.5-0.6c-0.3,0-0.5,0.2-0.5,0.6
		C31.7,4.7,31.7,5.1,31.7,5.6z M29.6,6.1C29.6,6.1,29.6,6.1,29.6,6.1c0,0.2,0,0.5,0,0.7c0,0,0,0,0,0.1c0,0.3,0.2,0.5,0.5,0.5
		c0.3,0,0.5-0.2,0.5-0.5c0-0.6,0-1.1,0-1.7c0-0.3-0.3-0.5-0.6-0.5c-0.3,0-0.5,0.2-0.5,0.5C29.6,5.6,29.6,5.9,29.6,6.1z"/>
	<linearGradient id="SVGID_16_" gradientUnits="userSpaceOnUse" x1="7.7593" y1="11.729" x2="20.5253" y2="11.729">
		<stop  offset="0.2593" style="stop-color:#B20D30"/>
		<stop  offset="1" style="stop-color:#FF6060"/>
	</linearGradient>
	<path class="st15" d="M14.1,12.3c-1.9,0-3.8,0-5.7,0c-0.3,0-0.5-0.1-0.6-0.4c-0.1-0.3,0.1-0.6,0.4-0.7c0.1,0,0.2,0,0.3,0
		c3.7,0,7.5,0,11.2,0c0.1,0,0.1,0,0.2,0c0.3,0,0.6,0.2,0.6,0.5c0,0.3-0.2,0.5-0.6,0.5c-1.3,0-2.6,0-3.9,0
		C15.4,12.3,14.8,12.3,14.1,12.3z"/>
	<linearGradient id="SVGID_17_" gradientUnits="userSpaceOnUse" x1="8.8291" y1="16.5327" x2="19.4587" y2="16.5327">
		<stop  offset="0.2593" style="stop-color:#B20D30"/>
		<stop  offset="1" style="stop-color:#FF6060"/>
	</linearGradient>
	<path class="st16" d="M14.1,17.1c-1.5,0-3.1,0-4.6,0c-0.1,0-0.2,0-0.3,0c-0.3,0-0.4-0.3-0.4-0.5c0-0.3,0.2-0.5,0.4-0.5
		c0.1,0,0.2,0,0.3,0c3.1,0,6.1,0,9.2,0c0.1,0,0.2,0,0.3,0c0.3,0,0.4,0.3,0.4,0.5c0,0.3-0.2,0.5-0.5,0.5c-0.1,0-0.2,0-0.3,0
		C17.2,17.1,15.7,17.1,14.1,17.1z"/>
	<linearGradient id="SVGID_18_" gradientUnits="userSpaceOnUse" x1="8.8162" y1="18.6631" x2="19.458" y2="18.6631">
		<stop  offset="0.2593" style="stop-color:#B20D30"/>
		<stop  offset="1" style="stop-color:#FF6060"/>
	</linearGradient>
	<path class="st17" d="M14.1,19.2c-1.5,0-3.1,0-4.6,0c-0.2,0-0.4-0.1-0.5-0.2c-0.3-0.3-0.1-0.7,0.3-0.8c0.1,0,0.2,0,0.3,0
		c3.1,0,6.2,0,9.2,0c0,0,0.1,0,0.1,0c0.4,0,0.6,0.2,0.6,0.6c0,0.3-0.2,0.5-0.6,0.5c-0.9,0-1.7,0-2.6,0
		C15.6,19.2,14.9,19.2,14.1,19.2z"/>
	<linearGradient id="SVGID_19_" gradientUnits="userSpaceOnUse" x1="8.8292" y1="14.4021" x2="19.4574" y2="14.4021">
		<stop  offset="0.2593" style="stop-color:#B20D30"/>
		<stop  offset="1" style="stop-color:#FF6060"/>
	</linearGradient>
	<path class="st18" d="M14.2,13.9c1.6,0,3.1,0,4.7,0c0.4,0,0.6,0.2,0.6,0.5c0,0.3-0.1,0.6-0.5,0.6c-0.1,0-0.2,0-0.3,0
		c-3.1,0-6.1,0-9.2,0c-0.1,0-0.2,0-0.2,0c-0.3,0-0.5-0.3-0.5-0.6c0-0.3,0.2-0.5,0.5-0.5c0.5,0,0.9,0,1.4,0
		C11.9,13.9,13,13.9,14.2,13.9z"/>
	<linearGradient id="SVGID_20_" gradientUnits="userSpaceOnUse" x1="8.83" y1="20.795" x2="19.4572" y2="20.795">
		<stop  offset="0.2593" style="stop-color:#B20D30"/>
		<stop  offset="1" style="stop-color:#FF6060"/>
	</linearGradient>
	<path class="st19" d="M14.1,21.3c-1.5,0-3,0-4.5,0c-0.1,0-0.2,0-0.3,0c-0.3,0-0.4-0.2-0.4-0.5c0-0.3,0.1-0.5,0.4-0.6
		c0.1,0,0.2,0,0.3,0c3.1,0,6.2,0,9.3,0c0.1,0,0.3,0,0.4,0.1c0.2,0.1,0.3,0.3,0.3,0.6c0,0.2-0.2,0.4-0.4,0.4c-0.1,0-0.2,0-0.3,0
		C17.2,21.3,15.7,21.3,14.1,21.3z"/>
	<linearGradient id="SVGID_21_" gradientUnits="userSpaceOnUse" x1="6.158" y1="4.7959" x2="11.4772" y2="4.7959">
		<stop  offset="0.2593" style="stop-color:#B20D30"/>
		<stop  offset="1" style="stop-color:#FF6060"/>
	</linearGradient>
	<path class="st20" d="M8.8,7.5c-1.5,0-2.7-1.2-2.6-2.7c0-1.5,1.2-2.6,2.7-2.6c1.5,0,2.6,1.2,2.6,2.7C11.5,6.3,10.3,7.5,8.8,7.5z
		 M10.4,4.8c0-0.9-0.7-1.6-1.6-1.6C8,3.2,7.2,3.9,7.2,4.8c0,0.9,0.7,1.6,1.6,1.6C9.7,6.4,10.4,5.7,10.4,4.8z"/>
	<linearGradient id="SVGID_22_" gradientUnits="userSpaceOnUse" x1="12.5499" y1="2.6631" x2="21.5937" y2="2.6631">
		<stop  offset="0.2593" style="stop-color:#B20D30"/>
		<stop  offset="1" style="stop-color:#FF6060"/>
	</linearGradient>
	<path class="st21" d="M17.1,3.2c-1.3,0-2.6,0-3.9,0c-0.3,0-0.5-0.1-0.6-0.3c-0.1-0.3,0.1-0.6,0.4-0.7c0.1,0,0.2,0,0.3,0
		c2.5,0,5,0,7.5,0c0.1,0,0.1,0,0.2,0c0.3,0,0.6,0.2,0.6,0.5c0,0.3-0.2,0.5-0.6,0.5c-0.7,0-1.5,0-2.2,0C18.2,3.2,17.6,3.2,17.1,3.2z"
		/>
	<linearGradient id="SVGID_23_" gradientUnits="userSpaceOnUse" x1="12.5567" y1="6.9284" x2="17.8725" y2="6.9284">
		<stop  offset="0.2593" style="stop-color:#B20D30"/>
		<stop  offset="1" style="stop-color:#FF6060"/>
	</linearGradient>
	<path class="st22" d="M15.2,6.4c0.7,0,1.3,0,2,0c0.4,0,0.7,0.3,0.6,0.6c-0.1,0.3-0.2,0.4-0.5,0.4c-1.4,0-2.8,0-4.3,0
		c-0.3,0-0.5-0.2-0.5-0.5c0-0.3,0.2-0.5,0.6-0.5C13.8,6.4,14.5,6.4,15.2,6.4C15.2,6.4,15.2,6.4,15.2,6.4z"/>
	<linearGradient id="SVGID_24_" gradientUnits="userSpaceOnUse" x1="12.557" y1="4.7939" x2="16.2645" y2="4.7939">
		<stop  offset="0.2593" style="stop-color:#B20D30"/>
		<stop  offset="1" style="stop-color:#FF6060"/>
	</linearGradient>
	<path class="st23" d="M14.4,5.3c-0.4,0-0.8,0-1.3,0c-0.4,0-0.6-0.2-0.6-0.5c0-0.3,0.2-0.5,0.6-0.6c0.8,0,1.7,0,2.5,0
		c0.4,0,0.6,0.2,0.6,0.5c0,0.3-0.2,0.5-0.6,0.5C15.3,5.3,14.8,5.3,14.4,5.3z"/>
	<linearGradient id="SVGID_25_" gradientUnits="userSpaceOnUse" x1="27.4529" y1="10.6709" x2="31.7137" y2="10.6709">
		<stop  offset="0.2593" style="stop-color:#B20D30"/>
		<stop  offset="1" style="stop-color:#FF6060"/>
	</linearGradient>
	<path style="fill:url(#SVGID_25_);" d="M27.5,10.7c0-1.2,0.9-2.1,2.1-2.1c1.2,0,2.2,0.9,2.2,2.1c0,1.2-1,2.1-2.1,2.1
		C28.4,12.8,27.5,11.9,27.5,10.7z M28.5,10.7c0,0.6,0.5,1.1,1.1,1.1c0.6,0,1.1-0.5,1.1-1.1c0-0.6-0.5-1-1-1.1
		C29,9.6,28.5,10.1,28.5,10.7z"/>
	<linearGradient id="SVGID_26_" gradientUnits="userSpaceOnUse" x1="27.4493" y1="4.7947" x2="28.5194" y2="4.7947">
		<stop  offset="0.2593" style="stop-color:#B20D30"/>
		<stop  offset="1" style="stop-color:#FF6060"/>
	</linearGradient>
	<path style="fill:url(#SVGID_26_);" d="M28.5,4.8c0,0.6,0,1.3,0,1.9c0,0.1,0,0.2,0,0.3c0,0.3-0.3,0.5-0.5,0.5
		c-0.3,0-0.5-0.2-0.5-0.5c0-0.2,0-0.4,0-0.6c0-1.1,0-2.3,0-3.4c0-0.1,0-0.2,0-0.2c0-0.4,0.2-0.6,0.5-0.6c0.3,0,0.5,0.2,0.5,0.6
		C28.5,3.4,28.5,4.1,28.5,4.8C28.5,4.8,28.5,4.8,28.5,4.8z"/>
	<linearGradient id="SVGID_27_" gradientUnits="userSpaceOnUse" x1="31.7143" y1="5.5998" x2="32.7827" y2="5.5998">
		<stop  offset="0.2593" style="stop-color:#B20D30"/>
		<stop  offset="1" style="stop-color:#FF6060"/>
	</linearGradient>
	<path style="fill:url(#SVGID_27_);" d="M31.7,5.6c0-0.4,0-0.8,0-1.2c0-0.4,0.2-0.6,0.5-0.6c0.3,0,0.5,0.2,0.5,0.6
		c0,0.9,0,1.7,0,2.6c0,0.3-0.2,0.6-0.6,0.5c-0.3,0-0.5-0.2-0.5-0.6C31.7,6.5,31.7,6,31.7,5.6z"/>
	<linearGradient id="SVGID_28_" gradientUnits="userSpaceOnUse" x1="29.5846" y1="6.1323" x2="30.6545" y2="6.1323">
		<stop  offset="0.2593" style="stop-color:#B20D30"/>
		<stop  offset="1" style="stop-color:#FF6060"/>
	</linearGradient>
	<path class="st27" d="M29.6,6.1c0-0.3,0-0.5,0-0.8c0-0.3,0.2-0.5,0.5-0.5c0.3,0,0.5,0.2,0.6,0.5c0,0.6,0,1.1,0,1.7
		c0,0.3-0.3,0.5-0.5,0.5c-0.3,0-0.5-0.2-0.5-0.5c0,0,0,0,0-0.1C29.6,6.6,29.6,6.4,29.6,6.1C29.6,6.1,29.6,6.1,29.6,6.1z"/>
</g>
</svg>
