<?xml version="1.0" encoding="utf-8"?>
<!-- Generator: Adobe Illustrator 25.0.1, SVG Export Plug-In . SVG Version: 6.00 Build 0)  -->
<svg version="1.1" id="Layer_1" xmlns="http://www.w3.org/2000/svg" xmlns:xlink="http://www.w3.org/1999/xlink" x="0px" y="0px"
	 viewBox="0 0 40 32" style="enable-background:new 0 0 40 32;" xml:space="preserve">
<style type="text/css">
	.st0{opacity:0.15;fill-rule:evenodd;clip-rule:evenodd;fill:url(#SVGID_1_);enable-background:new    ;}
	.st1{fill:url(#SVGID_2_);}
	.st2{fill:url(#SVGID_3_);}
	.st3{fill:url(#SVGID_4_);}
	.st4{fill:url(#SVGID_5_);}
	.st5{fill:url(#SVGID_6_);}
	.st6{fill:url(#SVGID_7_);}
	.st7{fill:url(#SVGID_8_);}
	.st8{fill:url(#SVGID_9_);}
	.st9{fill:url(#SVGID_10_);}
	.st10{fill:url(#SVGID_11_);}
	.st11{opacity:0.15;fill:url(#SVGID_12_);enable-background:new    ;}
	.st12{fill:url(#SVGID_13_);}
	.st13{opacity:0.15;fill:url(#SVGID_14_);enable-background:new    ;}
	.st14{opacity:0.15;fill:url(#SVGID_15_);enable-background:new    ;}
	.st15{fill:url(#SVGID_16_);}
	.st16{fill:url(#SVGID_17_);}
	.st17{fill:url(#SVGID_18_);}
	.st18{fill:url(#SVGID_19_);}
	.st19{fill:url(#SVGID_20_);}
	.st20{fill:url(#SVGID_21_);}
	.st21{fill:url(#SVGID_22_);}
	.st22{fill:url(#SVGID_23_);}
	.st23{fill:url(#SVGID_24_);}
	.st24{opacity:0.15;fill:url(#SVGID_25_);enable-background:new    ;}
	.st25{opacity:0.15;fill:url(#SVGID_26_);enable-background:new    ;}
	.st26{opacity:0.15;fill:url(#SVGID_27_);enable-background:new    ;}
	.st27{fill:url(#SVGID_28_);}
	.st28{fill:url(#SVGID_29_);}
	.st29{opacity:0.15;fill:url(#SVGID_30_);enable-background:new    ;}
	.st30{opacity:0.15;fill:url(#SVGID_31_);enable-background:new    ;}
	.st31{opacity:0.15;fill:url(#SVGID_32_);enable-background:new    ;}
	.st32{opacity:0.15;fill:url(#SVGID_33_);enable-background:new    ;}
	.st33{opacity:0.15;fill:url(#SVGID_34_);enable-background:new    ;}
	.st34{opacity:0.15;fill:url(#SVGID_35_);enable-background:new    ;}
	.st35{opacity:0.15;fill:url(#SVGID_36_);enable-background:new    ;}
	.st36{opacity:0.15;fill:url(#SVGID_37_);enable-background:new    ;}
	.st37{opacity:0.15;fill:url(#SVGID_38_);enable-background:new    ;}
	.st38{fill:url(#SVGID_39_);}
	.st39{opacity:0.15;fill:url(#SVGID_40_);enable-background:new    ;}
	.st40{opacity:0.15;fill:url(#SVGID_41_);enable-background:new    ;}
	.st41{fill:url(#SVGID_42_);}
	.st42{fill:url(#SVGID_43_);}
	.st43{fill:url(#SVGID_44_);}
	.st44{fill:url(#SVGID_45_);}
	.st45{fill:url(#SVGID_46_);}
	.st46{fill:url(#SVGID_47_);}
	.st47{fill:url(#SVGID_48_);}
	.st48{opacity:0.15;fill:url(#SVGID_49_);enable-background:new    ;}
	.st49{opacity:0.15;fill:url(#SVGID_50_);enable-background:new    ;}
	.st50{fill:url(#SVGID_51_);}
	.st51{fill:url(#SVGID_52_);}
	.st52{fill:url(#SVGID_53_);}
	.st53{fill:url(#SVGID_54_);}
	.st54{opacity:0.15;fill:url(#SVGID_55_);enable-background:new    ;}
	.st55{opacity:0.15;fill:url(#SVGID_56_);enable-background:new    ;}
	.st56{opacity:0.15;fill:url(#SVGID_57_);enable-background:new    ;}
	.st57{opacity:0.15;fill:url(#SVGID_58_);enable-background:new    ;}
	.st58{opacity:0.15;fill:url(#SVGID_59_);enable-background:new    ;}
	.st59{opacity:0.15;fill:url(#SVGID_60_);enable-background:new    ;}
	.st60{opacity:0.15;fill:url(#SVGID_61_);enable-background:new    ;}
	.st61{opacity:0.15;fill:url(#SVGID_62_);enable-background:new    ;}
	.st62{opacity:0.15;fill:url(#SVGID_63_);enable-background:new    ;}
	.st63{opacity:0.15;fill:url(#SVGID_64_);enable-background:new    ;}
	.st64{opacity:0.15;fill:url(#SVGID_65_);enable-background:new    ;}
	.st65{fill:url(#SVGID_66_);}
	.st66{fill:url(#SVGID_67_);}
	.st67{fill:url(#SVGID_68_);}
	.st68{fill:url(#SVGID_69_);}
	.st69{fill:url(#SVGID_70_);}
	.st70{fill:url(#SVGID_71_);}
	.st71{fill:url(#SVGID_72_);}
	.st72{fill:url(#SVGID_73_);}
	.st73{fill:url(#SVGID_74_);}
	.st74{fill:url(#SVGID_75_);}
	.st75{fill:url(#SVGID_76_);}
	.st76{fill:url(#SVGID_77_);}
	.st77{fill:url(#SVGID_78_);}
	.st78{fill:url(#SVGID_79_);}
	.st79{opacity:0.15;fill:url(#SVGID_80_);enable-background:new    ;}
	.st80{opacity:0.15;fill:url(#SVGID_81_);enable-background:new    ;}
	.st81{opacity:0.15;fill:url(#SVGID_82_);enable-background:new    ;}
	.st82{opacity:0.15;fill:url(#SVGID_83_);enable-background:new    ;}
	.st83{fill:url(#SVGID_84_);}
	.st84{fill:url(#SVGID_85_);}
	.st85{fill:url(#SVGID_86_);}
	.st86{fill:url(#SVGID_87_);}
	.st87{fill:url(#SVGID_88_);}
	.st88{fill:url(#SVGID_89_);}
	.st89{fill:url(#SVGID_90_);}
	.st90{fill:url(#SVGID_91_);}
	.st91{fill:url(#SVGID_92_);}
	.st92{fill:url(#SVGID_93_);}
	.st93{fill:url(#SVGID_94_);}
	.st94{opacity:0.15;fill:url(#SVGID_95_);enable-background:new    ;}
	.st95{opacity:0.15;fill:url(#SVGID_96_);enable-background:new    ;}
	.st96{fill:url(#SVGID_97_);}
	.st97{fill:url(#SVGID_98_);}
	.st98{opacity:0.15;fill:url(#SVGID_99_);enable-background:new    ;}
	.st99{opacity:0.15;fill:url(#SVGID_100_);enable-background:new    ;}
	.st100{opacity:0.15;fill:url(#SVGID_101_);enable-background:new    ;}
	.st101{opacity:0.15;fill:url(#SVGID_102_);enable-background:new    ;}
	.st102{opacity:0.15;fill:url(#SVGID_103_);enable-background:new    ;}
	.st103{fill:url(#SVGID_104_);}
	.st104{fill:url(#SVGID_105_);}
	.st105{fill:url(#SVGID_106_);}
	.st106{opacity:0.15;fill:url(#SVGID_107_);enable-background:new    ;}
	.st107{opacity:0.15;fill:url(#SVGID_108_);enable-background:new    ;}
	.st108{opacity:0.15;fill:url(#SVGID_109_);enable-background:new    ;}
	.st109{fill:url(#SVGID_110_);}
	.st110{fill:url(#SVGID_111_);}
	.st111{fill:url(#SVGID_112_);}
	.st112{fill:url(#SVGID_113_);}
	.st113{fill:url(#SVGID_114_);}
	.st114{fill:url(#SVGID_115_);}
	.st115{fill:url(#SVGID_116_);}
	.st116{fill:url(#SVGID_117_);}
	.st117{fill:url(#SVGID_118_);}
	.st118{fill:url(#SVGID_119_);}
	.st119{fill:url(#SVGID_120_);}
	.st120{fill:url(#SVGID_121_);}
	.st121{fill:url(#SVGID_122_);}
	.st122{fill:url(#SVGID_123_);}
	.st123{fill:#1F9BEF;}
</style>
<linearGradient id="SVGID_1_" gradientUnits="userSpaceOnUse" x1="8.8629" y1="16" x2="31.1371" y2="16">
	<stop  offset="0.2593" style="stop-color:#FFDB6E"/>
	<stop  offset="1" style="stop-color:#FFBC5E"/>
</linearGradient>
<path style="fill:url(#SVGID_1_);" d="M11.2,20.9c-3.1-2.6-3.1-7.1,0.1-9.8C11.1,11,11.1,11,11,10.9c-1.9-1.8-2.6-4-1.8-6.6
	c0.8-2.5,2.6-4,5.3-4.3c0.2,0,0.5,0,0.7,0c3.2,0,6.4,0,9.6,0c3,0,5.5,2,6.2,4.9c0.5,2.3-0.2,4.3-1.9,5.9c-0.1,0.1-0.2,0.2-0.3,0.3
	c1.5,1.3,2.3,2.8,2.3,4.8c0,1.4-0.4,2.8-1.3,3.9c-1.7,2.2-5.2,3.4-8.4,1.4c0,0.1,0,0.3,0,0.4c0,1.4,0,2.8,0,4.1c0,3-2.1,5.5-5,6.1
	c-3.6,0.8-7.2-1.9-7.5-5.6C8.7,24.2,9.5,22.4,11,21C11.1,21,11.1,21,11.2,20.9C11.1,20.9,11.1,20.9,11.2,20.9z M18.6,2.8
	c-0.1,0-0.2,0-0.3,0c-1,0-2.1,0-3.1,0c-0.3,0-0.5,0-0.8,0.1c-1.7,0.4-2.9,2-2.7,3.7c0.2,1.8,1.7,3.1,3.5,3.1c1.1,0,2.1,0,3.2,0
	c0.1,0,0.2,0,0.3,0C18.6,7.4,18.6,5.1,18.6,2.8z M21.4,9.7c1.3,0,2.5,0,3.7,0c1.7-0.1,3.2-1.6,3.2-3.3c0-1.8-1.3-3.4-3-3.5
	c-1.3-0.1-2.6,0-3.8,0c0,0,0,0-0.1,0C21.4,5.1,21.4,7.4,21.4,9.7z M18.6,19.5c0-2.3,0-4.6,0-6.9c-1.2,0-2.4,0-3.6,0
	c-1.7,0-3.2,1.4-3.3,3.2c-0.2,1.7,1,3.4,2.7,3.7c0.2,0,0.4,0.1,0.6,0.1C16.2,19.5,17.4,19.5,18.6,19.5z M18.6,22.3
	c-1.2,0-2.3,0-3.5,0c-1.8,0-3.3,1.4-3.4,3.2c-0.1,1.8,1.1,3.4,2.9,3.7c1.8,0.3,3.5-0.8,4-2.6c0-0.2,0.1-0.3,0.1-0.5
	C18.6,24.8,18.6,23.6,18.6,22.3z M24.9,19.5c1.9,0,3.5-1.6,3.5-3.5c0-1.9-1.6-3.5-3.5-3.5c-1.9,0-3.5,1.6-3.5,3.5
	C21.4,17.9,23,19.5,24.9,19.5z"/>
</svg>
