<?xml version="1.0" encoding="utf-8"?>
<!-- Generator: Adobe Illustrator 25.0.1, SVG Export Plug-In . SVG Version: 6.00 Build 0)  -->
<svg version="1.1" id="Layer_1" xmlns="http://www.w3.org/2000/svg" xmlns:xlink="http://www.w3.org/1999/xlink" x="0px" y="0px"
	 viewBox="0 0 40 32" style="enable-background:new 0 0 40 32;" xml:space="preserve">
<style type="text/css">
	.st0{opacity:0.15;fill-rule:evenodd;clip-rule:evenodd;fill:url(#SVGID_1_);enable-background:new    ;}
	.st1{fill:url(#SVGID_2_);}
	.st2{fill:url(#SVGID_3_);}
	.st3{fill:url(#SVGID_4_);}
	.st4{fill:url(#SVGID_5_);}
	.st5{fill:url(#SVGID_6_);}
	.st6{fill:url(#SVGID_7_);}
	.st7{fill:url(#SVGID_8_);}
	.st8{fill:url(#SVGID_9_);}
	.st9{fill:url(#SVGID_10_);}
	.st10{fill:url(#SVGID_11_);}
	.st11{opacity:0.15;fill:url(#SVGID_12_);enable-background:new    ;}
	.st12{fill:url(#SVGID_13_);}
	.st13{opacity:0.15;fill:url(#SVGID_14_);enable-background:new    ;}
	.st14{opacity:0.15;fill:url(#SVGID_15_);enable-background:new    ;}
	.st15{fill:url(#SVGID_16_);}
	.st16{fill:url(#SVGID_17_);}
	.st17{fill:url(#SVGID_18_);}
	.st18{fill:url(#SVGID_19_);}
	.st19{fill:url(#SVGID_20_);}
	.st20{fill:url(#SVGID_21_);}
	.st21{fill:url(#SVGID_22_);}
	.st22{fill:url(#SVGID_23_);}
	.st23{fill:url(#SVGID_24_);}
	.st24{opacity:0.15;fill:url(#SVGID_25_);enable-background:new    ;}
	.st25{opacity:0.15;fill:url(#SVGID_26_);enable-background:new    ;}
	.st26{opacity:0.15;fill:url(#SVGID_27_);enable-background:new    ;}
	.st27{fill:url(#SVGID_28_);}
	.st28{fill:url(#SVGID_29_);}
	.st29{opacity:0.15;fill:url(#SVGID_30_);enable-background:new    ;}
	.st30{opacity:0.15;fill:url(#SVGID_31_);enable-background:new    ;}
	.st31{opacity:0.15;fill:url(#SVGID_32_);enable-background:new    ;}
	.st32{opacity:0.15;fill:url(#SVGID_33_);enable-background:new    ;}
	.st33{opacity:0.15;fill:url(#SVGID_34_);enable-background:new    ;}
	.st34{opacity:0.15;fill:url(#SVGID_35_);enable-background:new    ;}
	.st35{opacity:0.15;fill:url(#SVGID_36_);enable-background:new    ;}
	.st36{opacity:0.15;fill:url(#SVGID_37_);enable-background:new    ;}
	.st37{opacity:0.15;fill:url(#SVGID_38_);enable-background:new    ;}
	.st38{fill:url(#SVGID_39_);}
	.st39{opacity:0.15;fill:url(#SVGID_40_);enable-background:new    ;}
	.st40{opacity:0.15;fill:url(#SVGID_41_);enable-background:new    ;}
	.st41{fill:url(#SVGID_42_);}
	.st42{fill:url(#SVGID_43_);}
	.st43{fill:url(#SVGID_44_);}
	.st44{fill:url(#SVGID_45_);}
	.st45{fill:url(#SVGID_46_);}
	.st46{fill:url(#SVGID_47_);}
	.st47{fill:url(#SVGID_48_);}
	.st48{opacity:0.15;fill:url(#SVGID_49_);enable-background:new    ;}
	.st49{opacity:0.15;fill:url(#SVGID_50_);enable-background:new    ;}
	.st50{fill:url(#SVGID_51_);}
	.st51{fill:url(#SVGID_52_);}
	.st52{fill:url(#SVGID_53_);}
	.st53{fill:url(#SVGID_54_);}
	.st54{opacity:0.15;fill:url(#SVGID_55_);enable-background:new    ;}
	.st55{opacity:0.15;fill:url(#SVGID_56_);enable-background:new    ;}
	.st56{opacity:0.15;fill:url(#SVGID_57_);enable-background:new    ;}
	.st57{opacity:0.15;fill:url(#SVGID_58_);enable-background:new    ;}
	.st58{opacity:0.15;fill:url(#SVGID_59_);enable-background:new    ;}
	.st59{opacity:0.15;fill:url(#SVGID_60_);enable-background:new    ;}
	.st60{opacity:0.15;fill:url(#SVGID_61_);enable-background:new    ;}
	.st61{opacity:0.15;fill:url(#SVGID_62_);enable-background:new    ;}
	.st62{opacity:0.15;fill:url(#SVGID_63_);enable-background:new    ;}
	.st63{opacity:0.15;fill:url(#SVGID_64_);enable-background:new    ;}
	.st64{opacity:0.15;fill:url(#SVGID_65_);enable-background:new    ;}
	.st65{fill:url(#SVGID_66_);}
	.st66{fill:url(#SVGID_67_);}
	.st67{fill:url(#SVGID_68_);}
	.st68{fill:url(#SVGID_69_);}
	.st69{fill:url(#SVGID_70_);}
	.st70{fill:url(#SVGID_71_);}
	.st71{fill:url(#SVGID_72_);}
	.st72{fill:url(#SVGID_73_);}
	.st73{fill:url(#SVGID_74_);}
	.st74{fill:url(#SVGID_75_);}
	.st75{fill:url(#SVGID_76_);}
	.st76{fill:url(#SVGID_77_);}
	.st77{fill:url(#SVGID_78_);}
	.st78{fill:url(#SVGID_79_);}
	.st79{opacity:0.15;fill:url(#SVGID_80_);enable-background:new    ;}
	.st80{opacity:0.15;fill:url(#SVGID_81_);enable-background:new    ;}
	.st81{opacity:0.15;fill:url(#SVGID_82_);enable-background:new    ;}
	.st82{opacity:0.15;fill:url(#SVGID_83_);enable-background:new    ;}
	.st83{fill:url(#SVGID_84_);}
	.st84{fill:url(#SVGID_85_);}
	.st85{fill:url(#SVGID_86_);}
	.st86{fill:url(#SVGID_87_);}
	.st87{fill:url(#SVGID_88_);}
	.st88{fill:url(#SVGID_89_);}
	.st89{fill:url(#SVGID_90_);}
	.st90{fill:url(#SVGID_91_);}
	.st91{fill:url(#SVGID_92_);}
	.st92{fill:url(#SVGID_93_);}
	.st93{fill:url(#SVGID_94_);}
	.st94{opacity:0.15;fill:url(#SVGID_95_);enable-background:new    ;}
	.st95{opacity:0.15;fill:url(#SVGID_96_);enable-background:new    ;}
	.st96{fill:url(#SVGID_97_);}
	.st97{fill:url(#SVGID_98_);}
	.st98{opacity:0.15;fill:url(#SVGID_99_);enable-background:new    ;}
	.st99{opacity:0.15;fill:url(#SVGID_100_);enable-background:new    ;}
	.st100{opacity:0.15;fill:url(#SVGID_101_);enable-background:new    ;}
	.st101{opacity:0.15;fill:url(#SVGID_102_);enable-background:new    ;}
	.st102{opacity:0.15;fill:url(#SVGID_103_);enable-background:new    ;}
	.st103{fill:url(#SVGID_104_);}
	.st104{fill:url(#SVGID_105_);}
	.st105{fill:url(#SVGID_106_);}
	.st106{opacity:0.15;fill:url(#SVGID_107_);enable-background:new    ;}
	.st107{opacity:0.15;fill:url(#SVGID_108_);enable-background:new    ;}
	.st108{opacity:0.15;fill:url(#SVGID_109_);enable-background:new    ;}
</style>
<linearGradient id="SVGID_1_" gradientUnits="userSpaceOnUse" x1="3.6273" y1="10.2152" x2="36.3024" y2="10.2152">
	<stop  offset="0.2593" style="stop-color:#FFDB6E"/>
	<stop  offset="1" style="stop-color:#FFBC5E"/>
</linearGradient>
<path style="fill:url(#SVGID_1_);" d="M33.4,16c-0.2-2.8-1-5.3-2.7-7.5c-2.1-2.7-4.8-4.4-8.1-5.1c-0.2-0.1-0.4,0-0.5,0.2
	C21.7,4.5,21,4.9,20,4.9c-1,0-1.7-0.5-2.2-1.4c-0.1-0.2-0.2-0.3-0.4-0.2C11.5,4.4,6.8,9.8,6.5,15.8c0,0,0,0.1,0,0.2
	c0.3,0,0.5,0,0.8,0c0.5,0,0.7,0.2,0.7,0.7c0,1,0,2,0,3c0,0.5-0.2,0.7-0.7,0.7c-1,0-2,0-3,0c-0.5,0-0.7-0.2-0.7-0.7c0-1,0-2,0-3
	c0-0.5,0.2-0.7,0.7-0.7c0.3,0,0.6,0,0.9,0c0.5-5.9,3.4-10.1,8.6-12.8c-0.2,0-0.3,0-0.4,0c-1.4,0-2.7,0-4.1,0C9.1,3.1,9,3.2,8.9,3.4
	C8.4,4.5,7.3,5.1,6.1,4.9C5,4.7,4.2,3.6,4.2,2.5c0-1.2,0.8-2.2,2-2.4c1.1-0.2,2.3,0.4,2.7,1.5C9,1.8,9.1,1.9,9.3,1.9
	c2.6,0,5.3,0,7.9,0c0.2,0,0.3,0,0.4-0.2C18.1,0.6,19,0,20,0c1.1,0,1.9,0.6,2.3,1.7c0,0,0,0.1,0.1,0.1c0.1,0,0.3,0,0.4,0
	c2.6,0,5.2,0,7.8,0c0.3,0,0.4-0.1,0.5-0.3c0.4-1.1,1.6-1.7,2.7-1.4c1.1,0.3,1.9,1.2,1.9,2.4c0,1.2-0.8,2.2-1.9,2.4
	c-1.2,0.2-2.3-0.3-2.8-1.4c-0.1-0.3-0.2-0.4-0.5-0.4c-1.4,0-2.7,0-4.1,0c-0.1,0-0.2,0-0.4,0c5.3,2.7,8.2,7,8.7,12.9
	c0.3,0,0.6,0,0.9,0c0.5,0,0.7,0.2,0.7,0.7c0,1,0,2,0,3c0,0.5-0.2,0.7-0.7,0.7c-1,0-2,0-3,0c-0.5,0-0.7-0.2-0.7-0.7c0-1,0-2,0-3
	c0-0.5,0.2-0.7,0.7-0.7C32.9,16,33.1,16,33.4,16z M33.3,1.3c-0.7,0-1.2,0.5-1.2,1.2c0,0.7,0.6,1.2,1.2,1.2c0.6,0,1.2-0.6,1.2-1.2
	C34.5,1.8,34,1.3,33.3,1.3z M6.6,1.3c-0.7,0-1.2,0.5-1.2,1.2c0,0.6,0.6,1.2,1.2,1.2c0.7,0,1.2-0.6,1.2-1.2C7.8,1.8,7.3,1.3,6.6,1.3z
	 M20,1.3c-0.7,0-1.2,0.6-1.2,1.2c0,0.6,0.5,1.2,1.2,1.2c0.7,0,1.2-0.5,1.2-1.2C21.2,1.8,20.6,1.3,20,1.3z M6.8,17.2
	c-0.7,0-1.3,0-1.9,0c0,0.6,0,1.3,0,1.9c0.6,0,1.3,0,1.9,0C6.8,18.5,6.8,17.9,6.8,17.2z M33.1,19.1c0.6,0,1.3,0,1.9,0
	c0-0.6,0-1.3,0-1.9c-0.6,0-1.3,0-1.9,0c0,0.5,0,1,0,1.5C33.1,18.9,33.1,19,33.1,19.1z"/>
<linearGradient id="SVGID_2_" gradientUnits="userSpaceOnUse" x1="12.0415" y1="19.4261" x2="27.8992" y2="19.4261">
	<stop  offset="0.2593" style="stop-color:#FFDB6E"/>
	<stop  offset="1" style="stop-color:#FFBC5E"/>
</linearGradient>
<path class="st1" d="M15.1,23.8c-0.8-1.2-1.7-2.5-2.5-3.7c-0.7-1-0.8-0.9,0.1-1.9c2.6-3,4.2-6.5,5.2-10.3c0-0.2,0.1-0.3,0.1-0.5
	C18.1,7.1,18.3,7,18.6,7c0.9,0,1.8,0,2.8,0c0.4,0,0.6,0.3,0.6,0.6c0.4,1.8,1,3.5,1.8,5.1c1,2.1,2.2,4.1,3.8,5.9
	c0.4,0.4,0.4,0.6,0.1,1.1c-0.9,1.4-1.8,2.7-2.8,4.1c0,0.1-0.1,0.1-0.1,0.1c0.2,0.3,0.4,0.5,0.6,0.7c0.3,0.4,0.5,0.9,0.8,1.4
	c0.7,1.1,0.1,2.2-0.9,2.5C25,28.5,25,28.7,25,29c0,0.7,0,1.4,0,2.1c0,0.5-0.2,0.8-0.8,0.8c-2.8,0-5.7,0-8.5,0
	c-0.5,0-0.7-0.2-0.8-0.8c0-0.7,0-1.5,0-2.2c0-0.2,0-0.3-0.3-0.4c-1-0.3-1.8-1.4-0.9-2.6c0.3-0.5,0.6-1,0.9-1.4
	C14.7,24.2,14.9,24.1,15.1,23.8z M20.6,16.6c1.7,0.8,2.3,1.8,2,3.3c-0.3,1.2-1.4,2.1-2.7,2.1c-1.3,0-2.4-0.9-2.6-2.1
	c-0.3-1.4,0.4-2.5,2-3.2c0-2.8,0-5.6,0-8.4C19,8.1,19,8.4,19,8.6c-0.9,3.1-2.2,6-4,8.7c-0.5,0.6-1,1.3-1.4,1.9c1,1.5,2.1,3,3.1,4.6
	c0.1,0.1,0.2,0.1,0.3,0.1c2,0,4.1,0,6.1,0c0.1,0,0.3-0.1,0.4-0.2c1-1.4,1.9-2.8,2.9-4.2c0.1-0.2,0.1-0.3,0-0.5
	c-1.3-1.5-2.4-3.2-3.3-5c-0.9-1.7-1.5-3.5-2-5.4c0-0.2,0-0.4-0.4-0.3C20.6,11,20.6,13.8,20.6,16.6z M20,27.4c1.4,0,2.9,0,4.3,0
	c0.3,0,0.5-0.1,0.8-0.1c0.3-0.1,0.4-0.3,0.2-0.6c-0.3-0.4-0.5-0.8-0.7-1.2c-0.1-0.1-0.2-0.2-0.4-0.2c-2.8,0-5.5,0-8.3,0
	c-0.1,0-0.3,0.1-0.4,0.2c-0.3,0.4-0.5,0.8-0.8,1.3c-0.2,0.2-0.1,0.5,0.1,0.5c0.3,0.1,0.5,0.2,0.8,0.2C17.1,27.4,18.5,27.4,20,27.4z
	 M16.2,30.6c2.5,0,5,0,7.5,0c0-0.7,0-1.3,0-2c-2.5,0-5,0-7.5,0c0,0.1,0,0.2,0,0.4C16.2,29.5,16.2,30.1,16.2,30.6z M21.4,19.3
	c0-0.8-0.7-1.5-1.5-1.5c-0.8,0-1.5,0.6-1.5,1.4c0,0.8,0.7,1.5,1.5,1.5C20.8,20.8,21.4,20.1,21.4,19.3z"/>
<linearGradient id="SVGID_3_" gradientUnits="userSpaceOnUse" x1="32.0901" y1="2.4879" x2="34.4965" y2="2.4879">
	<stop  offset="0.2593" style="stop-color:#FFDB6E"/>
	<stop  offset="1" style="stop-color:#FFBC5E"/>
</linearGradient>
<path style="opacity:0.15;fill:url(#SVGID_3_);enable-background:new    ;" d="M33.3,1.3c0.7,0,1.2,0.5,1.2,1.2
	c0,0.6-0.5,1.2-1.2,1.2c-0.7,0-1.2-0.5-1.2-1.2C32.1,1.8,32.6,1.3,33.3,1.3z"/>
<linearGradient id="SVGID_4_" gradientUnits="userSpaceOnUse" x1="5.4349" y1="2.4878" x2="7.8411" y2="2.4878">
	<stop  offset="0.2593" style="stop-color:#FFDB6E"/>
	<stop  offset="1" style="stop-color:#FFBC5E"/>
</linearGradient>
<path style="opacity:0.15;fill:url(#SVGID_4_);enable-background:new    ;" d="M6.6,1.3c0.7,0,1.2,0.5,1.2,1.2
	c0,0.7-0.6,1.2-1.2,1.2C6,3.7,5.4,3.2,5.4,2.5C5.4,1.8,5.9,1.3,6.6,1.3z"/>
<linearGradient id="SVGID_5_" gradientUnits="userSpaceOnUse" x1="18.7628" y1="2.4878" x2="21.1679" y2="2.4878">
	<stop  offset="0.2593" style="stop-color:#FFDB6E"/>
	<stop  offset="1" style="stop-color:#FFBC5E"/>
</linearGradient>
<path style="opacity:0.15;fill:url(#SVGID_5_);enable-background:new    ;" d="M20,1.3c0.7,0,1.2,0.5,1.2,1.2c0,0.7-0.6,1.2-1.2,1.2
	c-0.6,0-1.2-0.5-1.2-1.2C18.8,1.8,19.3,1.3,20,1.3z"/>
<linearGradient id="SVGID_6_" gradientUnits="userSpaceOnUse" x1="4.9008" y1="18.1841" x2="6.7954" y2="18.1841">
	<stop  offset="0.2593" style="stop-color:#FFDB6E"/>
	<stop  offset="1" style="stop-color:#FFBC5E"/>
</linearGradient>
<path style="opacity:0.15;fill:url(#SVGID_6_);enable-background:new    ;" d="M6.8,17.2c0,0.6,0,1.2,0,1.9c-0.6,0-1.2,0-1.9,0
	c0-0.6,0-1.2,0-1.9C5.5,17.2,6.1,17.2,6.8,17.2z"/>
<linearGradient id="SVGID_7_" gradientUnits="userSpaceOnUse" x1="33.1218" y1="18.1877" x2="35.0299" y2="18.1877">
	<stop  offset="0.2593" style="stop-color:#FFDB6E"/>
	<stop  offset="1" style="stop-color:#FFBC5E"/>
</linearGradient>
<path style="opacity:0.15;fill:url(#SVGID_7_);enable-background:new    ;" d="M33.1,19.1c0-0.1,0-0.2,0-0.4c0-0.5,0-1,0-1.5
	c0.7,0,1.3,0,1.9,0c0,0.6,0,1.3,0,1.9C34.4,19.1,33.8,19.1,33.1,19.1z"/>
<linearGradient id="SVGID_8_" gradientUnits="userSpaceOnUse" x1="13.4702" y1="16.0787" x2="26.4108" y2="16.0787">
	<stop  offset="0.2593" style="stop-color:#FFDB6E"/>
	<stop  offset="1" style="stop-color:#FFBC5E"/>
</linearGradient>
<path style="opacity:0.15;fill:url(#SVGID_8_);enable-background:new    ;" d="M20.6,16.6c0-2.8,0-5.6,0-8.4
	c0.3-0.1,0.3,0.2,0.4,0.3c0.5,1.9,1.2,3.7,2,5.4c0.9,1.8,2,3.5,3.3,5c0.2,0.2,0.2,0.3,0,0.5c-1,1.4-1.9,2.8-2.9,4.2
	c-0.1,0.1-0.3,0.2-0.4,0.2c-2,0-4.1,0-6.1,0c-0.1,0-0.3,0-0.3-0.1c-1-1.5-2.1-3-3.1-4.6c0.5-0.6,1-1.3,1.4-1.9
	c1.9-2.7,3.2-5.6,4-8.7c0-0.2,0-0.5,0.4-0.4c0,2.8,0,5.6,0,8.4c-1.6,0.7-2.3,1.8-2,3.2c0.2,1.2,1.4,2.1,2.6,2.1
	c1.3,0,2.4-0.9,2.7-2.1C22.9,18.5,22.3,17.4,20.6,16.6z"/>
<linearGradient id="SVGID_9_" gradientUnits="userSpaceOnUse" x1="14.6285" y1="26.273" x2="25.3009" y2="26.273">
	<stop  offset="0.2593" style="stop-color:#FFDB6E"/>
	<stop  offset="1" style="stop-color:#FFBC5E"/>
</linearGradient>
<path style="opacity:0.15;fill:url(#SVGID_9_);enable-background:new    ;" d="M20,27.4c-1.4,0-2.9,0-4.3,0c-0.3,0-0.6-0.1-0.8-0.2
	c-0.2-0.1-0.3-0.3-0.1-0.5c0.3-0.4,0.5-0.9,0.8-1.3c0.1-0.1,0.2-0.2,0.4-0.2c2.8,0,5.5,0,8.3,0c0.1,0,0.3,0.1,0.4,0.2
	c0.3,0.4,0.5,0.8,0.7,1.2c0.2,0.3,0.1,0.5-0.2,0.6c-0.2,0.1-0.5,0.1-0.8,0.1C22.8,27.4,21.4,27.4,20,27.4z"/>
<linearGradient id="SVGID_10_" gradientUnits="userSpaceOnUse" x1="16.1916" y1="29.6203" x2="23.7174" y2="29.6203">
	<stop  offset="0.2593" style="stop-color:#FFDB6E"/>
	<stop  offset="1" style="stop-color:#FFBC5E"/>
</linearGradient>
<path style="opacity:0.15;fill:url(#SVGID_10_);enable-background:new    ;" d="M16.2,30.6c0-0.5,0-1.1,0-1.6c0-0.1,0-0.2,0-0.4
	c2.5,0,5,0,7.5,0c0,0.7,0,1.3,0,2C21.2,30.6,18.7,30.6,16.2,30.6z"/>
<linearGradient id="SVGID_11_" gradientUnits="userSpaceOnUse" x1="18.4937" y1="19.2922" x2="21.4377" y2="19.2922">
	<stop  offset="0.2593" style="stop-color:#FFDB6E"/>
	<stop  offset="1" style="stop-color:#FFBC5E"/>
</linearGradient>
<path style="opacity:0.15;fill:url(#SVGID_11_);enable-background:new    ;" d="M21.4,19.3c0,0.8-0.7,1.5-1.5,1.5
	c-0.8,0-1.5-0.7-1.5-1.5c0-0.8,0.7-1.4,1.5-1.4C20.8,17.8,21.4,18.5,21.4,19.3z"/>
</svg>
