<?xml version="1.0" encoding="utf-8"?>
<!-- Generator: Adobe Illustrator 25.0.1, SVG Export Plug-In . SVG Version: 6.00 Build 0)  -->
<svg version="1.1" id="Layer_1" xmlns="http://www.w3.org/2000/svg" xmlns:xlink="http://www.w3.org/1999/xlink" x="0px" y="0px"
	 viewBox="0 0 40 32" style="enable-background:new 0 0 40 32;" xml:space="preserve">
<style type="text/css">
	.st0{opacity:0.15;fill-rule:evenodd;clip-rule:evenodd;fill:url(#SVGID_1_);enable-background:new    ;}
	.st1{fill:url(#SVGID_2_);}
	.st2{fill:url(#SVGID_3_);}
	.st3{fill:url(#SVGID_4_);}
	.st4{fill:url(#SVGID_5_);}
	.st5{fill:url(#SVGID_6_);}
	.st6{fill:url(#SVGID_7_);}
	.st7{fill:url(#SVGID_8_);}
	.st8{fill:url(#SVGID_9_);}
	.st9{fill:url(#SVGID_10_);}
	.st10{fill:url(#SVGID_11_);}
	.st11{opacity:0.15;fill:url(#SVGID_12_);enable-background:new    ;}
	.st12{fill:url(#SVGID_13_);}
	.st13{opacity:0.15;fill:url(#SVGID_14_);enable-background:new    ;}
	.st14{opacity:0.15;fill:url(#SVGID_15_);enable-background:new    ;}
	.st15{fill:url(#SVGID_16_);}
	.st16{fill:url(#SVGID_17_);}
	.st17{fill:url(#SVGID_18_);}
	.st18{fill:url(#SVGID_19_);}
	.st19{fill:url(#SVGID_20_);}
	.st20{fill:url(#SVGID_21_);}
	.st21{fill:url(#SVGID_22_);}
	.st22{fill:url(#SVGID_23_);}
	.st23{fill:url(#SVGID_24_);}
	.st24{opacity:0.15;fill:url(#SVGID_25_);enable-background:new    ;}
	.st25{opacity:0.15;fill:url(#SVGID_26_);enable-background:new    ;}
	.st26{opacity:0.15;fill:url(#SVGID_27_);enable-background:new    ;}
	.st27{fill:url(#SVGID_28_);}
	.st28{fill:url(#SVGID_29_);}
	.st29{opacity:0.15;fill:url(#SVGID_30_);enable-background:new    ;}
	.st30{opacity:0.15;fill:url(#SVGID_31_);enable-background:new    ;}
	.st31{opacity:0.15;fill:url(#SVGID_32_);enable-background:new    ;}
	.st32{opacity:0.15;fill:url(#SVGID_33_);enable-background:new    ;}
	.st33{opacity:0.15;fill:url(#SVGID_34_);enable-background:new    ;}
	.st34{opacity:0.15;fill:url(#SVGID_35_);enable-background:new    ;}
	.st35{opacity:0.15;fill:url(#SVGID_36_);enable-background:new    ;}
	.st36{opacity:0.15;fill:url(#SVGID_37_);enable-background:new    ;}
	.st37{opacity:0.15;fill:url(#SVGID_38_);enable-background:new    ;}
	.st38{fill:url(#SVGID_39_);}
	.st39{opacity:0.15;fill:url(#SVGID_40_);enable-background:new    ;}
	.st40{opacity:0.15;fill:url(#SVGID_41_);enable-background:new    ;}
	.st41{fill:url(#SVGID_42_);}
	.st42{fill:url(#SVGID_43_);}
	.st43{fill:url(#SVGID_44_);}
	.st44{fill:url(#SVGID_45_);}
	.st45{fill:url(#SVGID_46_);}
	.st46{fill:url(#SVGID_47_);}
	.st47{fill:url(#SVGID_48_);}
	.st48{opacity:0.15;fill:url(#SVGID_49_);enable-background:new    ;}
	.st49{opacity:0.15;fill:url(#SVGID_50_);enable-background:new    ;}
	.st50{fill:url(#SVGID_51_);}
	.st51{fill:url(#SVGID_52_);}
	.st52{fill:url(#SVGID_53_);}
	.st53{fill:url(#SVGID_54_);}
	.st54{opacity:0.15;fill:url(#SVGID_55_);enable-background:new    ;}
	.st55{opacity:0.15;fill:url(#SVGID_56_);enable-background:new    ;}
	.st56{opacity:0.15;fill:url(#SVGID_57_);enable-background:new    ;}
	.st57{opacity:0.15;fill:url(#SVGID_58_);enable-background:new    ;}
	.st58{opacity:0.15;fill:url(#SVGID_59_);enable-background:new    ;}
	.st59{opacity:0.15;fill:url(#SVGID_60_);enable-background:new    ;}
	.st60{opacity:0.15;fill:url(#SVGID_61_);enable-background:new    ;}
	.st61{opacity:0.15;fill:url(#SVGID_62_);enable-background:new    ;}
	.st62{opacity:0.15;fill:url(#SVGID_63_);enable-background:new    ;}
	.st63{opacity:0.15;fill:url(#SVGID_64_);enable-background:new    ;}
	.st64{opacity:0.15;fill:url(#SVGID_65_);enable-background:new    ;}
	.st65{fill:url(#SVGID_66_);}
	.st66{fill:url(#SVGID_67_);}
	.st67{fill:url(#SVGID_68_);}
	.st68{fill:url(#SVGID_69_);}
	.st69{fill:url(#SVGID_70_);}
	.st70{fill:url(#SVGID_71_);}
	.st71{fill:url(#SVGID_72_);}
	.st72{fill:url(#SVGID_73_);}
	.st73{fill:url(#SVGID_74_);}
	.st74{fill:url(#SVGID_75_);}
	.st75{fill:url(#SVGID_76_);}
	.st76{fill:url(#SVGID_77_);}
	.st77{fill:url(#SVGID_78_);}
	.st78{fill:url(#SVGID_79_);}
	.st79{opacity:0.15;fill:url(#SVGID_80_);enable-background:new    ;}
	.st80{opacity:0.15;fill:url(#SVGID_81_);enable-background:new    ;}
	.st81{opacity:0.15;fill:url(#SVGID_82_);enable-background:new    ;}
	.st82{opacity:0.15;fill:url(#SVGID_83_);enable-background:new    ;}
	.st83{fill:url(#SVGID_84_);}
	.st84{fill:url(#SVGID_85_);}
	.st85{fill:url(#SVGID_86_);}
	.st86{fill:url(#SVGID_87_);}
	.st87{fill:url(#SVGID_88_);}
	.st88{fill:url(#SVGID_89_);}
	.st89{fill:url(#SVGID_90_);}
	.st90{fill:url(#SVGID_91_);}
	.st91{fill:url(#SVGID_92_);}
	.st92{fill:url(#SVGID_93_);}
	.st93{fill:url(#SVGID_94_);}
	.st94{opacity:0.15;fill:url(#SVGID_95_);enable-background:new    ;}
	.st95{opacity:0.15;fill:url(#SVGID_96_);enable-background:new    ;}
	.st96{fill:url(#SVGID_97_);}
	.st97{fill:url(#SVGID_98_);}
	.st98{opacity:0.15;fill:url(#SVGID_99_);enable-background:new    ;}
	.st99{opacity:0.15;fill:url(#SVGID_100_);enable-background:new    ;}
	.st100{opacity:0.15;fill:url(#SVGID_101_);enable-background:new    ;}
	.st101{fill:url(#SVGID_102_);}
	.st102{fill:url(#SVGID_103_);}
	.st103{fill:url(#SVGID_104_);}
	.st104{opacity:0.15;fill:url(#SVGID_105_);enable-background:new    ;}
	.st105{opacity:0.15;fill:url(#SVGID_106_);enable-background:new    ;}
	.st106{opacity:0.15;fill:url(#SVGID_107_);enable-background:new    ;}
	.st107{fill:url(#SVGID_108_);}
	.st108{fill:url(#SVGID_109_);}
	.st109{fill:url(#SVGID_110_);}
	.st110{fill:url(#SVGID_111_);}
	.st111{fill:url(#SVGID_112_);}
	.st112{fill:url(#SVGID_113_);}
	.st113{fill:url(#SVGID_114_);}
	.st114{fill:url(#SVGID_115_);}
	.st115{fill:url(#SVGID_116_);}
	.st116{fill:url(#SVGID_117_);}
	.st117{fill:url(#SVGID_118_);}
	.st118{fill:url(#SVGID_119_);}
	.st119{fill:url(#SVGID_120_);}
	.st120{fill:url(#SVGID_121_);}
	.st121{fill:#1F9BEF;}
</style>
<g>
	<linearGradient id="SVGID_1_" gradientUnits="userSpaceOnUse" x1="2.9123" y1="15.9973" x2="37.1266" y2="15.9973">
		<stop  offset="0.2593" style="stop-color:#FFDB6E"/>
		<stop  offset="1" style="stop-color:#FFBC5E"/>
	</linearGradient>
	<path style="fill:url(#SVGID_1_);" d="M37.1,22.8C37.1,22.8,37.1,22.8,37.1,22.8c-0.6,1.7-1.3,2.2-3,2.2c-1.2,0-2.4,0-3.5,0
		c-0.1,0-0.2,0-0.4,0c0,0.2,0,0.3,0,0.4c0,1.3,0,2.7,0,4c0,1.6-0.9,2.5-2.5,2.5c-5.1,0-10.2,0-15.3,0c-1.5,0-2.5-0.9-2.5-2.5
		c0-1.3,0-2.7,0-4c0-0.1,0-0.3,0-0.4c-0.1,0-0.3,0-0.4,0c-1.3,0-2.6,0-3.8,0c-1.6,0-2.7-1.1-2.8-2.8c0-4.8,0-9.7,0-14.5
		c0-1.7,1.1-3,2.7-3c0-0.1,0-0.3,0-0.4c0-1.5,1.1-2.5,2.5-2.6c0.5,0,1,0,1.6,0c0.2,0,0.3,0,0.4-0.2C10.4,0.5,11.2,0,12.1,0
		c0.8,0,1.6,0,2.5,0c0.4,0,0.6,0.2,0.6,0.5C15.2,0.8,15,1,14.6,1c-0.8,0-1.6,0-2.4,0c-0.7,0-1.2,0.5-1.2,1.2c0,2.1,0,4.2,0,6.3
		c0,0,0,0.1,0,0.2c6.1,0,12.1,0,18.2,0c0-0.1,0-0.2,0-0.4c0-2,0-3.9,0-5.9c0-0.9-0.5-1.4-1.4-1.4C24.2,1,20.6,1,17,1
		c-0.1,0-0.2,0-0.3,0c-0.3,0-0.5-0.2-0.5-0.5c0-0.3,0.2-0.5,0.5-0.5c0.1,0,0.2,0,0.2,0c3.6,0,7.2,0,10.8,0c1.1,0,1.8,0.5,2.3,1.5
		c0,0.1,0.2,0.2,0.3,0.2c0.5,0,1,0,1.4,0c1.6,0,2.7,1.1,2.7,2.7c0,0.1,0,0.2,0,0.3c0.2,0,0.4,0,0.5,0.1c1.1,0.2,1.7,0.9,2,1.9
		c0,0.1,0.1,0.2,0.1,0.2C37.1,12.2,37.1,17.5,37.1,22.8z M9.9,15.4c-0.5,0-1,0-1.4,0c-0.6,0-1.1,0-1.7,0c-0.4,0-0.6-0.2-0.6-0.5
		c0-0.3,0.2-0.5,0.6-0.5c0.1,0,0.2,0,0.3,0c3,0,5.9,0,8.9,0c5.8,0,11.6,0,17.3,0c0.4,0,0.7,0.2,0.7,0.5c0,0.3-0.2,0.5-0.7,0.5
		c-0.6,0-1.3,0-1.9,0c-0.4,0-0.8,0-1.1,0c0,2.9,0,5.8,0,8.6c0.1,0,0.2,0,0.3,0c1.3,0,2.6,0,3.9,0c1.1,0,1.7-0.7,1.7-1.7
		c0-4.9,0-9.9,0-14.8c0-1.1-0.7-1.8-1.7-1.8c-1.3,0-2.6,0-3.9,0c-0.1,0-0.2,0-0.4,0c0,0.1,0,0.3,0,0.4c0,0.9,0,1.9,0,2.8
		c0,0.6-0.2,0.7-0.7,0.7c-6.3,0-12.5,0-18.8,0c-0.6,0-0.7-0.2-0.7-0.7c0-1,0-1.9,0-2.9c0-0.1,0-0.2,0-0.4c-1.4,0-2.8,0-4.2,0
		c-1.1,0-1.7,0.7-1.7,1.8c0,4.9,0,9.8,0,14.8c0,1.1,0.7,1.8,1.8,1.8c1.3,0,2.6,0,3.9,0c0.1,0,0.2,0,0.3,0
		C9.9,21.1,9.9,18.3,9.9,15.4z M10.9,24.8C11,24.8,11,24.8,10.9,24.8c0.3-0.2,0.5-0.5,0.8-0.7c1.9-1.9,4.7-1.9,6.6,0
		c0.4,0.4,0.7,0.8,1.1,1.2c0.7-0.8,1.5-1.5,2.2-2.2c2.1-2.1,5.2-2.1,7.3-0.1c0.1,0.1,0.1,0.1,0.3,0.2c0-2.7,0-5.3,0-7.9
		c-6.1,0-12.1,0-18.2,0C10.9,18.5,10.9,21.7,10.9,24.8z M15.2,30.9C15.2,30.9,15.2,31,15.2,30.9c0.1,0.1,0.2,0.1,0.3,0.1
		c4.1,0,8.1,0,12.2,0c0.9,0,1.4-0.5,1.4-1.4c0-1.1,0-2.3,0-3.4c0-0.5,0.1-1-0.1-1.4c-0.2-0.4-0.6-0.7-1-1.1c-1.6-1.6-4.2-1.5-5.7,0
		c-1.3,1.3-2.6,2.6-3.9,3.9c-0.3,0.3-0.6,0.4-0.8,0.1c-0.2-0.2-0.2-0.5,0.1-0.8c0.3-0.3,0.7-0.7,1-1c-0.5-0.5-0.9-0.9-1.3-1.4
		c-1.4-1.2-3.4-1.2-4.7,0c-0.5,0.5-1,1-1.6,1.6c-0.1,0.1-0.1,0.2-0.1,0.3c0,1.1,0,2.2,0,3.3c0,0.7,0.6,1.2,1.2,1.2
		c0.4,0,0.8,0,1.2,0c0.2,0,0.4-0.1,0.5-0.2c0.6-0.6,1.1-1.1,1.7-1.7c0.2-0.2,0.4-0.4,0.5-0.5c0.3-0.2,0.5-0.3,0.7-0.1
		c0.2,0.2,0.2,0.5,0,0.8c-0.1,0.1-0.2,0.2-0.3,0.3C16.1,30,15.6,30.5,15.2,30.9z M9.9,2.7c-0.6,0-1.1,0-1.7,0c-1.1,0-1.8,0.9-1.5,2
		c1.1,0,2.1,0,3.2,0C9.9,4,9.9,3.4,9.9,2.7z M33.4,4.7c0.1-1-0.3-1.8-1-1.9c-0.7-0.1-1.5-0.1-2.2-0.1c0,0.7,0,1.4,0,2.1
		C31.3,4.7,32.3,4.7,33.4,4.7z"/>
	<linearGradient id="SVGID_2_" gradientUnits="userSpaceOnUse" x1="3.9328" y1="14.8841" x2="36.1252" y2="14.8841">
		<stop  offset="0.2593" style="stop-color:#FFDB6E"/>
		<stop  offset="1" style="stop-color:#FFBC5E"/>
	</linearGradient>
	<path style="opacity:0.15;fill:url(#SVGID_2_);enable-background:new    ;" d="M9.9,15.4c0,2.9,0,5.7,0,8.6c-0.1,0-0.2,0-0.3,0
		c-1.3,0-2.6,0-3.9,0c-1.1,0-1.8-0.7-1.8-1.8c0-4.9,0-9.8,0-14.8c0-1.1,0.7-1.8,1.7-1.8c1.4,0,2.8,0,4.2,0c0,0.1,0,0.3,0,0.4
		c0,1,0,1.9,0,2.9c0,0.6,0.2,0.7,0.7,0.7c6.3,0,12.5,0,18.8,0c0.6,0,0.7-0.2,0.7-0.7c0-0.9,0-1.9,0-2.8c0-0.1,0-0.2,0-0.4
		c0.1,0,0.2,0,0.4,0c1.3,0,2.6,0,3.9,0c1.1,0,1.7,0.7,1.7,1.8c0,4.9,0,9.9,0,14.8c0,1.1-0.7,1.7-1.7,1.7c-1.3,0-2.6,0-3.9,0
		c-0.1,0-0.2,0-0.3,0c0-2.9,0-5.7,0-8.6c0.4,0,0.8,0,1.1,0c0.6,0,1.3,0,1.9,0c0.4,0,0.7-0.2,0.7-0.5c0-0.3-0.2-0.5-0.7-0.5
		c-5.8,0-11.6,0-17.3,0c-3,0-5.9,0-8.9,0c-0.1,0-0.2,0-0.3,0c-0.3,0-0.6,0.2-0.6,0.5c0,0.3,0.2,0.5,0.6,0.5c0.6,0,1.1,0,1.7,0
		C8.9,15.4,9.4,15.4,9.9,15.4z M33,9.8c0.8,0,1.5-0.7,1.5-1.5c0-0.8-0.7-1.5-1.5-1.5c-0.8,0-1.5,0.7-1.4,1.5
		C31.5,9.1,32.2,9.8,33,9.8z M31.5,11.8c0,0.8,0.7,1.5,1.5,1.5c0.8,0,1.5-0.7,1.5-1.5c0-0.8-0.7-1.5-1.5-1.5
		C32.1,10.3,31.5,11,31.5,11.8z"/>
	<linearGradient id="SVGID_3_" gradientUnits="userSpaceOnUse" x1="6.5978" y1="3.7005" x2="9.8873" y2="3.7005">
		<stop  offset="0.2593" style="stop-color:#FFDB6E"/>
		<stop  offset="1" style="stop-color:#FFBC5E"/>
	</linearGradient>
	<path style="opacity:0.15;fill:url(#SVGID_3_);enable-background:new    ;" d="M9.9,2.7c0,0.7,0,1.4,0,2c-1.1,0-2.2,0-3.2,0
		c-0.3-1.1,0.4-2,1.5-2C8.7,2.7,9.3,2.7,9.9,2.7z"/>
	<linearGradient id="SVGID_4_" gradientUnits="userSpaceOnUse" x1="30.1694" y1="3.6857" x2="33.4506" y2="3.6857">
		<stop  offset="0.2593" style="stop-color:#FFDB6E"/>
		<stop  offset="1" style="stop-color:#FFBC5E"/>
	</linearGradient>
	<path style="opacity:0.15;fill:url(#SVGID_4_);enable-background:new    ;" d="M33.4,4.7c-1.1,0-2.2,0-3.3,0c0-0.7,0-1.3,0-2.1
		c0.7,0,1.5,0,2.2,0.1C33.2,2.9,33.5,3.7,33.4,4.7z"/>
	<linearGradient id="SVGID_5_" gradientUnits="userSpaceOnUse" x1="31.5112" y1="8.3102" x2="34.4386" y2="8.3102">
		<stop  offset="0.2593" style="stop-color:#FFDB6E"/>
		<stop  offset="1" style="stop-color:#FFBC5E"/>
	</linearGradient>
	<path class="st4" d="M33,9.8c-0.8,0-1.5-0.6-1.5-1.5c0-0.8,0.6-1.5,1.4-1.5c0.8,0,1.5,0.7,1.5,1.5C34.4,9.1,33.8,9.8,33,9.8z
		 M33,8.8c0.3,0,0.5-0.2,0.5-0.5c0-0.2-0.2-0.5-0.5-0.5c-0.3,0-0.4,0.2-0.5,0.4C32.5,8.6,32.7,8.8,33,8.8z"/>
	<linearGradient id="SVGID_6_" gradientUnits="userSpaceOnUse" x1="31.5112" y1="11.7756" x2="34.4388" y2="11.7756">
		<stop  offset="0.2593" style="stop-color:#FFDB6E"/>
		<stop  offset="1" style="stop-color:#FFBC5E"/>
	</linearGradient>
	<path class="st5" d="M31.5,11.8c0-0.8,0.6-1.5,1.4-1.5c0.8,0,1.5,0.6,1.5,1.5c0,0.8-0.7,1.5-1.5,1.5C32.2,13.3,31.5,12.6,31.5,11.8
		z M33.4,11.8c0-0.3-0.2-0.5-0.5-0.5c-0.3,0-0.4,0.2-0.4,0.4c0,0.3,0.2,0.5,0.4,0.5C33.2,12.2,33.4,12,33.4,11.8z"/>
	<linearGradient id="SVGID_7_" gradientUnits="userSpaceOnUse" x1="14.4148" y1="19.0077" x2="18.6994" y2="19.0077">
		<stop  offset="0.2593" style="stop-color:#FFDB6E"/>
		<stop  offset="1" style="stop-color:#FFBC5E"/>
	</linearGradient>
	<path class="st6" d="M18.7,19c0,1.2-1,2.1-2.2,2.1c-1.2,0-2.1-1-2.1-2.2c0-1.2,1-2.1,2.2-2.1C17.8,16.9,18.7,17.8,18.7,19z
		 M16.6,17.9c-0.6,0-1.1,0.5-1.1,1.1c0,0.6,0.5,1.1,1.1,1.1c0.6,0,1.1-0.5,1.1-1.1C17.7,18.4,17.2,17.9,16.6,17.9z"/>
	<linearGradient id="SVGID_8_" gradientUnits="userSpaceOnUse" x1="32.5153" y1="8.3125" x2="33.4336" y2="8.3125">
		<stop  offset="0.2593" style="stop-color:#FFDB6E"/>
		<stop  offset="1" style="stop-color:#FFBC5E"/>
	</linearGradient>
	<path style="opacity:0.15;fill:url(#SVGID_8_);enable-background:new    ;" d="M33,8.8c-0.3,0-0.5-0.2-0.4-0.5
		c0-0.3,0.2-0.4,0.5-0.4c0.2,0,0.5,0.2,0.5,0.5C33.4,8.6,33.2,8.8,33,8.8z"/>
	<linearGradient id="SVGID_9_" gradientUnits="userSpaceOnUse" x1="32.5156" y1="11.7762" x2="33.4328" y2="11.7762">
		<stop  offset="0.2593" style="stop-color:#FFDB6E"/>
		<stop  offset="1" style="stop-color:#FFBC5E"/>
	</linearGradient>
	<path style="opacity:0.15;fill:url(#SVGID_9_);enable-background:new    ;" d="M33.4,11.8c0,0.2-0.2,0.5-0.5,0.5
		c-0.2,0-0.5-0.2-0.4-0.5c0-0.3,0.2-0.4,0.4-0.4C33.2,11.3,33.4,11.5,33.4,11.8z"/>
	<linearGradient id="SVGID_10_" gradientUnits="userSpaceOnUse" x1="15.4166" y1="19.0078" x2="17.6975" y2="19.0078">
		<stop  offset="0.2593" style="stop-color:#FFDB6E"/>
		<stop  offset="1" style="stop-color:#FFBC5E"/>
	</linearGradient>
	<path style="opacity:0.15;fill:url(#SVGID_10_);enable-background:new    ;" d="M16.6,17.9c0.6,0,1.1,0.5,1.1,1.1
		c0,0.6-0.5,1.1-1.1,1.1c-0.6,0-1.1-0.5-1.1-1.1C15.4,18.4,15.9,17.9,16.6,17.9z"/>
</g>
</svg>
