<?xml version="1.0" encoding="utf-8"?>
<!-- Generator: Adobe Illustrator 25.0.1, SVG Export Plug-In . SVG Version: 6.00 Build 0)  -->
<svg version="1.1" id="Layer_1" xmlns="http://www.w3.org/2000/svg" xmlns:xlink="http://www.w3.org/1999/xlink" x="0px" y="0px"
	 viewBox="0 0 40 32" style="enable-background:new 0 0 40 32;" xml:space="preserve">
<style type="text/css">
	.st0{opacity:0.15;fill-rule:evenodd;clip-rule:evenodd;fill:url(#SVGID_1_);enable-background:new    ;}
	.st1{fill:url(#SVGID_2_);}
	.st2{fill:url(#SVGID_3_);}
	.st3{fill:url(#SVGID_4_);}
	.st4{fill:url(#SVGID_5_);}
	.st5{fill:url(#SVGID_6_);}
	.st6{fill:url(#SVGID_7_);}
	.st7{fill:url(#SVGID_8_);}
	.st8{fill:url(#SVGID_9_);}
	.st9{fill:url(#SVGID_10_);}
	.st10{fill:url(#SVGID_11_);}
	.st11{opacity:0.15;fill:url(#SVGID_12_);enable-background:new    ;}
	.st12{fill:url(#SVGID_13_);}
	.st13{opacity:0.15;fill:url(#SVGID_14_);enable-background:new    ;}
	.st14{opacity:0.15;fill:url(#SVGID_15_);enable-background:new    ;}
	.st15{fill:url(#SVGID_16_);}
	.st16{fill:url(#SVGID_17_);}
	.st17{fill:url(#SVGID_18_);}
	.st18{fill:url(#SVGID_19_);}
	.st19{fill:url(#SVGID_20_);}
	.st20{fill:url(#SVGID_21_);}
	.st21{fill:url(#SVGID_22_);}
	.st22{fill:url(#SVGID_23_);}
	.st23{fill:url(#SVGID_24_);}
	.st24{opacity:0.15;fill:url(#SVGID_25_);enable-background:new    ;}
	.st25{opacity:0.15;fill:url(#SVGID_26_);enable-background:new    ;}
	.st26{opacity:0.15;fill:url(#SVGID_27_);enable-background:new    ;}
	.st27{fill:url(#SVGID_28_);}
	.st28{fill:url(#SVGID_29_);}
	.st29{opacity:0.15;fill:url(#SVGID_30_);enable-background:new    ;}
	.st30{opacity:0.15;fill:url(#SVGID_31_);enable-background:new    ;}
	.st31{opacity:0.15;fill:url(#SVGID_32_);enable-background:new    ;}
	.st32{opacity:0.15;fill:url(#SVGID_33_);enable-background:new    ;}
	.st33{opacity:0.15;fill:url(#SVGID_34_);enable-background:new    ;}
	.st34{opacity:0.15;fill:url(#SVGID_35_);enable-background:new    ;}
	.st35{opacity:0.15;fill:url(#SVGID_36_);enable-background:new    ;}
	.st36{opacity:0.15;fill:url(#SVGID_37_);enable-background:new    ;}
	.st37{opacity:0.15;fill:url(#SVGID_38_);enable-background:new    ;}
	.st38{fill:url(#SVGID_39_);}
	.st39{opacity:0.15;fill:url(#SVGID_40_);enable-background:new    ;}
	.st40{opacity:0.15;fill:url(#SVGID_41_);enable-background:new    ;}
	.st41{fill:url(#SVGID_42_);}
	.st42{fill:url(#SVGID_43_);}
	.st43{fill:url(#SVGID_44_);}
	.st44{fill:url(#SVGID_45_);}
	.st45{fill:url(#SVGID_46_);}
	.st46{fill:url(#SVGID_47_);}
	.st47{fill:url(#SVGID_48_);}
	.st48{opacity:0.15;fill:url(#SVGID_49_);enable-background:new    ;}
	.st49{opacity:0.15;fill:url(#SVGID_50_);enable-background:new    ;}
	.st50{fill:url(#SVGID_51_);}
	.st51{fill:url(#SVGID_52_);}
	.st52{fill:url(#SVGID_53_);}
	.st53{fill:url(#SVGID_54_);}
	.st54{opacity:0.15;fill:url(#SVGID_55_);enable-background:new    ;}
	.st55{opacity:0.15;fill:url(#SVGID_56_);enable-background:new    ;}
	.st56{opacity:0.15;fill:url(#SVGID_57_);enable-background:new    ;}
	.st57{opacity:0.15;fill:url(#SVGID_58_);enable-background:new    ;}
	.st58{opacity:0.15;fill:url(#SVGID_59_);enable-background:new    ;}
	.st59{opacity:0.15;fill:url(#SVGID_60_);enable-background:new    ;}
	.st60{opacity:0.15;fill:url(#SVGID_61_);enable-background:new    ;}
	.st61{opacity:0.15;fill:url(#SVGID_62_);enable-background:new    ;}
	.st62{opacity:0.15;fill:url(#SVGID_63_);enable-background:new    ;}
	.st63{opacity:0.15;fill:url(#SVGID_64_);enable-background:new    ;}
	.st64{opacity:0.15;fill:url(#SVGID_65_);enable-background:new    ;}
	.st65{fill:url(#SVGID_66_);}
	.st66{fill:url(#SVGID_67_);}
	.st67{fill:url(#SVGID_68_);}
	.st68{fill:url(#SVGID_69_);}
	.st69{fill:url(#SVGID_70_);}
	.st70{fill:url(#SVGID_71_);}
	.st71{fill:url(#SVGID_72_);}
	.st72{fill:url(#SVGID_73_);}
	.st73{fill:url(#SVGID_74_);}
	.st74{fill:url(#SVGID_75_);}
	.st75{fill:url(#SVGID_76_);}
	.st76{fill:url(#SVGID_77_);}
	.st77{fill:url(#SVGID_78_);}
	.st78{fill:url(#SVGID_79_);}
	.st79{opacity:0.15;fill:url(#SVGID_80_);enable-background:new    ;}
	.st80{opacity:0.15;fill:url(#SVGID_81_);enable-background:new    ;}
	.st81{opacity:0.15;fill:url(#SVGID_82_);enable-background:new    ;}
	.st82{opacity:0.15;fill:url(#SVGID_83_);enable-background:new    ;}
	.st83{fill:url(#SVGID_84_);}
	.st84{fill:url(#SVGID_85_);}
	.st85{fill:url(#SVGID_86_);}
	.st86{fill:url(#SVGID_87_);}
	.st87{fill:url(#SVGID_88_);}
	.st88{fill:url(#SVGID_89_);}
	.st89{fill:url(#SVGID_90_);}
	.st90{fill:url(#SVGID_91_);}
	.st91{fill:url(#SVGID_92_);}
	.st92{fill:url(#SVGID_93_);}
	.st93{fill:url(#SVGID_94_);}
	.st94{opacity:0.15;fill:url(#SVGID_95_);enable-background:new    ;}
	.st95{opacity:0.15;fill:url(#SVGID_96_);enable-background:new    ;}
	.st96{fill:url(#SVGID_97_);}
	.st97{fill:url(#SVGID_98_);}
	.st98{opacity:0.15;fill:url(#SVGID_99_);enable-background:new    ;}
	.st99{opacity:0.15;fill:url(#SVGID_100_);enable-background:new    ;}
	.st100{opacity:0.15;fill:url(#SVGID_101_);enable-background:new    ;}
	.st101{opacity:0.15;fill:url(#SVGID_102_);enable-background:new    ;}
	.st102{opacity:0.15;fill:url(#SVGID_103_);enable-background:new    ;}
	.st103{fill:url(#SVGID_104_);}
	.st104{fill:url(#SVGID_105_);}
	.st105{fill:url(#SVGID_106_);}
	.st106{opacity:0.15;fill:url(#SVGID_107_);enable-background:new    ;}
	.st107{opacity:0.15;fill:url(#SVGID_108_);enable-background:new    ;}
	.st108{opacity:0.15;fill:url(#SVGID_109_);enable-background:new    ;}
</style>
<g>
	<linearGradient id="SVGID_1_" gradientUnits="userSpaceOnUse" x1="3.8642" y1="15.9966" x2="36.1967" y2="15.9966">
		<stop  offset="0.2593" style="stop-color:#FFDB6E"/>
		<stop  offset="1" style="stop-color:#FFBC5E"/>
	</linearGradient>
	<path style="fill:url(#SVGID_1_);" d="M17.8,25.8c-0.2,0-0.3,0-0.4,0c-3.6,0-7.1,0-10.7,0c-1.4,0-2.5-0.9-2.7-2.2
		c0-0.2,0-0.5,0-0.7c0-6.7,0-13.3,0-20C3.9,1.1,5,0,6.7,0c8.9,0,17.7,0,26.6,0c1.7,0,2.9,1.1,2.9,2.8c0,6.7,0,13.4,0,20.1
		c0,1.7-1.1,2.8-2.8,2.8c-0.4,0-0.7,0-1.1,0c0,0.4,0,0.7,0,1.1c0,0.9,0,1.9,0,2.8c0,1.4-0.9,2.3-2.3,2.3c-3.3,0-6.5,0-9.8,0
		c-1.4,0-2.3-0.9-2.3-2.3c0-1.2,0-2.3,0-3.5C17.8,26,17.8,25.9,17.8,25.8z M17.8,24.4c0-0.2,0-0.3,0-0.5c0-4.4,0-8.8,0-13.2
		c0-0.3,0-0.6,0.1-0.8c0.3-1.1,1.1-1.7,2.3-1.7c3.2,0,6.4,0,9.6,0c1.6,0,2.5,1.2,2.5,2.5c0,4.4,0,8.9,0,13.3c0,0.1,0,0.3,0,0.4
		c0.3,0,0.6,0,0.9,0c1.2,0,1.7-0.5,1.7-1.7c0-5.1,0-10.2,0-15.3c0-0.1,0-0.3,0-0.4C25,7,15.1,7,5.2,7c0,0.1,0,0.3,0,0.4
		c0,5.1,0,10.3,0,15.4c0,1.1,0.5,1.6,1.6,1.6c3.5,0,7.1,0,10.6,0C17.5,24.4,17.6,24.4,17.8,24.4z M5.2,5.6c9.9,0,19.7,0,29.6,0
		c0-1.1,0-2.1,0-3.1c0-0.4-0.2-0.7-0.5-0.9c-0.3-0.2-0.7-0.3-1-0.3c-8.8,0-17.7,0-26.5,0c-0.1,0-0.3,0-0.4,0
		C5.7,1.5,5.3,1.9,5.2,2.5C5.2,3.5,5.2,4.6,5.2,5.6z M19.2,14.1c0,4,0,8,0,12.1c3.9,0,7.8,0,11.7,0c0-4,0-8,0-12.1
		C27,14.1,23.1,14.1,19.2,14.1z M30.9,12.8c0-0.8,0-1.7,0-2.5c0-0.4-0.4-0.7-0.9-0.7c-3.3,0-6.6,0-9.9,0c-0.6,0-0.9,0.4-0.9,0.9
		c0,0.7,0,1.3,0,2c0,0.1,0,0.2,0,0.2C23.1,12.8,27,12.8,30.9,12.8z M30.9,27.6c-3.9,0-7.8,0-11.8,0c0,0.6,0,1.2,0,1.8
		c0,0.9,0.3,1.2,1.2,1.2c3.1,0,6.3,0,9.4,0c0.2,0,0.3,0,0.5,0c0.3-0.1,0.6-0.3,0.6-0.7C30.9,29.2,30.9,28.4,30.9,27.6z"/>
	<linearGradient id="SVGID_2_" gradientUnits="userSpaceOnUse" x1="5.2014" y1="15.7132" x2="34.8501" y2="15.7132">
		<stop  offset="0.2593" style="stop-color:#FFDB6E"/>
		<stop  offset="1" style="stop-color:#FFBC5E"/>
	</linearGradient>
	<path style="opacity:0.15;fill:url(#SVGID_2_);enable-background:new    ;" d="M17.8,24.4c-0.2,0-0.3,0-0.4,0c-3.5,0-7.1,0-10.6,0
		c-1.1,0-1.6-0.5-1.6-1.6c0-5.1,0-10.3,0-15.4c0-0.1,0-0.2,0-0.4C15.1,7,25,7,34.9,7c0,0.2,0,0.3,0,0.4c0,5.1,0,10.2,0,15.3
		c0,1.2-0.5,1.7-1.7,1.7c-0.3,0-0.6,0-0.9,0c0-0.2,0-0.3,0-0.4c0-4.4,0-8.9,0-13.3c0-1.3-0.9-2.5-2.5-2.5c-3.2,0-6.4,0-9.6,0
		c-1.2,0-2.1,0.6-2.3,1.7c-0.1,0.3-0.1,0.6-0.1,0.8c0,4.4,0,8.8,0,13.2C17.8,24.1,17.8,24.2,17.8,24.4z M11.5,14.1
		c1.2,0,2.4,0,3.6,0c0.7,0,1.1-0.4,1.1-1.1c0-1.1,0-2.3,0-3.4c0-0.7-0.4-1.1-1-1.1c-2.4,0-4.9,0-7.3,0c-0.6,0-1,0.4-1,1.1
		c0,1.2,0,2.3,0,3.5c0,0.7,0.4,1.1,1.1,1.1C9.2,14.1,10.3,14.1,11.5,14.1z M11.5,19.9c1.3,0,2.6,0,3.9,0c0.4,0,0.7-0.3,0.7-0.7
		c0-0.4-0.3-0.7-0.7-0.7c-2.6,0-5.2,0-7.9,0c-0.3,0-0.5,0.1-0.7,0.4c-0.2,0.5,0.1,1,0.7,1C8.9,19.9,10.2,19.9,11.5,19.9z M11.6,21.5
		c-1.3,0-2.6,0-3.9,0c-0.5,0-0.8,0.3-0.8,0.7c0,0.4,0.3,0.7,0.7,0.7c2.6,0,5.2,0,7.9,0c0.2,0,0.5-0.1,0.6-0.3c0.1-0.2,0.1-0.5,0-0.7
		c-0.1-0.3-0.4-0.4-0.7-0.4C14.2,21.5,12.9,21.5,11.6,21.5z M11.5,17c0.7,0,1.3,0,2,0c0.7,0,1.3,0,2,0c0.4,0,0.7-0.3,0.7-0.6
		c0-0.4-0.2-0.6-0.6-0.7c-0.1,0-0.2,0-0.3,0c-0.7,0-1.3,0-2,0c-1.8,0-3.6,0-5.4,0c-0.1,0-0.2,0-0.3,0c-0.4,0-0.7,0.3-0.7,0.7
		c0,0.4,0.3,0.7,0.7,0.7C8.9,17,10.2,17,11.5,17z"/>
	<linearGradient id="SVGID_3_" gradientUnits="userSpaceOnUse" x1="19.1677" y1="20.1798" x2="30.9174" y2="20.1798">
		<stop  offset="0.2593" style="stop-color:#FFDB6E"/>
		<stop  offset="1" style="stop-color:#FFBC5E"/>
	</linearGradient>
	<path style="opacity:0.15;fill:url(#SVGID_3_);enable-background:new    ;" d="M19.2,14.1c3.9,0,7.8,0,11.7,0c0,4,0,8,0,12.1
		c-3.9,0-7.8,0-11.7,0C19.2,22.2,19.2,18.2,19.2,14.1z M20.3,20.1c0,2.6,2.1,4.7,4.7,4.7c2.6,0,4.7-2.1,4.7-4.7
		c0-2.6-2.1-4.7-4.7-4.7C22.5,15.4,20.3,17.5,20.3,20.1z"/>
	<linearGradient id="SVGID_4_" gradientUnits="userSpaceOnUse" x1="19.1447" y1="11.1523" x2="30.9301" y2="11.1523">
		<stop  offset="0.2593" style="stop-color:#FFDB6E"/>
		<stop  offset="1" style="stop-color:#FFBC5E"/>
	</linearGradient>
	<path style="opacity:0.15;fill:url(#SVGID_4_);enable-background:new    ;" d="M30.9,12.8c-3.9,0-7.8,0-11.7,0c0-0.1,0-0.2,0-0.2
		c0-0.7,0-1.3,0-2c0-0.6,0.4-0.9,0.9-0.9c3.3,0,6.6,0,9.9,0c0.5,0,0.9,0.3,0.9,0.7C30.9,11.1,30.9,11.9,30.9,12.8z M25,11.9
		C25,11.9,25,11.9,25,11.9c0.1,0,0.3,0,0.4,0c0.4,0,0.6-0.3,0.7-0.7c0-0.3-0.2-0.6-0.6-0.7c-0.3,0-0.6,0-0.8,0
		c-0.4,0-0.6,0.3-0.6,0.7c0,0.3,0.3,0.6,0.6,0.6C24.8,11.9,24.9,11.9,25,11.9z"/>
	<linearGradient id="SVGID_5_" gradientUnits="userSpaceOnUse" x1="19.1471" y1="29.1406" x2="30.9236" y2="29.1406">
		<stop  offset="0.2593" style="stop-color:#FFDB6E"/>
		<stop  offset="1" style="stop-color:#FFBC5E"/>
	</linearGradient>
	<path style="opacity:0.15;fill:url(#SVGID_5_);enable-background:new    ;" d="M30.9,27.6c0,0.8,0,1.6,0,2.3c0,0.3-0.3,0.6-0.6,0.7
		c-0.2,0-0.3,0-0.5,0c-3.1,0-6.3,0-9.4,0c-0.9,0-1.2-0.3-1.2-1.2c0-0.6,0-1.2,0-1.8C23.1,27.6,27,27.6,30.9,27.6z M25.6,29.2
		c0-0.4-0.3-0.7-0.7-0.7c-0.4,0-0.7,0.3-0.7,0.7c0,0.4,0.3,0.7,0.7,0.7C25.2,29.8,25.6,29.5,25.6,29.2z"/>
	<linearGradient id="SVGID_6_" gradientUnits="userSpaceOnUse" x1="6.8785" y1="11.2734" x2="16.2061" y2="11.2734">
		<stop  offset="0.2593" style="stop-color:#FFDB6E"/>
		<stop  offset="1" style="stop-color:#FFBC5E"/>
	</linearGradient>
	<path class="st5" d="M11.5,14.1c-1.2,0-2.4,0-3.6,0c-0.7,0-1.1-0.4-1.1-1.1c0-1.2,0-2.3,0-3.5c0-0.6,0.4-1.1,1-1.1
		c2.4,0,4.9,0,7.3,0c0.7,0,1,0.4,1,1.1c0,1.1,0,2.3,0,3.4c0,0.7-0.4,1.1-1.1,1.1C13.9,14.1,12.7,14.1,11.5,14.1z M8.2,12.7
		c2.2,0,4.4,0,6.6,0c0-1,0-1.9,0-2.9c-2.2,0-4.4,0-6.6,0c0,0.9,0,1.7,0,2.5C8.2,12.5,8.2,12.6,8.2,12.7z"/>
	<linearGradient id="SVGID_7_" gradientUnits="userSpaceOnUse" x1="6.8748" y1="19.2253" x2="16.2018" y2="19.2253">
		<stop  offset="0.2593" style="stop-color:#FFDB6E"/>
		<stop  offset="1" style="stop-color:#FFBC5E"/>
	</linearGradient>
	<path class="st6" d="M11.5,19.9c-1.3,0-2.6,0-3.9,0c-0.6,0-0.9-0.5-0.7-1c0.1-0.3,0.4-0.4,0.7-0.4c2.6,0,5.2,0,7.9,0
		c0.4,0,0.7,0.3,0.7,0.7c0,0.4-0.3,0.7-0.7,0.7C14.2,19.9,12.9,19.9,11.5,19.9z"/>
	<linearGradient id="SVGID_8_" gradientUnits="userSpaceOnUse" x1="6.8842" y1="22.1643" x2="16.1564" y2="22.1643">
		<stop  offset="0.2593" style="stop-color:#FFDB6E"/>
		<stop  offset="1" style="stop-color:#FFBC5E"/>
	</linearGradient>
	<path class="st7" d="M11.6,21.5c1.3,0,2.6,0,3.9,0c0.3,0,0.6,0.1,0.7,0.4c0.1,0.2,0.1,0.5,0,0.7c-0.1,0.2-0.4,0.3-0.6,0.3
		c-2.6,0-5.2,0-7.9,0c-0.4,0-0.7-0.3-0.7-0.7c0-0.4,0.3-0.7,0.8-0.7C9,21.5,10.3,21.5,11.6,21.5z"/>
	<linearGradient id="SVGID_9_" gradientUnits="userSpaceOnUse" x1="6.8841" y1="16.2884" x2="16.2019" y2="16.2884">
		<stop  offset="0.2593" style="stop-color:#FFDB6E"/>
		<stop  offset="1" style="stop-color:#FFBC5E"/>
	</linearGradient>
	<path class="st8" d="M11.5,17c-1.3,0-2.6,0-3.9,0c-0.4,0-0.7-0.3-0.7-0.7c0-0.4,0.3-0.7,0.7-0.7c0.1,0,0.2,0,0.3,0
		c1.8,0,3.6,0,5.4,0c0.7,0,1.3,0,2,0c0.1,0,0.2,0,0.3,0c0.4,0,0.6,0.3,0.6,0.7c0,0.4-0.3,0.6-0.7,0.6c-0.7,0-1.3,0-2,0
		C12.9,17,12.2,17,11.5,17z"/>
	<linearGradient id="SVGID_10_" gradientUnits="userSpaceOnUse" x1="23.6161" y1="3.4887" x2="33.1782" y2="3.4887">
		<stop  offset="0.2593" style="stop-color:#FFDB6E"/>
		<stop  offset="1" style="stop-color:#FFBC5E"/>
	</linearGradient>
	<path class="st9" d="M28.4,2.8c1.4,0,2.7,0,4.1,0c0.4,0,0.7,0.3,0.7,0.7c0,0.4-0.3,0.6-0.7,0.7c-0.1,0-0.2,0-0.3,0
		c-2.5,0-5.1,0-7.6,0c-0.1,0-0.2,0-0.3,0c-0.4,0-0.7-0.3-0.7-0.7c0-0.4,0.3-0.7,0.7-0.7C25.7,2.8,27,2.8,28.4,2.8z"/>
	<linearGradient id="SVGID_11_" gradientUnits="userSpaceOnUse" x1="11.9288" y1="3.4855" x2="13.3279" y2="3.4855">
		<stop  offset="0.2593" style="stop-color:#FFDB6E"/>
		<stop  offset="1" style="stop-color:#FFBC5E"/>
	</linearGradient>
	<path class="st10" d="M12.6,4.2c-0.4,0-0.7-0.3-0.7-0.7c0-0.4,0.3-0.7,0.7-0.7c0.4,0,0.7,0.3,0.7,0.7C13.3,3.9,13,4.2,12.6,4.2z"/>
	<linearGradient id="SVGID_12_" gradientUnits="userSpaceOnUse" x1="6.8848" y1="3.4852" x2="8.2803" y2="3.4852">
		<stop  offset="0.2593" style="stop-color:#FFDB6E"/>
		<stop  offset="1" style="stop-color:#FFBC5E"/>
	</linearGradient>
	<path style="fill:url(#SVGID_12_);" d="M8.3,3.5c0,0.4-0.3,0.7-0.7,0.7c-0.4,0-0.7-0.4-0.7-0.7c0-0.4,0.4-0.7,0.7-0.7
		C8,2.8,8.3,3.1,8.3,3.5z"/>
	<linearGradient id="SVGID_13_" gradientUnits="userSpaceOnUse" x1="9.4083" y1="3.4857" x2="10.8023" y2="3.4857">
		<stop  offset="0.2593" style="stop-color:#FFDB6E"/>
		<stop  offset="1" style="stop-color:#FFBC5E"/>
	</linearGradient>
	<path class="st12" d="M10.1,4.2c-0.4,0-0.7-0.3-0.7-0.7c0-0.4,0.3-0.7,0.7-0.7c0.4,0,0.7,0.3,0.7,0.7C10.8,3.9,10.5,4.2,10.1,4.2z"
		/>
	<linearGradient id="SVGID_14_" gradientUnits="userSpaceOnUse" x1="20.3418" y1="20.1017" x2="29.7506" y2="20.1017">
		<stop  offset="0.2593" style="stop-color:#FFDB6E"/>
		<stop  offset="1" style="stop-color:#FFBC5E"/>
	</linearGradient>
	<path style="fill:url(#SVGID_14_);" d="M20.3,20.1c0-2.6,2.1-4.7,4.7-4.7c2.6,0,4.7,2.1,4.7,4.7c0,2.6-2.1,4.7-4.7,4.7
		C22.4,24.8,20.3,22.7,20.3,20.1z M28.4,20.1c0-1.9-1.5-3.4-3.3-3.4c-1.9,0-3.4,1.5-3.4,3.4c0,1.8,1.5,3.4,3.4,3.4
		C26.9,23.5,28.4,22,28.4,20.1z"/>
	<linearGradient id="SVGID_15_" gradientUnits="userSpaceOnUse" x1="24.0448" y1="11.2022" x2="26.0531" y2="11.2022">
		<stop  offset="0.2593" style="stop-color:#FFDB6E"/>
		<stop  offset="1" style="stop-color:#FFBC5E"/>
	</linearGradient>
	<path style="fill:url(#SVGID_15_);" d="M25,11.9c-0.1,0-0.3,0-0.4,0c-0.3,0-0.6-0.3-0.6-0.6c0-0.4,0.2-0.7,0.6-0.7
		c0.3,0,0.6,0,0.8,0c0.4,0,0.6,0.3,0.6,0.7c0,0.4-0.3,0.6-0.7,0.7C25.3,11.9,25.2,11.9,25,11.9C25,11.9,25,11.9,25,11.9z"/>
	<linearGradient id="SVGID_16_" gradientUnits="userSpaceOnUse" x1="24.1755" y1="29.1387" x2="25.5769" y2="29.1387">
		<stop  offset="0.2593" style="stop-color:#FFDB6E"/>
		<stop  offset="1" style="stop-color:#FFBC5E"/>
	</linearGradient>
	<path class="st15" d="M25.6,29.2c0,0.4-0.3,0.7-0.7,0.7c-0.4,0-0.7-0.4-0.7-0.7c0-0.4,0.4-0.7,0.7-0.7
		C25.3,28.4,25.6,28.8,25.6,29.2z"/>
	<linearGradient id="SVGID_17_" gradientUnits="userSpaceOnUse" x1="8.2212" y1="11.2715" x2="14.8355" y2="11.2715">
		<stop  offset="0.2593" style="stop-color:#FFDB6E"/>
		<stop  offset="1" style="stop-color:#FFBC5E"/>
	</linearGradient>
	<path style="opacity:0.15;fill:url(#SVGID_17_);enable-background:new    ;" d="M8.2,12.7c0-0.1,0-0.2,0-0.3c0-0.8,0-1.7,0-2.5
		c2.2,0,4.4,0,6.6,0c0,1,0,1.9,0,2.9C12.6,12.7,10.4,12.7,8.2,12.7z"/>
	<linearGradient id="SVGID_18_" gradientUnits="userSpaceOnUse" x1="21.6838" y1="20.1059" x2="28.3967" y2="20.1059">
		<stop  offset="0.2593" style="stop-color:#FFDB6E"/>
		<stop  offset="1" style="stop-color:#FFBC5E"/>
	</linearGradient>
	<path style="opacity:0.15;fill:url(#SVGID_18_);enable-background:new    ;" d="M28.4,20.1c0,1.9-1.5,3.4-3.4,3.4
		c-1.8,0-3.4-1.5-3.4-3.4c0-1.9,1.5-3.4,3.4-3.4C26.9,16.8,28.4,18.3,28.4,20.1z M24.5,20.1c-0.1-0.1-0.1-0.1-0.1-0.1
		c-0.3-0.3-0.7-0.4-1-0.2c-0.3,0.2-0.3,0.6-0.1,1c0.2,0.2,0.3,0.4,0.5,0.6c0.3,0.4,0.7,0.5,1.1,0.1c0.6-0.5,1.1-1,1.7-1.5
		c0.4-0.3,0.4-0.7,0.2-1c-0.3-0.3-0.7-0.3-1,0C25.3,19.3,24.9,19.7,24.5,20.1z"/>
	<linearGradient id="SVGID_19_" gradientUnits="userSpaceOnUse" x1="23.1711" y1="20.2524" x2="26.9317" y2="20.2524">
		<stop  offset="0.2593" style="stop-color:#FFDB6E"/>
		<stop  offset="1" style="stop-color:#FFBC5E"/>
	</linearGradient>
	<path class="st18" d="M24.5,20.1c0.4-0.4,0.8-0.7,1.2-1c0.4-0.3,0.8-0.3,1,0c0.3,0.3,0.2,0.7-0.2,1c-0.6,0.5-1.1,1-1.7,1.5
		c-0.4,0.3-0.8,0.3-1.1-0.1c-0.2-0.2-0.3-0.4-0.5-0.6c-0.3-0.4-0.2-0.8,0.1-1c0.3-0.2,0.7-0.2,1,0.2C24.4,20,24.5,20,24.5,20.1z"/>
</g>
</svg>
