<?xml version="1.0" encoding="utf-8"?>
<!-- Generator: Adobe Illustrator 25.0.1, SVG Export Plug-In . SVG Version: 6.00 Build 0)  -->
<svg version="1.1" id="Layer_1" xmlns="http://www.w3.org/2000/svg" xmlns:xlink="http://www.w3.org/1999/xlink" x="0px" y="0px"
	 viewBox="0 0 40 32" style="enable-background:new 0 0 40 32;" xml:space="preserve">
<style type="text/css">
	.st0{opacity:0.15;fill-rule:evenodd;clip-rule:evenodd;fill:url(#SVGID_1_);enable-background:new    ;}
	.st1{fill:url(#SVGID_2_);}
	.st2{fill:url(#SVGID_3_);}
	.st3{fill:url(#SVGID_4_);}
	.st4{fill:url(#SVGID_5_);}
	.st5{fill:url(#SVGID_6_);}
	.st6{fill:url(#SVGID_7_);}
	.st7{fill:url(#SVGID_8_);}
	.st8{fill:url(#SVGID_9_);}
	.st9{fill:url(#SVGID_10_);}
	.st10{fill:url(#SVGID_11_);}
	.st11{opacity:0.15;fill:url(#SVGID_12_);enable-background:new    ;}
	.st12{fill:url(#SVGID_13_);}
	.st13{opacity:0.15;fill:url(#SVGID_14_);enable-background:new    ;}
	.st14{opacity:0.15;fill:url(#SVGID_15_);enable-background:new    ;}
	.st15{fill:url(#SVGID_16_);}
	.st16{fill:url(#SVGID_17_);}
	.st17{fill:url(#SVGID_18_);}
	.st18{fill:url(#SVGID_19_);}
	.st19{fill:url(#SVGID_20_);}
	.st20{fill:url(#SVGID_21_);}
	.st21{fill:url(#SVGID_22_);}
	.st22{fill:url(#SVGID_23_);}
	.st23{fill:url(#SVGID_24_);}
	.st24{opacity:0.15;fill:url(#SVGID_25_);enable-background:new    ;}
	.st25{opacity:0.15;fill:url(#SVGID_26_);enable-background:new    ;}
	.st26{opacity:0.15;fill:url(#SVGID_27_);enable-background:new    ;}
	.st27{fill:url(#SVGID_28_);}
	.st28{fill:url(#SVGID_29_);}
	.st29{opacity:0.15;fill:url(#SVGID_30_);enable-background:new    ;}
	.st30{opacity:0.15;fill:url(#SVGID_31_);enable-background:new    ;}
	.st31{opacity:0.15;fill:url(#SVGID_32_);enable-background:new    ;}
	.st32{opacity:0.15;fill:url(#SVGID_33_);enable-background:new    ;}
	.st33{opacity:0.15;fill:url(#SVGID_34_);enable-background:new    ;}
	.st34{opacity:0.15;fill:url(#SVGID_35_);enable-background:new    ;}
	.st35{opacity:0.15;fill:url(#SVGID_36_);enable-background:new    ;}
	.st36{opacity:0.15;fill:url(#SVGID_37_);enable-background:new    ;}
	.st37{opacity:0.15;fill:url(#SVGID_38_);enable-background:new    ;}
	.st38{fill:url(#SVGID_39_);}
	.st39{opacity:0.15;fill:url(#SVGID_40_);enable-background:new    ;}
	.st40{opacity:0.15;fill:url(#SVGID_41_);enable-background:new    ;}
	.st41{fill:url(#SVGID_42_);}
	.st42{fill:url(#SVGID_43_);}
	.st43{fill:url(#SVGID_44_);}
	.st44{fill:url(#SVGID_45_);}
	.st45{fill:url(#SVGID_46_);}
	.st46{fill:url(#SVGID_47_);}
	.st47{fill:url(#SVGID_48_);}
	.st48{opacity:0.15;fill:url(#SVGID_49_);enable-background:new    ;}
	.st49{opacity:0.15;fill:url(#SVGID_50_);enable-background:new    ;}
	.st50{fill:url(#SVGID_51_);}
	.st51{fill:url(#SVGID_52_);}
	.st52{fill:url(#SVGID_53_);}
	.st53{fill:url(#SVGID_54_);}
	.st54{opacity:0.15;fill:url(#SVGID_55_);enable-background:new    ;}
	.st55{opacity:0.15;fill:url(#SVGID_56_);enable-background:new    ;}
	.st56{opacity:0.15;fill:url(#SVGID_57_);enable-background:new    ;}
	.st57{opacity:0.15;fill:url(#SVGID_58_);enable-background:new    ;}
	.st58{opacity:0.15;fill:url(#SVGID_59_);enable-background:new    ;}
	.st59{opacity:0.15;fill:url(#SVGID_60_);enable-background:new    ;}
	.st60{opacity:0.15;fill:url(#SVGID_61_);enable-background:new    ;}
	.st61{opacity:0.15;fill:url(#SVGID_62_);enable-background:new    ;}
	.st62{opacity:0.15;fill:url(#SVGID_63_);enable-background:new    ;}
	.st63{opacity:0.15;fill:url(#SVGID_64_);enable-background:new    ;}
	.st64{opacity:0.15;fill:url(#SVGID_65_);enable-background:new    ;}
	.st65{fill:url(#SVGID_66_);}
	.st66{fill:url(#SVGID_67_);}
	.st67{fill:url(#SVGID_68_);}
	.st68{fill:url(#SVGID_69_);}
	.st69{fill:url(#SVGID_70_);}
	.st70{fill:url(#SVGID_71_);}
	.st71{fill:url(#SVGID_72_);}
	.st72{fill:url(#SVGID_73_);}
	.st73{fill:url(#SVGID_74_);}
	.st74{fill:url(#SVGID_75_);}
	.st75{fill:url(#SVGID_76_);}
	.st76{fill:url(#SVGID_77_);}
	.st77{fill:url(#SVGID_78_);}
	.st78{fill:url(#SVGID_79_);}
	.st79{opacity:0.15;fill:url(#SVGID_80_);enable-background:new    ;}
	.st80{opacity:0.15;fill:url(#SVGID_81_);enable-background:new    ;}
	.st81{opacity:0.15;fill:url(#SVGID_82_);enable-background:new    ;}
	.st82{opacity:0.15;fill:url(#SVGID_83_);enable-background:new    ;}
	.st83{fill:url(#SVGID_84_);}
	.st84{fill:url(#SVGID_85_);}
	.st85{fill:url(#SVGID_86_);}
	.st86{fill:url(#SVGID_87_);}
	.st87{fill:url(#SVGID_88_);}
	.st88{fill:url(#SVGID_89_);}
	.st89{fill:url(#SVGID_90_);}
	.st90{fill:url(#SVGID_91_);}
	.st91{fill:url(#SVGID_92_);}
	.st92{fill:url(#SVGID_93_);}
	.st93{fill:url(#SVGID_94_);}
	.st94{opacity:0.15;fill:url(#SVGID_95_);enable-background:new    ;}
	.st95{opacity:0.15;fill:url(#SVGID_96_);enable-background:new    ;}
	.st96{fill:url(#SVGID_97_);}
	.st97{fill:url(#SVGID_98_);}
	.st98{opacity:0.15;fill:url(#SVGID_99_);enable-background:new    ;}
	.st99{opacity:0.15;fill:url(#SVGID_100_);enable-background:new    ;}
	.st100{opacity:0.15;fill:url(#SVGID_101_);enable-background:new    ;}
	.st101{opacity:0.15;fill:url(#SVGID_102_);enable-background:new    ;}
	.st102{opacity:0.15;fill:url(#SVGID_103_);enable-background:new    ;}
	.st103{fill:url(#SVGID_104_);}
	.st104{fill:url(#SVGID_105_);}
	.st105{fill:url(#SVGID_106_);}
	.st106{opacity:0.15;fill:url(#SVGID_107_);enable-background:new    ;}
	.st107{opacity:0.15;fill:url(#SVGID_108_);enable-background:new    ;}
	.st108{opacity:0.15;fill:url(#SVGID_109_);enable-background:new    ;}
</style>
<g>
	<linearGradient id="SVGID_1_" gradientUnits="userSpaceOnUse" x1="7.280565e-02" y1="15.957" x2="40.0203" y2="15.957">
		<stop  offset="0.2593" style="stop-color:#FFDB6E"/>
		<stop  offset="1" style="stop-color:#FFBC5E"/>
	</linearGradient>
	<path style="fill:url(#SVGID_1_);" d="M4.5,9c0-1.2,0-2.4,0-3.5c0-0.8,0.1-1,1-1c1.2,0,2.3,0,3.5,0C9,4.3,9,4.1,9,4
		c0-1.1,0-2.2,0-3.3C9,0.2,9.2,0,9.7,0c0.1,0,0.1,0,0.2,0c9.7,0,19.5,0,29.2,0c0.1,0,0.3,0,0.4,0c0.2,0.1,0.3,0.3,0.5,0.5
		c0.1,0.1,0,0.3,0,0.4c0,7.1,0,14.1,0,21.2c0,0.8-0.1,0.9-0.9,0.9c-1,0-2.1,0-3.1,0c-0.1,0-0.3,0-0.4,0c0,0.5,0,1,0,1.5
		c0,0.8,0,1.5,0,2.3c0,0.5-0.2,0.7-0.7,0.7c-1.1,0-2.2,0-3.3,0c-0.1,0-0.3,0-0.5,0c0,0.4,0,0.8,0,1.2c0,0.9,0,1.7,0,2.6
		c0,0.5-0.2,0.7-0.7,0.7c-0.1,0-0.2,0-0.2,0c-9.7,0-19.4,0-29.1,0c-0.8,0-1-0.1-1-0.9c0-7.1,0-14.1,0-21.2C0.1,9.1,0.2,9,1,9
		C2.1,9,3.3,9,4.5,9z M1.2,30.8c9.6,0,19.1,0,28.7,0c0-6.9,0-13.8,0-20.7c-9.6,0-19.1,0-28.7,0C1.2,17,1.2,23.9,1.2,30.8z
		 M34.4,26.3c0-6.9,0-13.8,0-20.7c-9.6,0-19.1,0-28.7,0c0,1.1,0,2.2,0,3.3C5.9,9,6,9,6.2,9c8,0,16,0,24,0c0.8,0,0.9,0.1,0.9,0.9
		c0,5.3,0,10.6,0,15.9c0,0.2,0,0.3,0,0.5C32.2,26.3,33.3,26.3,34.4,26.3z M10.1,4.5c0.2,0,0.4,0,0.6,0c8,0,15.9,0,23.9,0
		c0.8,0,0.9,0.1,0.9,0.9c0,5.3,0,10.6,0,15.9c0,0.2,0,0.3,0,0.5c1.1,0,2.2,0,3.3,0c0-6.9,0-13.8,0-20.7c-9.6,0-19.1,0-28.7,0
		C10.1,2.2,10.1,3.3,10.1,4.5z"/>
	<linearGradient id="SVGID_2_" gradientUnits="userSpaceOnUse" x1="5.6861" y1="15.9666" x2="34.3902" y2="15.9666">
		<stop  offset="0.2593" style="stop-color:#FFDB6E"/>
		<stop  offset="1" style="stop-color:#FFBC5E"/>
	</linearGradient>
	<path style="opacity:0.15;fill:url(#SVGID_2_);enable-background:new    ;" d="M34.4,26.3c-1.1,0-2.2,0-3.3,0c0-0.2,0-0.3,0-0.5
		c0-5.3,0-10.6,0-15.9C31.1,9.1,31,9,30.2,9c-8,0-16,0-24,0C6,9,5.9,9,5.7,9c0-1.1,0-2.2,0-3.3c9.6,0,19.1,0,28.7,0
		C34.4,12.5,34.4,19.4,34.4,26.3z"/>
	<linearGradient id="SVGID_3_" gradientUnits="userSpaceOnUse" x1="10.1413" y1="11.4666" x2="38.8543" y2="11.4666">
		<stop  offset="0.2593" style="stop-color:#FFDB6E"/>
		<stop  offset="1" style="stop-color:#FFBC5E"/>
	</linearGradient>
	<path style="opacity:0.15;fill:url(#SVGID_3_);enable-background:new    ;" d="M10.1,4.5c0-1.1,0-2.2,0-3.3c9.6,0,19.1,0,28.7,0
		c0,6.9,0,13.8,0,20.7c-1.1,0-2.2,0-3.3,0c0-0.2,0-0.3,0-0.5c0-5.3,0-10.6,0-15.9c0-0.8-0.1-0.9-0.9-0.9c-8,0-15.9,0-23.9,0
		C10.5,4.5,10.4,4.5,10.1,4.5z"/>
	<linearGradient id="SVGID_4_" gradientUnits="userSpaceOnUse" x1="3.9528" y1="16.6567" x2="14.6289" y2="16.6567">
		<stop  offset="0.2593" style="stop-color:#FFDB6E"/>
		<stop  offset="1" style="stop-color:#FFBC5E"/>
	</linearGradient>
	<path class="st3" d="M9.3,22c-2.9,0-5.4-2.4-5.3-5.4c0-2.9,2.4-5.3,5.3-5.3c2.9,0,5.3,2.4,5.3,5.4C14.6,19.6,12.2,22,9.3,22z
		 M8.7,12.5c-2.1,0.3-3.8,2.2-3.6,4.3c0.1,2.3,1.9,4,4.2,4.1c2.1,0,4-1.7,4.1-3.6c-0.1,0-0.3,0-0.4,0c-1.1,0-2.3,0-3.4,0
		c-0.7,0-0.8-0.2-0.8-0.8c0-0.5,0-1,0-1.5C8.7,14.1,8.7,13.3,8.7,12.5z M13.4,16.1c-0.1-1.7-2-3.6-3.5-3.5c0,1.2,0,2.3,0,3.5
		C11.1,16.1,12.2,16.1,13.4,16.1z"/>
	<linearGradient id="SVGID_5_" gradientUnits="userSpaceOnUse" x1="3.2305" y1="24.4385" x2="27.8344" y2="24.4385">
		<stop  offset="0.2593" style="stop-color:#FFDB6E"/>
		<stop  offset="1" style="stop-color:#FFBC5E"/>
	</linearGradient>
	<path class="st4" d="M15.5,25c-3.8,0-7.6,0-11.4,0c-0.6,0-0.9-0.2-0.9-0.6c0-0.4,0.3-0.6,0.9-0.6c7.6,0,15.2,0,22.7,0
		c0.2,0,0.3,0,0.5,0c0.3,0.1,0.4,0.3,0.4,0.6c0,0.3-0.2,0.5-0.5,0.5c-0.1,0-0.3,0-0.4,0C23.1,25,19.3,25,15.5,25z"/>
	<linearGradient id="SVGID_6_" gradientUnits="userSpaceOnUse" x1="3.2366" y1="27.4684" x2="27.8345" y2="27.4684">
		<stop  offset="0.2593" style="stop-color:#FFDB6E"/>
		<stop  offset="1" style="stop-color:#FFBC5E"/>
	</linearGradient>
	<path class="st5" d="M15.5,26.9c3.8,0,7.6,0,11.4,0c0.1,0,0.2,0,0.4,0c0.3,0,0.5,0.2,0.5,0.5c0,0.3-0.2,0.5-0.5,0.6
		c-0.1,0-0.3,0-0.4,0c-7.6,0-15.3,0-22.9,0c-0.1,0-0.3,0-0.4,0c-0.3-0.1-0.5-0.3-0.4-0.6c0-0.3,0.2-0.5,0.5-0.5c0.1,0,0.2,0,0.4,0
		C7.9,26.9,11.7,26.9,15.5,26.9z"/>
	<linearGradient id="SVGID_7_" gradientUnits="userSpaceOnUse" x1="16.3642" y1="18.3999" x2="27.8397" y2="18.3999">
		<stop  offset="0.2593" style="stop-color:#FFDB6E"/>
		<stop  offset="1" style="stop-color:#FFBC5E"/>
	</linearGradient>
	<path class="st6" d="M22.1,19c-1.6,0-3.3,0-4.9,0c-0.2,0-0.4,0-0.5-0.1c-0.1-0.1-0.3-0.3-0.2-0.5c0-0.2,0.2-0.4,0.4-0.5
		c0.1-0.1,0.3-0.1,0.5-0.1c3.3,0,6.5,0,9.8,0c0.1,0,0.2,0,0.2,0c0.4,0,0.6,0.2,0.6,0.6c0,0.3-0.2,0.6-0.6,0.6c-1.4,0-2.8,0-4.2,0
		C22.7,19,22.4,19,22.1,19z"/>
	<linearGradient id="SVGID_8_" gradientUnits="userSpaceOnUse" x1="16.3545" y1="12.3599" x2="27.8344" y2="12.3599">
		<stop  offset="0.2593" style="stop-color:#FFDB6E"/>
		<stop  offset="1" style="stop-color:#FFBC5E"/>
	</linearGradient>
	<path class="st7" d="M22.1,12.9c-1.6,0-3.2,0-4.8,0c-0.1,0-0.3,0-0.4,0c-0.3-0.1-0.5-0.3-0.4-0.5c0-0.2,0.2-0.4,0.4-0.5
		c0.1-0.1,0.3,0,0.4,0c3.3,0,6.5,0,9.8,0c0.1,0,0.3,0,0.4,0c0.3,0.1,0.4,0.3,0.4,0.6c0,0.3-0.2,0.5-0.5,0.5c-0.4,0-0.7,0-1.1,0
		C24.9,12.9,23.5,12.9,22.1,12.9z"/>
	<linearGradient id="SVGID_9_" gradientUnits="userSpaceOnUse" x1="16.3474" y1="15.3897" x2="27.8394" y2="15.3897">
		<stop  offset="0.2593" style="stop-color:#FFDB6E"/>
		<stop  offset="1" style="stop-color:#FFBC5E"/>
	</linearGradient>
	<path class="st8" d="M22.1,14.8c1.7,0,3.4,0,5.1,0c0.4,0,0.6,0.2,0.6,0.6c0,0.3-0.3,0.5-0.6,0.6c-0.1,0-0.2,0-0.3,0
		c-1.4,0-2.7,0-4.1,0c-1.9,0-3.8,0-5.7,0c-0.1,0-0.3,0-0.4,0c-0.3-0.1-0.5-0.3-0.5-0.6c0-0.3,0.2-0.5,0.5-0.5c0.1,0,0.2,0,0.4,0
		C18.8,14.8,20.5,14.8,22.1,14.8z"/>
	<linearGradient id="SVGID_10_" gradientUnits="userSpaceOnUse" x1="16.3385" y1="21.4282" x2="27.8083" y2="21.4282">
		<stop  offset="0.2593" style="stop-color:#FFDB6E"/>
		<stop  offset="1" style="stop-color:#FFBC5E"/>
	</linearGradient>
	<path class="st9" d="M22.1,20.9c1.7,0,3.4,0,5.1,0c0.2,0,0.5,0.1,0.6,0.3c0.1,0.1,0.1,0.4,0,0.5c-0.1,0.2-0.4,0.3-0.6,0.3
		c-1.8,0-3.6,0-5.4,0c-1.6,0-3.1,0-4.7,0c-0.3,0-0.6-0.1-0.7-0.4c-0.1-0.4,0.2-0.7,0.6-0.7C18.7,20.9,20.4,20.9,22.1,20.9z"/>
	<linearGradient id="SVGID_11_" gradientUnits="userSpaceOnUse" x1="5.0862" y1="16.6897" x2="13.4209" y2="16.6897">
		<stop  offset="0.2593" style="stop-color:#FFDB6E"/>
		<stop  offset="1" style="stop-color:#FFBC5E"/>
	</linearGradient>
	<path style="opacity:0.15;fill:url(#SVGID_11_);enable-background:new    ;" d="M8.7,12.5c0,0.8,0,1.6,0,2.4c0,0.5,0,1,0,1.5
		c0,0.7,0.2,0.8,0.8,0.8c1.1,0,2.3,0,3.4,0c0.1,0,0.3,0,0.4,0c-0.1,2-2.1,3.6-4.1,3.6c-2.2,0-4-1.8-4.2-4.1
		C5,14.7,6.6,12.8,8.7,12.5z"/>
	<linearGradient id="SVGID_12_" gradientUnits="userSpaceOnUse" x1="9.8811" y1="14.3123" x2="13.4127" y2="14.3123">
		<stop  offset="0.2593" style="stop-color:#FFDB6E"/>
		<stop  offset="1" style="stop-color:#FFBC5E"/>
	</linearGradient>
	<path class="st11" d="M13.4,16.1c-1.2,0-2.3,0-3.5,0c0-1.2,0-2.3,0-3.5C11.4,12.5,13.3,14.4,13.4,16.1z"/>
</g>
</svg>
