<?xml version="1.0" encoding="utf-8"?>
<!-- Generator: Adobe Illustrator 25.0.1, SVG Export Plug-In . SVG Version: 6.00 Build 0)  -->
<svg version="1.1" id="Layer_1" xmlns="http://www.w3.org/2000/svg" xmlns:xlink="http://www.w3.org/1999/xlink" x="0px" y="0px"
	 viewBox="0 0 40 32" style="enable-background:new 0 0 40 32;" xml:space="preserve">
<style type="text/css">
	.st0{opacity:0.15;fill-rule:evenodd;clip-rule:evenodd;fill:url(#SVGID_1_);enable-background:new    ;}
	.st1{fill:url(#SVGID_2_);}
	.st2{fill:url(#SVGID_3_);}
	.st3{fill:url(#SVGID_4_);}
	.st4{fill:url(#SVGID_5_);}
	.st5{fill:url(#SVGID_6_);}
	.st6{fill:url(#SVGID_7_);}
	.st7{fill:url(#SVGID_8_);}
	.st8{fill:url(#SVGID_9_);}
	.st9{fill:url(#SVGID_10_);}
	.st10{fill:url(#SVGID_11_);}
	.st11{opacity:0.15;fill:url(#SVGID_12_);enable-background:new    ;}
	.st12{fill:url(#SVGID_13_);}
	.st13{opacity:0.15;fill:url(#SVGID_14_);enable-background:new    ;}
	.st14{opacity:0.15;fill:url(#SVGID_15_);enable-background:new    ;}
	.st15{fill:url(#SVGID_16_);}
	.st16{fill:url(#SVGID_17_);}
	.st17{fill:url(#SVGID_18_);}
	.st18{fill:url(#SVGID_19_);}
	.st19{fill:url(#SVGID_20_);}
	.st20{fill:url(#SVGID_21_);}
	.st21{fill:url(#SVGID_22_);}
	.st22{fill:url(#SVGID_23_);}
	.st23{fill:url(#SVGID_24_);}
	.st24{opacity:0.15;fill:url(#SVGID_25_);enable-background:new    ;}
	.st25{opacity:0.15;fill:url(#SVGID_26_);enable-background:new    ;}
	.st26{opacity:0.15;fill:url(#SVGID_27_);enable-background:new    ;}
	.st27{fill:url(#SVGID_28_);}
	.st28{fill:url(#SVGID_29_);}
	.st29{opacity:0.15;fill:url(#SVGID_30_);enable-background:new    ;}
	.st30{opacity:0.15;fill:url(#SVGID_31_);enable-background:new    ;}
	.st31{opacity:0.15;fill:url(#SVGID_32_);enable-background:new    ;}
	.st32{opacity:0.15;fill:url(#SVGID_33_);enable-background:new    ;}
	.st33{opacity:0.15;fill:url(#SVGID_34_);enable-background:new    ;}
	.st34{opacity:0.15;fill:url(#SVGID_35_);enable-background:new    ;}
	.st35{opacity:0.15;fill:url(#SVGID_36_);enable-background:new    ;}
	.st36{opacity:0.15;fill:url(#SVGID_37_);enable-background:new    ;}
	.st37{opacity:0.15;fill:url(#SVGID_38_);enable-background:new    ;}
	.st38{fill:url(#SVGID_39_);}
	.st39{opacity:0.15;fill:url(#SVGID_40_);enable-background:new    ;}
	.st40{opacity:0.15;fill:url(#SVGID_41_);enable-background:new    ;}
	.st41{fill:url(#SVGID_42_);}
	.st42{fill:url(#SVGID_43_);}
	.st43{fill:url(#SVGID_44_);}
	.st44{fill:url(#SVGID_45_);}
	.st45{fill:url(#SVGID_46_);}
	.st46{fill:url(#SVGID_47_);}
	.st47{fill:url(#SVGID_48_);}
	.st48{opacity:0.15;fill:url(#SVGID_49_);enable-background:new    ;}
	.st49{opacity:0.15;fill:url(#SVGID_50_);enable-background:new    ;}
	.st50{fill:url(#SVGID_51_);}
	.st51{fill:url(#SVGID_52_);}
	.st52{fill:url(#SVGID_53_);}
	.st53{fill:url(#SVGID_54_);}
	.st54{opacity:0.15;fill:url(#SVGID_55_);enable-background:new    ;}
	.st55{opacity:0.15;fill:url(#SVGID_56_);enable-background:new    ;}
	.st56{opacity:0.15;fill:url(#SVGID_57_);enable-background:new    ;}
	.st57{opacity:0.15;fill:url(#SVGID_58_);enable-background:new    ;}
	.st58{opacity:0.15;fill:url(#SVGID_59_);enable-background:new    ;}
	.st59{opacity:0.15;fill:url(#SVGID_60_);enable-background:new    ;}
	.st60{opacity:0.15;fill:url(#SVGID_61_);enable-background:new    ;}
	.st61{opacity:0.15;fill:url(#SVGID_62_);enable-background:new    ;}
	.st62{opacity:0.15;fill:url(#SVGID_63_);enable-background:new    ;}
	.st63{opacity:0.15;fill:url(#SVGID_64_);enable-background:new    ;}
	.st64{opacity:0.15;fill:url(#SVGID_65_);enable-background:new    ;}
	.st65{fill:url(#SVGID_66_);}
	.st66{fill:url(#SVGID_67_);}
	.st67{fill:url(#SVGID_68_);}
	.st68{fill:url(#SVGID_69_);}
	.st69{fill:url(#SVGID_70_);}
	.st70{fill:url(#SVGID_71_);}
	.st71{fill:url(#SVGID_72_);}
	.st72{fill:url(#SVGID_73_);}
	.st73{fill:url(#SVGID_74_);}
	.st74{fill:url(#SVGID_75_);}
	.st75{fill:url(#SVGID_76_);}
	.st76{fill:url(#SVGID_77_);}
	.st77{fill:url(#SVGID_78_);}
	.st78{fill:url(#SVGID_79_);}
	.st79{opacity:0.15;fill:url(#SVGID_80_);enable-background:new    ;}
	.st80{opacity:0.15;fill:url(#SVGID_81_);enable-background:new    ;}
	.st81{opacity:0.15;fill:url(#SVGID_82_);enable-background:new    ;}
	.st82{opacity:0.15;fill:url(#SVGID_83_);enable-background:new    ;}
	.st83{fill:url(#SVGID_84_);}
	.st84{fill:url(#SVGID_85_);}
	.st85{fill:url(#SVGID_86_);}
	.st86{fill:url(#SVGID_87_);}
	.st87{fill:url(#SVGID_88_);}
	.st88{fill:url(#SVGID_89_);}
	.st89{fill:url(#SVGID_90_);}
	.st90{fill:url(#SVGID_91_);}
	.st91{fill:url(#SVGID_92_);}
	.st92{fill:url(#SVGID_93_);}
	.st93{fill:url(#SVGID_94_);}
	.st94{opacity:0.15;fill:url(#SVGID_95_);enable-background:new    ;}
	.st95{opacity:0.15;fill:url(#SVGID_96_);enable-background:new    ;}
	.st96{fill:url(#SVGID_97_);}
	.st97{fill:url(#SVGID_98_);}
	.st98{opacity:0.15;fill:url(#SVGID_99_);enable-background:new    ;}
	.st99{opacity:0.15;fill:url(#SVGID_100_);enable-background:new    ;}
	.st100{opacity:0.15;fill:url(#SVGID_101_);enable-background:new    ;}
	.st101{opacity:0.15;fill:url(#SVGID_102_);enable-background:new    ;}
	.st102{opacity:0.15;fill:url(#SVGID_103_);enable-background:new    ;}
	.st103{fill:url(#SVGID_104_);}
	.st104{fill:url(#SVGID_105_);}
	.st105{fill:url(#SVGID_106_);}
	.st106{opacity:0.15;fill:url(#SVGID_107_);enable-background:new    ;}
	.st107{opacity:0.15;fill:url(#SVGID_108_);enable-background:new    ;}
	.st108{opacity:0.15;fill:url(#SVGID_109_);enable-background:new    ;}
</style>
<g>
	<linearGradient id="SVGID_1_" gradientUnits="userSpaceOnUse" x1="2.2681" y1="16.0403" x2="37.7951" y2="16.0403">
		<stop  offset="0.2593" style="stop-color:#FFDB6E"/>
		<stop  offset="1" style="stop-color:#FFBC5E"/>
	</linearGradient>
	<path style="fill:url(#SVGID_1_);" d="M25.2,26.1c0.2,0.5,0.4,0.9,0.7,1.3c0.3,0.7,0.7,1.3,1,2c0.6,1.3-0.2,2.6-1.6,2.6
		c-1.4,0-2.8,0-4.2,0C19.1,32,17,32,15,32c-1.5,0-2.6-1.4-1.7-2.8c0.5-0.9,0.9-1.8,1.4-2.7c0.1-0.1,0.1-0.2,0.2-0.4
		c-0.2,0-0.3,0-0.4,0c-3,0-5.9,0-8.9,0c-1.9,0-3.2-1.2-3.2-3.2c0-6.6,0-13.2,0-19.7C2.3,1.3,3.5,0,5.4,0c9.7,0,19.4,0,29.2,0
		c2,0,3.2,1.2,3.2,3.2c0,6.6,0,13.1,0,19.7c0,1.9-1.2,3.2-3.2,3.2c-3,0-5.9,0-8.9,0C25.6,26.1,25.4,26.1,25.2,26.1z M36.6,21.3
		c0-0.2,0-0.3,0-0.4c0-5.9,0-11.8,0-17.7c0-1.3-0.7-2-2-2c-3.7,0-7.5,0-11.2,0c-0.1,0-0.3,0-0.4,0c0,6.7,0,13.4,0,20.1
		C27.5,21.3,32.1,21.3,36.6,21.3z M21.8,1.2c-0.1,0-0.3,0-0.4,0c-5.3,0-10.7,0-16,0c-1.3,0-2,0.7-2,2c0,5.9,0,11.8,0,17.8
		c0,0.1,0,0.3,0,0.4c6.2,0,12.2,0,18.3,0C21.8,14.6,21.8,7.9,21.8,1.2z M3.5,22.6c-0.2,1.6,0.8,2.4,2.1,2.4c9.7,0,19.4,0,29.1,0
		c1.4,0,2.2-1,1.9-2.4C25.5,22.6,14.5,22.6,3.5,22.6z M20,30.8c1.7,0,3.5,0,5.2,0c0.7,0,0.9-0.4,0.6-1c-0.6-1.2-1.2-2.3-1.8-3.5
		c-0.1-0.2-0.2-0.3-0.4-0.3c-2.4,0-4.8,0-7.2,0c-0.2,0-0.3,0.1-0.4,0.3c-0.6,1.2-1.2,2.3-1.8,3.5c-0.3,0.6-0.1,1,0.6,1
		C16.6,30.8,18.3,30.8,20,30.8z"/>
	<linearGradient id="SVGID_2_" gradientUnits="userSpaceOnUse" x1="23.0154" y1="11.2859" x2="36.6136" y2="11.2859">
		<stop  offset="0.2593" style="stop-color:#FFDB6E"/>
		<stop  offset="1" style="stop-color:#FFBC5E"/>
	</linearGradient>
	<path style="opacity:0.15;fill:url(#SVGID_2_);enable-background:new    ;" d="M36.6,21.3c-4.6,0-9.1,0-13.6,0c0-6.7,0-13.4,0-20.1
		c0.1,0,0.3,0,0.4,0c3.7,0,7.5,0,11.2,0c1.3,0,2,0.7,2,2c0,5.9,0,11.8,0,17.7C36.6,21.1,36.6,21.2,36.6,21.3z M29.8,12.5
		c-0.6,0-1.2,0-1.7,0c-0.9,0-1.8,0-2.7,0c-0.4,0-0.6,0.3-0.6,0.6c0,0.3,0.2,0.6,0.6,0.6c0.1,0,0.2,0,0.3,0c2.4,0,4.8,0,7.1,0
		c0.5,0,0.9,0,1.4,0c0.3,0,0.5-0.2,0.6-0.4c0-0.2-0.1-0.5-0.2-0.6c-0.1-0.1-0.3-0.1-0.5-0.1C32.6,12.5,31.2,12.5,29.8,12.5z
		 M29.8,16.6c0.6,0,1.2,0,1.8,0c0.9,0,1.7,0,2.6,0c0.4,0,0.6-0.3,0.6-0.6c0-0.3-0.3-0.6-0.6-0.6c-0.1,0-0.2,0-0.3,0
		c-2.3,0-4.7,0-7,0c-0.5,0-1,0-1.6,0c-0.3,0-0.5,0.2-0.6,0.4c0,0.2,0.1,0.5,0.2,0.6c0.1,0.1,0.3,0.1,0.5,0.1
		C27,16.6,28.4,16.6,29.8,16.6z M29.8,19.6c0.5,0,0.9,0,1.4,0c1,0,2,0,3,0c0.3,0,0.6-0.1,0.6-0.4c0-0.2-0.1-0.5-0.2-0.6
		c-0.1-0.1-0.4-0.1-0.5-0.1c-2.2,0-4.4,0-6.6,0c-0.7,0-1.4,0-2,0c-0.4,0-0.7,0.3-0.7,0.7c0,0.3,0.3,0.5,0.7,0.5
		C26.9,19.6,28.3,19.6,29.8,19.6z M25.5,6.6c0.1-0.2,0.2-0.3,0.3-0.4c0.4-0.5,0.8-1,1.2-1.6c0.2-0.3,0.2-0.7-0.1-0.8
		c-0.3-0.2-0.6-0.2-0.8,0.1c-0.6,0.8-1.2,1.6-1.8,2.4c-0.1,0.2-0.1,0.5,0,0.6c0.6,0.8,1.2,1.6,1.8,2.4c0.2,0.3,0.5,0.3,0.8,0.1
		c0.3-0.2,0.3-0.5,0.1-0.8c-0.1-0.1-0.1-0.2-0.2-0.3C26.4,7.7,26,7.2,25.5,6.6z M33.5,6.6c-0.5,0.7-1,1.3-1.4,1.9
		c-0.3,0.4-0.2,0.7,0,0.9c0.3,0.2,0.6,0.2,0.9-0.2c0.6-0.7,1.1-1.5,1.6-2.2c0.2-0.3,0.2-0.6,0-0.9c-0.5-0.7-1.1-1.4-1.6-2.2
		c-0.3-0.4-0.6-0.4-0.9-0.2c-0.3,0.2-0.3,0.6,0,0.9C32.6,5.3,33,5.9,33.5,6.6z M29,9.5c0.3,0,0.5-0.2,0.5-0.5
		c0.4-1.5,0.8-3.1,1.2-4.6c0.1-0.4-0.1-0.7-0.4-0.8c-0.3-0.1-0.6,0.1-0.7,0.5c-0.1,0.3-0.2,0.7-0.3,1c-0.3,1.2-0.6,2.4-0.9,3.6
		C28.3,9.2,28.5,9.5,29,9.5z"/>
	<linearGradient id="SVGID_3_" gradientUnits="userSpaceOnUse" x1="3.4527" y1="11.2786" x2="21.7912" y2="11.2786">
		<stop  offset="0.2593" style="stop-color:#FFDB6E"/>
		<stop  offset="1" style="stop-color:#FFBC5E"/>
	</linearGradient>
	<path style="opacity:0.15;fill:url(#SVGID_3_);enable-background:new    ;" d="M21.8,1.2c0,6.7,0,13.4,0,20.1c-6.1,0-12.2,0-18.3,0
		c0-0.1,0-0.2,0-0.4c0-5.9,0-11.8,0-17.8c0-1.3,0.7-2,2-2c5.3,0,10.7,0,16,0C21.5,1.2,21.7,1.2,21.8,1.2z M12.9,11.3
		c2.1,0,4.2,0,6.4,0c0.9,0,1.3-0.5,1.3-1.3c0-1.9,0-3.7,0-5.6c0-0.9-0.5-1.3-1.3-1.3c-4.2,0-8.5,0-12.7,0C5.7,3,5.2,3.5,5.2,4.4
		c0,1.9,0,3.7,0,5.6c0,0.9,0.5,1.4,1.3,1.4C8.7,11.3,10.8,11.3,12.9,11.3z M12.3,16c0-0.8,0-1.5,0-2.3c0-0.8-0.5-1.3-1.3-1.3
		c-1.5,0-3,0-4.6,0c-0.8,0-1.3,0.5-1.3,1.3c0,1.5,0,3,0,4.6c0,0.8,0.5,1.3,1.3,1.3c1.5,0,3,0,4.5,0c0.8,0,1.3-0.5,1.3-1.3
		C12.3,17.5,12.3,16.8,12.3,16z M13.5,16c0,0.8,0,1.6,0,2.3c0,0.7,0.5,1.2,1.2,1.2c1.5,0,3.1,0,4.6,0c0.8,0,1.2-0.5,1.2-1.3
		c0-1.5,0-3.1,0-4.6c0-0.8-0.5-1.3-1.2-1.3c-1.5,0-3.1,0-4.6,0c-0.8,0-1.3,0.5-1.3,1.3C13.5,14.5,13.5,15.3,13.5,16z"/>
	<g>
		<linearGradient id="SVGID_4_" gradientUnits="userSpaceOnUse" x1="24.7735" y1="13.0699" x2="34.8005" y2="13.0699">
			<stop  offset="0.2593" style="stop-color:#FFDB6E"/>
			<stop  offset="1" style="stop-color:#FFBC5E"/>
		</linearGradient>
		<path class="st3" d="M29.8,12.5c1.4,0,2.8,0,4.3,0c0.2,0,0.4,0,0.5,0.1c0.1,0.2,0.2,0.4,0.2,0.6c0,0.3-0.3,0.4-0.6,0.4
			c-0.5,0-0.9,0-1.4,0c-2.4,0-4.8,0-7.1,0c-0.1,0-0.2,0-0.3,0c-0.4,0-0.6-0.3-0.6-0.6c0-0.3,0.2-0.6,0.6-0.6c0.9,0,1.8,0,2.7,0
			C28.6,12.5,29.2,12.5,29.8,12.5z"/>
		<linearGradient id="SVGID_5_" gradientUnits="userSpaceOnUse" x1="24.8062" y1="16.0314" x2="34.8339" y2="16.0314">
			<stop  offset="0.2593" style="stop-color:#FFDB6E"/>
			<stop  offset="1" style="stop-color:#FFBC5E"/>
		</linearGradient>
		<path class="st4" d="M29.8,16.6c-1.4,0-2.8,0-4.3,0c-0.2,0-0.4,0-0.5-0.1c-0.1-0.2-0.2-0.4-0.2-0.6c0-0.3,0.3-0.4,0.6-0.4
			c0.5,0,1,0,1.6,0c2.3,0,4.7,0,7,0c0.1,0,0.2,0,0.3,0c0.4,0,0.6,0.3,0.6,0.6c0,0.3-0.2,0.6-0.6,0.6c-0.9,0-1.7,0-2.6,0
			C31,16.6,30.4,16.6,29.8,16.6z"/>
		<linearGradient id="SVGID_6_" gradientUnits="userSpaceOnUse" x1="24.7714" y1="18.9919" x2="34.7915" y2="18.9919">
			<stop  offset="0.2593" style="stop-color:#FFDB6E"/>
			<stop  offset="1" style="stop-color:#FFBC5E"/>
		</linearGradient>
		<path class="st5" d="M29.8,19.6c-1.4,0-2.9,0-4.3,0c-0.4,0-0.7-0.2-0.7-0.5c0-0.4,0.2-0.7,0.7-0.7c0.7,0,1.4,0,2,0
			c2.2,0,4.4,0,6.6,0c0.2,0,0.4,0,0.5,0.1c0.1,0.2,0.2,0.4,0.2,0.6c0,0.3-0.3,0.4-0.6,0.4c-1,0-2,0-3,0
			C30.7,19.6,30.2,19.6,29.8,19.6z"/>
		<linearGradient id="SVGID_7_" gradientUnits="userSpaceOnUse" x1="24.2195" y1="6.5556" x2="27.1379" y2="6.5556">
			<stop  offset="0.2593" style="stop-color:#FFDB6E"/>
			<stop  offset="1" style="stop-color:#FFBC5E"/>
		</linearGradient>
		<path class="st6" d="M25.5,6.6c0.4,0.6,0.9,1.2,1.3,1.8C26.9,8.4,27,8.5,27,8.6c0.2,0.3,0.1,0.6-0.1,0.8c-0.3,0.2-0.6,0.2-0.8-0.1
			c-0.6-0.8-1.2-1.6-1.8-2.4c-0.1-0.1-0.1-0.5,0-0.6c0.6-0.8,1.2-1.6,1.8-2.4c0.2-0.3,0.6-0.3,0.8-0.1c0.3,0.2,0.3,0.5,0.1,0.8
			c-0.4,0.5-0.8,1-1.2,1.6C25.7,6.3,25.6,6.4,25.5,6.6z"/>
		<linearGradient id="SVGID_8_" gradientUnits="userSpaceOnUse" x1="31.881" y1="6.5553" x2="34.8276" y2="6.5553">
			<stop  offset="0.2593" style="stop-color:#FFDB6E"/>
			<stop  offset="1" style="stop-color:#FFBC5E"/>
		</linearGradient>
		<path class="st7" d="M33.5,6.6c-0.5-0.6-0.9-1.3-1.4-1.9c-0.3-0.4-0.3-0.7,0-0.9c0.3-0.2,0.6-0.2,0.9,0.2c0.5,0.7,1.1,1.4,1.6,2.2
			c0.2,0.3,0.2,0.6,0,0.9c-0.6,0.7-1.1,1.5-1.6,2.2c-0.3,0.4-0.6,0.4-0.9,0.2c-0.3-0.2-0.3-0.6,0-0.9C32.5,7.8,33,7.2,33.5,6.6z"/>
		<linearGradient id="SVGID_9_" gradientUnits="userSpaceOnUse" x1="28.3352" y1="6.5531" x2="30.6842" y2="6.5531">
			<stop  offset="0.2593" style="stop-color:#FFDB6E"/>
			<stop  offset="1" style="stop-color:#FFBC5E"/>
		</linearGradient>
		<path class="st8" d="M29,9.5c-0.5,0-0.7-0.4-0.6-0.8c0.3-1.2,0.6-2.4,0.9-3.6c0.1-0.3,0.2-0.7,0.3-1c0.1-0.4,0.4-0.6,0.7-0.5
			c0.3,0.1,0.5,0.4,0.4,0.8c-0.4,1.5-0.8,3.1-1.2,4.6C29.4,9.3,29.2,9.5,29,9.5z"/>
	</g>
	<g>
		<linearGradient id="SVGID_10_" gradientUnits="userSpaceOnUse" x1="5.2287" y1="7.1475" x2="20.6262" y2="7.1475">
			<stop  offset="0.2593" style="stop-color:#FFDB6E"/>
			<stop  offset="1" style="stop-color:#FFBC5E"/>
		</linearGradient>
		<path class="st9" d="M12.9,11.3c-2.1,0-4.2,0-6.4,0c-0.9,0-1.3-0.5-1.3-1.4c0-1.9,0-3.7,0-5.6C5.2,3.5,5.7,3,6.6,3
			c4.2,0,8.5,0,12.7,0c0.8,0,1.3,0.5,1.3,1.3c0,1.9,0,3.7,0,5.6c0,0.9-0.5,1.3-1.3,1.3C17.2,11.3,15.1,11.3,12.9,11.3z M6.4,10.1
			c4.3,0,8.7,0,13,0c0-2,0-3.9,0-5.9c-4.3,0-8.7,0-13,0C6.4,6.2,6.4,8.1,6.4,10.1z"/>
		<linearGradient id="SVGID_11_" gradientUnits="userSpaceOnUse" x1="5.2275" y1="16.0311" x2="12.3365" y2="16.0311">
			<stop  offset="0.2593" style="stop-color:#FFDB6E"/>
			<stop  offset="1" style="stop-color:#FFBC5E"/>
		</linearGradient>
		<path class="st10" d="M12.3,16c0,0.8,0,1.5,0,2.3c0,0.8-0.5,1.3-1.3,1.3c-1.5,0-3,0-4.5,0c-0.8,0-1.3-0.5-1.3-1.3c0-1.5,0-3,0-4.6
			c0-0.8,0.5-1.3,1.3-1.3c1.5,0,3,0,4.6,0c0.8,0,1.3,0.5,1.3,1.3C12.3,14.5,12.3,15.3,12.3,16z M6.4,13.7c0,1.6,0,3.1,0,4.7
			c1.6,0,3.1,0,4.7,0c0-1.6,0-3.1,0-4.7C9.6,13.7,8,13.7,6.4,13.7z"/>
		<linearGradient id="SVGID_12_" gradientUnits="userSpaceOnUse" x1="13.5177" y1="16.0315" x2="20.6275" y2="16.0315">
			<stop  offset="0.2593" style="stop-color:#FFDB6E"/>
			<stop  offset="1" style="stop-color:#FFBC5E"/>
		</linearGradient>
		<path style="fill:url(#SVGID_12_);" d="M13.5,16c0-0.8,0-1.5,0-2.3c0-0.8,0.5-1.3,1.3-1.3c1.5,0,3.1,0,4.6,0
			c0.8,0,1.2,0.5,1.2,1.3c0,1.5,0,3.1,0,4.6c0,0.8-0.5,1.3-1.2,1.3c-1.5,0-3.1,0-4.6,0c-0.7,0-1.2-0.5-1.2-1.2
			C13.5,17.6,13.5,16.8,13.5,16z M14.7,18.4c1.6,0,3.1,0,4.7,0c0-1.6,0-3.1,0-4.7c-1.6,0-3.1,0-4.7,0C14.7,15.3,14.7,16.8,14.7,18.4
			z"/>
	</g>
	<linearGradient id="SVGID_13_" gradientUnits="userSpaceOnUse" x1="6.431" y1="7.1442" x2="19.412" y2="7.1442">
		<stop  offset="0.2593" style="stop-color:#FFDB6E"/>
		<stop  offset="1" style="stop-color:#FFBC5E"/>
	</linearGradient>
	<rect x="6.4" y="4.2" style="opacity:0.15;fill:url(#SVGID_13_);enable-background:new    ;" width="13" height="5.9"/>
	<linearGradient id="SVGID_14_" gradientUnits="userSpaceOnUse" x1="6.4395" y1="16.0249" x2="11.1313" y2="16.0249">
		<stop  offset="0.2593" style="stop-color:#FFDB6E"/>
		<stop  offset="1" style="stop-color:#FFBC5E"/>
	</linearGradient>
	<rect x="6.4" y="13.7" class="st13" width="4.7" height="4.7"/>
	<linearGradient id="SVGID_15_" gradientUnits="userSpaceOnUse" x1="14.7275" y1="16.0249" x2="19.4193" y2="16.0249">
		<stop  offset="0.2593" style="stop-color:#FFDB6E"/>
		<stop  offset="1" style="stop-color:#FFBC5E"/>
	</linearGradient>
	<rect x="14.7" y="13.7" class="st14" width="4.7" height="4.7"/>
</g>
</svg>
