<?xml version="1.0" encoding="utf-8"?>
<!-- Generator: Adobe Illustrator 25.0.1, SVG Export Plug-In . SVG Version: 6.00 Build 0)  -->
<svg version="1.1" id="Layer_1" xmlns="http://www.w3.org/2000/svg" xmlns:xlink="http://www.w3.org/1999/xlink" x="0px" y="0px"
	 viewBox="0 0 40 32" style="enable-background:new 0 0 40 32;" xml:space="preserve">
<style type="text/css">
	.st0{opacity:0.15;fill-rule:evenodd;clip-rule:evenodd;fill:url(#SVGID_1_);enable-background:new    ;}
	.st1{fill:url(#SVGID_2_);}
	.st2{fill:url(#SVGID_3_);}
	.st3{fill:url(#SVGID_4_);}
	.st4{fill:url(#SVGID_5_);}
	.st5{fill:url(#SVGID_6_);}
	.st6{fill:url(#SVGID_7_);}
	.st7{fill:url(#SVGID_8_);}
	.st8{fill:url(#SVGID_9_);}
	.st9{fill:url(#SVGID_10_);}
	.st10{fill:url(#SVGID_11_);}
	.st11{opacity:0.15;fill:url(#SVGID_12_);enable-background:new    ;}
	.st12{fill:url(#SVGID_13_);}
	.st13{opacity:0.15;fill:url(#SVGID_14_);enable-background:new    ;}
	.st14{opacity:0.15;fill:url(#SVGID_15_);enable-background:new    ;}
	.st15{fill:url(#SVGID_16_);}
	.st16{fill:url(#SVGID_17_);}
	.st17{fill:url(#SVGID_18_);}
	.st18{fill:url(#SVGID_19_);}
	.st19{fill:url(#SVGID_20_);}
	.st20{fill:url(#SVGID_21_);}
	.st21{fill:url(#SVGID_22_);}
	.st22{fill:url(#SVGID_23_);}
	.st23{fill:url(#SVGID_24_);}
	.st24{opacity:0.15;fill:url(#SVGID_25_);enable-background:new    ;}
	.st25{opacity:0.15;fill:url(#SVGID_26_);enable-background:new    ;}
	.st26{opacity:0.15;fill:url(#SVGID_27_);enable-background:new    ;}
	.st27{fill:url(#SVGID_28_);}
	.st28{fill:url(#SVGID_29_);}
	.st29{opacity:0.15;fill:url(#SVGID_30_);enable-background:new    ;}
	.st30{opacity:0.15;fill:url(#SVGID_31_);enable-background:new    ;}
	.st31{opacity:0.15;fill:url(#SVGID_32_);enable-background:new    ;}
	.st32{opacity:0.15;fill:url(#SVGID_33_);enable-background:new    ;}
	.st33{opacity:0.15;fill:url(#SVGID_34_);enable-background:new    ;}
	.st34{opacity:0.15;fill:url(#SVGID_35_);enable-background:new    ;}
	.st35{opacity:0.15;fill:url(#SVGID_36_);enable-background:new    ;}
	.st36{opacity:0.15;fill:url(#SVGID_37_);enable-background:new    ;}
	.st37{opacity:0.15;fill:url(#SVGID_38_);enable-background:new    ;}
	.st38{fill:url(#SVGID_39_);}
	.st39{opacity:0.15;fill:url(#SVGID_40_);enable-background:new    ;}
	.st40{opacity:0.15;fill:url(#SVGID_41_);enable-background:new    ;}
	.st41{fill:url(#SVGID_42_);}
	.st42{fill:url(#SVGID_43_);}
	.st43{fill:url(#SVGID_44_);}
	.st44{fill:url(#SVGID_45_);}
	.st45{fill:url(#SVGID_46_);}
	.st46{fill:url(#SVGID_47_);}
	.st47{fill:url(#SVGID_48_);}
	.st48{opacity:0.15;fill:url(#SVGID_49_);enable-background:new    ;}
	.st49{opacity:0.15;fill:url(#SVGID_50_);enable-background:new    ;}
	.st50{fill:url(#SVGID_51_);}
	.st51{fill:url(#SVGID_52_);}
	.st52{fill:url(#SVGID_53_);}
	.st53{fill:url(#SVGID_54_);}
	.st54{opacity:0.15;fill:url(#SVGID_55_);enable-background:new    ;}
	.st55{opacity:0.15;fill:url(#SVGID_56_);enable-background:new    ;}
	.st56{opacity:0.15;fill:url(#SVGID_57_);enable-background:new    ;}
	.st57{opacity:0.15;fill:url(#SVGID_58_);enable-background:new    ;}
	.st58{opacity:0.15;fill:url(#SVGID_59_);enable-background:new    ;}
	.st59{opacity:0.15;fill:url(#SVGID_60_);enable-background:new    ;}
	.st60{opacity:0.15;fill:url(#SVGID_61_);enable-background:new    ;}
	.st61{opacity:0.15;fill:url(#SVGID_62_);enable-background:new    ;}
	.st62{opacity:0.15;fill:url(#SVGID_63_);enable-background:new    ;}
	.st63{opacity:0.15;fill:url(#SVGID_64_);enable-background:new    ;}
	.st64{opacity:0.15;fill:url(#SVGID_65_);enable-background:new    ;}
	.st65{fill:url(#SVGID_66_);}
	.st66{fill:url(#SVGID_67_);}
	.st67{fill:url(#SVGID_68_);}
	.st68{fill:url(#SVGID_69_);}
	.st69{fill:url(#SVGID_70_);}
	.st70{fill:url(#SVGID_71_);}
	.st71{fill:url(#SVGID_72_);}
	.st72{fill:url(#SVGID_73_);}
	.st73{fill:url(#SVGID_74_);}
	.st74{fill:url(#SVGID_75_);}
	.st75{fill:url(#SVGID_76_);}
	.st76{fill:url(#SVGID_77_);}
	.st77{fill:url(#SVGID_78_);}
	.st78{fill:url(#SVGID_79_);}
	.st79{opacity:0.15;fill:url(#SVGID_80_);enable-background:new    ;}
	.st80{opacity:0.15;fill:url(#SVGID_81_);enable-background:new    ;}
	.st81{opacity:0.15;fill:url(#SVGID_82_);enable-background:new    ;}
	.st82{opacity:0.15;fill:url(#SVGID_83_);enable-background:new    ;}
	.st83{fill:url(#SVGID_84_);}
	.st84{fill:url(#SVGID_85_);}
	.st85{fill:url(#SVGID_86_);}
	.st86{fill:url(#SVGID_87_);}
	.st87{fill:url(#SVGID_88_);}
	.st88{fill:url(#SVGID_89_);}
	.st89{fill:url(#SVGID_90_);}
	.st90{fill:url(#SVGID_91_);}
	.st91{fill:url(#SVGID_92_);}
	.st92{fill:url(#SVGID_93_);}
	.st93{fill:url(#SVGID_94_);}
	.st94{opacity:0.15;fill:url(#SVGID_95_);enable-background:new    ;}
	.st95{opacity:0.15;fill:url(#SVGID_96_);enable-background:new    ;}
	.st96{fill:url(#SVGID_97_);}
	.st97{fill:url(#SVGID_98_);}
	.st98{opacity:0.15;fill:url(#SVGID_99_);enable-background:new    ;}
	.st99{opacity:0.15;fill:url(#SVGID_100_);enable-background:new    ;}
	.st100{opacity:0.15;fill:url(#SVGID_101_);enable-background:new    ;}
	.st101{opacity:0.15;fill:url(#SVGID_102_);enable-background:new    ;}
	.st102{opacity:0.15;fill:url(#SVGID_103_);enable-background:new    ;}
	.st103{fill:url(#SVGID_104_);}
	.st104{fill:url(#SVGID_105_);}
	.st105{fill:url(#SVGID_106_);}
	.st106{opacity:0.15;fill:url(#SVGID_107_);enable-background:new    ;}
	.st107{opacity:0.15;fill:url(#SVGID_108_);enable-background:new    ;}
	.st108{opacity:0.15;fill:url(#SVGID_109_);enable-background:new    ;}
	.st109{fill:url(#SVGID_110_);}
	.st110{fill:url(#SVGID_111_);}
	.st111{fill:url(#SVGID_112_);}
	.st112{fill:url(#SVGID_113_);}
	.st113{fill:url(#SVGID_114_);}
	.st114{fill:url(#SVGID_115_);}
	.st115{fill:url(#SVGID_116_);}
	.st116{fill:url(#SVGID_117_);}
	.st117{fill:url(#SVGID_118_);}
	.st118{fill:url(#SVGID_119_);}
	.st119{fill:url(#SVGID_120_);}
	.st120{fill:url(#SVGID_121_);}
	.st121{fill:url(#SVGID_122_);}
	.st122{fill:url(#SVGID_123_);}
	.st123{fill:#1F9BEF;}
</style>
<g>
	<linearGradient id="SVGID_1_" gradientUnits="userSpaceOnUse" x1="21.976" y1="18.5488" x2="33.0225" y2="18.5488">
		<stop  offset="0.2593" style="stop-color:#FFDB6E"/>
		<stop  offset="1" style="stop-color:#FFBC5E"/>
	</linearGradient>
	<path style="fill:url(#SVGID_1_);" d="M33,21.8c0,0.2-0.1,0.4-0.1,0.6c-0.4,1.6-1.5,2.6-3.1,3.2c-1.6,0.6-3.2,0.6-4.8,0.4
		c-1-0.1-1.9-0.4-2.8-0.8C22,25,21.9,24.9,22,24.6c0.2-0.9,0.5-1.8,0.7-2.8c0.1-0.4,0.2-0.4,0.6-0.2c1.2,0.6,2.4,1,3.7,0.9
		c0.3,0,0.5-0.1,0.8-0.2c0.3-0.1,0.5-0.3,0.5-0.6c0-0.3,0-0.6-0.4-0.8c-0.4-0.2-0.7-0.4-1.1-0.5c-0.8-0.3-1.7-0.6-2.4-1.1
		c-0.8-0.5-1.5-1.2-1.9-2.2c-0.6-1.5-0.1-3.5,1.1-4.6c1-0.9,2.2-1.4,3.6-1.5c1.7-0.2,3.3,0,4.9,0.7c0.3,0.1,0.4,0.2,0.3,0.5
		c-0.2,0.9-0.5,1.8-0.7,2.7c-0.1,0.4-0.2,0.4-0.6,0.3c-0.8-0.4-1.7-0.7-2.6-0.7c-0.3,0-0.6,0-0.9,0.1c-0.3,0.1-0.5,0.3-0.6,0.6
		c0,0.4,0.1,0.6,0.4,0.7c0.4,0.2,0.7,0.4,1.1,0.5c0.8,0.3,1.7,0.6,2.4,1.1c1.1,0.7,1.9,1.7,2,3.1c0,0,0,0.1,0,0.1
		C33,21.2,33,21.5,33,21.8z"/>
	<linearGradient id="SVGID_2_" gradientUnits="userSpaceOnUse" x1="6.9775" y1="15.8538" x2="21.2832" y2="15.8538">
		<stop  offset="0.2593" style="stop-color:#FFDB6E"/>
		<stop  offset="1" style="stop-color:#FFBC5E"/>
	</linearGradient>
	<path class="st1" d="M11.8,19c0,0.1,0,0.2,0,0.3c0,2,0,4,0,6c0,0.4-0.1,0.5-0.5,0.5c-1.3,0-2.6,0-3.9,0C7,25.8,7,25.7,7,25.3
		C7,19.1,7,13,7,6.8c0-0.3,0-0.4,0.4-0.4C9.9,6,12.4,5.8,15,6c1.2,0.1,2.3,0.4,3.3,1c1.6,0.9,2.5,2.2,2.8,3.9
		c0.3,1.5,0.1,2.9-0.5,4.3c-0.5,1.2-1.4,2.1-2.6,2.7c-1.6,0.9-3.4,1.1-5.2,1.1C12.6,19,12.2,19,11.8,19z M11.8,15.1
		c0.8,0.1,1.6,0.1,2.4-0.1c1.3-0.3,2-1.1,2.2-2.3c0.2-1.3-0.5-2.5-1.8-2.8c-0.9-0.2-1.9-0.2-2.8-0.1C11.8,11.6,11.8,13.3,11.8,15.1z
		"/>
</g>
</svg>
